<?xml version="1.0" encoding="UTF-8"?>
<svg id="Layer_2" xmlns="http://www.w3.org/2000/svg" viewBox="0 0 180.9 211" color="white">
    <g id="Layer_1-2" fill="white">
        <path d="M84.2,3.7c-2.9,2.1-14.5,10.4-26,18.5-11.4,8.1-29.1,20.6-39.3,27.9C8.7,57.3,.2,63.9,.1,64.7c-.2,.9,.2,1.9,1,2.4,1.5,1,175.7,1.2,178.2,.3,.9-.3,1.6-1.4,1.6-2.5,0-1.8-3.3-4.6-15.4-12.9-8.7-5.9-24.2-16.8-28.6-20.1C108,10.6,92.7,0,90.7,0c-.8,0-3.7,1.7-6.5,3.7Zm24.7,15.1c20.6,14.7,48,34.3,52.6,37.7,2.3,1.6,5,3.5,6,4.2,1.5,.9-15.5,1.2-76.6,1.2l-78.5,.1,3-2.5c2.7-2.3,16.9-12.4,38.8-27.7,4.5-3.2,14.5-10.2,22.2-15.7,13.7-9.7,14.1-9.9,16.5-8.4,1.4,.9,8.6,5.9,16,11.1Z"/>
        <path d="M84.9,25.3c-11.7,7.1-23.1,15.9-22.8,17.5,.6,3.2,3.6,2.2,12.9-4.1,5.2-3.5,10.8-7.2,12.6-8.2l3.2-1.9,12.4,8.3c8.4,5.6,12.9,8,14.1,7.5,3.4-1.3,.8-4.1-12.4-13.1-7.4-5.1-13.7-9.2-14-9.2-.3-.1-3,1.4-6,3.2Z" />
        <path d="M22.5,74.6c-.9,3.5-.6,69.8,.4,71.3,.4,.8,4,1.1,11.1,.9l10.4-.3,.3-36.3c.2-32.3,.1-36.3-1.4-36.9-3.6-1.4-3.9,.9-4.3,34.7l-.3,33h-10.8l-.2-34.3c-.3-34-.3-34.2-2.4-34.5-1.6-.2-2.3,.4-2.8,2.4Z" />
        <path d="M60.5,74.5c-.4,1.4-.6,17.8-.6,36.4,.1,27.2,.4,34.2,1.4,35.1,.9,.7,5,1,11.2,.8l9.9-.3,.3-36.3c.2-32.3,.1-36.3-1.4-36.9-3.6-1.4-3.9,.9-4.3,34.7l-.3,33h-10.8l-.2-34.3c-.3-34-.3-34.2-2.4-34.5-1.6-.2-2.3,.4-2.8,2.3Z" />
        <path d="M100.5,74.5c-.4,1.4-.6,17.8-.6,36.4,.1,27.2,.4,34.2,1.4,35.1,.9,.7,5,1,11.2,.8l9.9-.3,.3-36.3c.2-32.3,.1-36.3-1.4-36.9-3.6-1.4-3.9,.9-4.3,34.7l-.3,33h-10.8l-.2-34.3c-.3-34-.3-34.2-2.4-34.5-1.6-.2-2.3,.4-2.8,2.3Z" />
        <path d="M136.9,74.9c-1.7,3.3-1.3,70.6,.4,72.1,.9,.7,5,1,11.2,.8l9.9-.3,.3-36.3c.2-32.3,.1-36.3-1.4-36.9-3.6-1.4-3.9,.9-4.3,34.7l-.3,33h-10.8l-.2-34.2c-.3-31.2-.5-34.3-2-34.6-.9-.2-2.2,.6-2.8,1.7Z" />
        <path d="M15.3,154.5c-.4,.8-.1,2.2,.6,3,1.1,1.3,10.6,1.5,74.8,1.3,69.2-.3,73.5-.4,74.6-2.1,.8-1.4,.8-2-.4-2.7-.9-.6-30.1-1-75.3-1-64.9,0-73.8,.2-74.3,1.5Z" />
        <path d="M9.1,164.9c-.8,.5-1.2,1.7-1,2.7,.3,1.8,3,1.9,81.9,2.2,74.1,.2,81.8,.1,83-1.4,1.1-1.4,1-1.8-.6-3s-15.1-1.4-81.9-1.4c-44.1,0-80.7,.4-81.4,.9Z" />
        <path d="M.3,176.5c-.4,.8-.4,2.2,0,3,.5,1.3,11.3,1.5,89.4,1.5s89.1-.2,90.2-1.5c1-1.2,1-1.8,0-3-1.1-1.3-12.3-1.5-90.2-1.5s-88.9,.2-89.4,1.5Z" />
        <path d="M9.9,199.5v11.5h5.5c3,0,5.5-.5,5.5-1,0-.6-2-1-4.5-1h-4.5v-10.5c0-6.3-.4-10.5-1-10.5s-1,4.5-1,11.5Z" />
        <path d="M24.9,199.5c0,7,.4,11.5,1,11.5s1-4.5,1-11.5-.4-11.5-1-11.5-1,4.5-1,11.5Z" />
        <path d="M33.9,199.5c0,14,1.8,15.6,2.2,1.9l.3-9.7,6,9.7c3.2,5.3,6.5,9.6,7.2,9.6,1,0,1.3-2.7,1.3-11.5,0-14-1.8-15.6-2.2-2l-.3,9.6-5.9-9.6c-3.2-5.2-6.5-9.5-7.2-9.5-1.1,0-1.4,2.5-1.4,11.5Z" />
        <path d="M62.1,189.5c-6.3,2.8-8,13.1-2.9,18.2,2.7,2.8,8.1,3.9,12,2.4,2.4-1,2.7-1.5,2.7-6.1v-5h-3.5c-3.9,0-4.8,1.7-1.2,2.2,1.6,.2,2.3,1.1,2.5,3.2,.9,7.4-10.6,5.7-12.6-1.9-2.1-7.6,3.1-13.2,11.1-12,3.9,.5,4.1,.5,2.3-1-2.4-1.9-6.1-1.9-10.4,0Z"/>
        <path d="M83.9,189.3c-2.9,1.4-6,7-6,10.7s3.5,8.9,6.7,10.1c3.9,1.4,8.5,.3,11.4-2.7,1.9-2.1,2.4-3.6,2.4-8.1,0-4.9-.3-5.8-3.3-8.4-3.5-3.1-7.1-3.7-11.2-1.6Zm9.6,3c2.3,2,2.7,3.2,2.7,7.2s-.4,5.2-2.7,7.2c-5.8,4.9-12.6,1.1-12.6-7.2s6.8-12.1,12.6-7.2Z"/>
        <path d="M103.9,199.5c0,7,.4,11.5,1,11.5s1-4.5,1-11.5-.4-11.5-1-11.5-1,4.5-1,11.5Z" />
        <path d="M114.1,189.2c-5.2,2.6-3.1,8.9,3.9,11.8,3.3,1.4,4.6,4.4,2.8,6.7-1,1.1-2.4,1.4-5.6,.9-4.4-.6-5.9,.7-2.2,1.9,2.8,.9,8.4-.2,9.9-2,2.4-2.9,.8-6.7-4-9.5-7.4-4.3-6.2-10.5,1.7-8.5,1.8,.4,2.4,.2,2.1-.7-.6-1.7-5.7-2-8.6-.6Z" />
        <path d="M126.9,189c0,.5,1.4,1,3,1h3v10.5c0,8.7,.3,10.5,1.5,10.5s1.5-1.8,1.5-10.5v-10.5h3c1.7,0,3-.5,3-1,0-.6-3.2-1-7.5-1s-7.5,.4-7.5,1Z" />
        <path d="M145.9,199.5c0,7,.4,11.5,1,11.5s1-4.5,1-11.5-.4-11.5-1-11.5-1,4.5-1,11.5Z" />
        <path d="M159.1,189.5c-6.4,2.8-8,13.1-2.9,18.3,3,3,9.4,4,12.2,1.8,1.9-1.5,1.7-1.5-2.7-1-4.1,.6-4.9,.3-7.2-1.9-2.6-2.6-3.5-8.2-2-12.2,1.1-2.7,6.2-4.7,10.3-4.1,3.4,.6,3.5,.5,1.7-.9-2.4-1.9-5.1-1.9-9.4,0Z" />
    </g>
</svg>
