<?xml version="1.0" standalone="no"?>
<!DOCTYPE svg PUBLIC "-//W3C//DTD SVG 20010904//EN"
 "http://www.w3.org/TR/2001/REC-SVG-20010904/DTD/svg10.dtd">
<svg version="1.0" xmlns="http://www.w3.org/2000/svg"
 width="1416.000000pt" height="672.000000pt" viewBox="0 0 1416.000000 672.000000"
 preserveAspectRatio="xMidYMid meet">

<g transform="translate(0.000000,672.000000) scale(0.100000,-0.100000)"
fill="#000000" stroke="none">
<path d="M7023 4223 c-29 -21 -145 -104 -260 -185 -114 -81 -291 -206 -393
-279 -102 -72 -187 -138 -188 -146 -2 -9 2 -19 10 -24 15 -10 1757 -12 1782
-3 9 3 16 14 16 25 0 18 -33 46 -154 129 -87 59 -242 168 -286 201 -289 213
-442 319 -462 319 -8 0 -37 -17 -65 -37z m247 -151 c206 -147 480 -343 526
-377 23 -16 50 -35 60 -42 15 -9 -155 -12 -766 -12 l-785 -1 30 25 c27 23 169
124 388 277 45 32 145 102 222 157 137 97 141 99 165 84 14 -9 86 -59 160
-111z"/>
<path d="M7030 4007 c-117 -71 -231 -159 -228 -175 6 -32 36 -22 129 41 52 35
108 72 126 82 l32 19 124 -83 c84 -56 129 -80 141 -75 34 13 8 41 -124 131
-74 51 -137 92 -140 92 -3 1 -30 -14 -60 -32z"/>
<path d="M6406 3514 c-9 -35 -6 -698 4 -713 4 -8 40 -11 111 -9 l104 3 3 363
c2 323 1 363 -14 369 -36 14 -39 -9 -43 -347 l-3 -330 -54 0 -54 0 -2 343 c-3
340 -3 342 -24 345 -16 2 -23 -4 -28 -24z"/>
<path d="M6786 3515 c-4 -14 -6 -178 -6 -364 1 -272 4 -342 14 -351 9 -7 50
-10 112 -8 l99 3 3 363 c2 323 1 363 -14 369 -36 14 -39 -9 -43 -347 l-3 -330
-54 0 -54 0 -2 343 c-3 340 -3 342 -24 345 -16 2 -23 -4 -28 -23z"/>
<path d="M7186 3515 c-4 -14 -6 -178 -6 -364 1 -272 4 -342 14 -351 9 -7 50
-10 112 -8 l99 3 3 363 c2 323 1 363 -14 369 -36 14 -39 -9 -43 -347 l-3 -330
-54 0 -54 0 -2 343 c-3 340 -3 342 -24 345 -16 2 -23 -4 -28 -23z"/>
<path d="M7550 3511 c-17 -33 -13 -706 4 -721 9 -7 50 -10 112 -8 l99 3 3 363
c2 323 1 363 -14 369 -36 14 -39 -9 -43 -347 l-3 -330 -54 0 -54 0 -2 342 c-3
312 -5 343 -20 346 -9 2 -22 -6 -28 -17z"/>
<path d="M6334 2715 c-4 -8 -1 -22 6 -30 11 -13 106 -15 748 -13 692 3 735 4
746 21 8 14 8 20 -4 27 -9 6 -301 10 -753 10 -649 0 -738 -2 -743 -15z"/>
<path d="M6272 2611 c-8 -5 -12 -17 -10 -27 3 -18 30 -19 819 -22 741 -2 818
-1 830 14 11 14 10 18 -6 30 -16 12 -151 14 -819 14 -441 0 -807 -4 -814 -9z"/>
<path d="M6184 2495 c-4 -8 -4 -22 0 -30 5 -13 113 -15 894 -15 779 0 891 2
902 15 10 12 10 18 0 30 -11 13 -123 15 -902 15 -781 0 -889 -2 -894 -15z"/>
<path d="M6280 2265 l0 -115 55 0 c30 0 55 5 55 10 0 6 -20 10 -45 10 l-45 0
0 105 c0 63 -4 105 -10 105 -6 0 -10 -45 -10 -115z"/>
<path d="M6430 2265 c0 -70 4 -115 10 -115 6 0 10 45 10 115 0 70 -4 115 -10
115 -6 0 -10 -45 -10 -115z"/>
<path d="M6520 2265 c0 -140 18 -156 22 -19 l3 97 60 -97 c32 -53 65 -96 72
-96 10 0 13 27 13 115 0 140 -18 156 -22 20 l-3 -96 -59 96 c-32 52 -65 95
-72 95 -11 0 -14 -25 -14 -115z"/>
<path d="M6802 2365 c-63 -28 -80 -131 -29 -182 27 -28 81 -39 120 -24 24 10
27 15 27 61 l0 50 -35 0 c-39 0 -48 -17 -12 -22 16 -2 23 -11 25 -32 9 -74
-106 -57 -126 19 -21 76 31 132 111 120 39 -5 41 -5 23 10 -24 19 -61 19 -104
0z"/>
<path d="M7020 2367 c-29 -14 -60 -70 -60 -107 0 -36 35 -89 67 -101 39 -14
85 -3 114 27 19 21 24 36 24 81 0 49 -3 58 -33 84 -35 31 -71 37 -112 16z m96
-30 c23 -20 27 -32 27 -72 0 -40 -4 -52 -27 -72 -58 -49 -126 -11 -126 72 0
83 68 121 126 72z"/>
<path d="M7220 2265 c0 -70 4 -115 10 -115 6 0 10 45 10 115 0 70 -4 115 -10
115 -6 0 -10 -45 -10 -115z"/>
<path d="M7322 2368 c-52 -26 -31 -89 39 -118 33 -14 46 -44 28 -67 -10 -11
-24 -14 -56 -9 -44 6 -59 -7 -22 -19 28 -9 84 2 99 20 24 29 8 67 -40 95 -74
43 -62 105 17 85 18 -4 24 -2 21 7 -6 17 -57 20 -86 6z"/>
<path d="M7450 2370 c0 -5 14 -10 30 -10 l30 0 0 -105 c0 -87 3 -105 15 -105
12 0 15 18 15 105 l0 105 30 0 c17 0 30 5 30 10 0 6 -32 10 -75 10 -43 0 -75
-4 -75 -10z"/>
<path d="M7640 2265 c0 -70 4 -115 10 -115 6 0 10 45 10 115 0 70 -4 115 -10
115 -6 0 -10 -45 -10 -115z"/>
<path d="M7772 2365 c-64 -28 -80 -131 -29 -183 30 -30 94 -40 122 -18 19 15
17 15 -27 10 -41 -6 -49 -3 -72 19 -26 26 -35 82 -20 122 11 27 62 47 103 41
34 -6 35 -5 17 9 -24 19 -51 19 -94 0z"/>
</g>
</svg>
