<?xml version="1.0" encoding="UTF-8"?><svg id="Layer_2" xmlns="http://www.w3.org/2000/svg" viewBox="0 0 150.17 134.82"><defs><style>.cls-1{fill:#afc746;}</style></defs><g id="Layer_2-2"><g><path class="cls-1" d="M49.46,69.32c-.1,.06-.14,.12,0,0h0Z"/><path class="cls-1" d="M51.94,89.85s.03-.04,.05-.07c-.03-.1-.05-.18-.06-.26l.02,.32Z"/><path class="cls-1" d="M60.48,79.14s.04-.03,.07-.05c-.04-.02-.07-.07-.07,.05Z"/><path class="cls-1" d="M40.14,107.97s-.05,.01-.1,.09c.04-.05,.06-.07,.1-.09Z"/><path class="cls-1" d="M33.37,89.29s.02-.03,.03-.05c-.04,.03-.08,.07-.12,.1l.09-.04Z"/><path class="cls-1" d="M33.49,88.92c.06-.02-.05,.22-.09,.32,.27-.22,.46-.5,.61-.81-.09-.06-.34,.32-.51,.49Z"/><path class="cls-1" d="M33.49,88.92s-.04,.02-.08,.07c.02-.01,.05-.04,.08-.07Z"/><path class="cls-1" d="M36.38,120.31s-.09,.03-.13,.04c.06,0,.1-.02,.13-.04Z"/><path class="cls-1" d="M15.31,122.89l-.14-.16c.04,.1,.09,.14,.14,.16Z"/><path class="cls-1" d="M69.04,69.5s.1,.05,.15,.06c.01-.01,.02-.02,.03-.03l-.18-.03Z"/><path class="cls-1" d="M50.68,122.95s.05,0,.08-.01l-.07-.28c-.02,.13-.02,.23-.01,.29Z"/><path class="cls-1" d="M71.1,81.94s.01,.07,.04,.08c.19-.24,.54-.93,.97-1.82l-.19-.16-.82,1.9Z"/><path class="cls-1" d="M56.98,109.27l.97-1.4c-.36,.9-.02,.48,.14,.35,.61-1.3,1.95-3.19,1.7-3.79,1.02-1.67,1.2-1.6,1.57-2.34-.2,.22-.5,.69-.59,.65,.52-.62,.11-.36-.07-.09,.3-1.17,3.42-5.21,3.06-5.66l.09,.04c-.23-.42-.77-.18-.6-1.03l.4-.42,.21-.83c.36-.45,.33-.16,.38-.13,.43-1.31,1.46-2.92,2.24-4.38l-1.73,1.1c.83-1.14,2.4-3.18,2.21-3.58l.69-.59c1.85-2.2,.6-1.88,1.28-2.79l.97-1.09-.62,1.25c.8-1.17,1.16-1.61,1.88-2.5,0,0,0-.01,0-.02-.05,.06-.09,.1-.11,.1l.08-.18c-.1-.24,.1-.95,.55-1.84,.66-1.24,.88-2.35,2.21-4.22l-.13-.68c.31-.48,.61-.97,.92-1.46l.29,.13c-.69,1.55-1.92,4.41-2.84,6.33l.11,.1c.55-1.13,1.04-2.49,1.43-3.23,.21-.3,.82-.98,.86-.56l.04-.65c.87-1.95,1.29-2.95,1.74-4.07,.11-.29,.23-.58,.35-.95,.06-.19,.12-.39,.19-.67,.01-.07,.03-.15,.04-.22,.01-.1,.03-.2,.04-.3,.01-.11,.02-.27,.01-.41,0-.08-.01-.22-.03-.32-.02-.12-.02-.2-.08-.41-.03-.09-.06-.19-.09-.28l-.06-.14-.03-.07-.05-.1c-.16-.28-.34-.53-.61-.77-.15-.13-.32-.25-.5-.35-.17-.1-.38-.19-.52-.22-.16-.05-.32-.08-.48-.11-.15-.02-.36-.03-.43-.02-.2,0-.41,.03-.61,.08-.14,.03-.24,.07-.36,.11l-.17,.06-.11,.05-.22,.1c-.13,.07-.21,.12-.32,.18-.08,.05-.16,.11-.24,.16-.1,.07-.21,.14-.32,.22-.4,.27-.83,.58-1.3,.94l.42-.15c-.66,.69-1.25,1.39-1.61,1.38-2.03,1.9-4.01,3.87-5.45,4.95l.04,.53c-.38,.42-1.36,.72-1.13,1.26l-.63,1.04c-.51,.58-.63,1.08-1.34,1.64h0s0,0,0,0c-.04,.03-.09,.07-.14,.1,0,0,.02,0,.03,.01-1.2,1.27,.27,.19-1.11,1.63-.6,.34-.05,.85-.7,1.56l-1.01,.45c-1.29,1.22-1.04,1.78-2.53,3.82-.87,.87-1.58,1.08-1.44,.19-.25,1.19-.04,.6-.7,1.93-.3,.07-.24-.09-.2-.46-.95,.92-.32,.76-.9,1.55,.15,.45,.45,1.07,.29,1.35l.32-.24c-.43,.96-1,1.94-1.85,2.82l-.13-.15-.65,1.11-.25-.07-.98,1.55,.2-.17c-.22,.37-.95,1.58-1.51,2.17l-.1-.1c-1.64,1.63-2.23,3.49-3.69,5.71l-.03-.44c-.74,.59,.21,.45-.51,1.26l-.31-.15c-.25,1.16-.57,.67-.79,.68,.11,.1,.23,.2,.35,.28-.1,.09-.19,.16-.28,.23-.15,.09-.24-.04-.3-.22-.05-.16-.11-.38-.16-.54,.04,.16,.05,.34,.06,.54-.05-.17-.09-.34-.12-.52,.04,.34,.01,.35,0,.3-.03-.04-.04-.15-.08,.12,0-.26,0-.43,0-.52-.02,.36-.1,.8-.24,1.32,.07-.25,.13-.47,.17-.67l-.11,1.18c-.14,.59-.24,.7-.28,.67-.05-.02-.06-.16-.18,.15l.19-.57c-.3,.66-.18,.05-.16-.2-.06,.28-.11,.64-.28,.99-.1,.19,.13-.54,.13-.67-.18,.59-.37,1.1-.54,1.44-.08,.17-.16,.29-.22,.34-.03,.02-.06,.03-.08,0-.03-.03-.03-.14-.02-.23,.07-.18,.15-.35,.21-.45-.12,.16-.29,.44-.23,.04,.21-.43,.43-.86,.63-1.3-.21,.38-.43,.74-.66,1.07l-.02,.03c.06-.25-.04-.19-.1-.19-.06,0-.08-.04,.15-.42l.15-.16c-.01-.43,.07-.83,.17-1.18l.53-.6c-.36,.38-.27,.18-.21,.06,.06-.12,.1-.2-.32,.15,.25-.28,.21-.35,.23-.47,.02-.12,.09-.22,.49-.36,.08-.17-.06-.23-.07-.5v-.06s0-.02,.02-.1c.04-.13,.08-.26,.12-.39,.08-.26,.17-.53,.28-.82,.21-.56,.49-1.17,.87-1.86,.94-.79,2.04-3.63,2.98-5.42,1.52-3.65,2.51-6.03,4.25-9.73,1.84-1.81,2.64-5.55,4.26-7.76l.06-.8c.63-.7,1.11-1.73,1.61-2.97,.13-.31,.25-.64,.38-1,.13-.37,.26-.73,.4-1.29,.03-.14,.07-.31,.09-.5,.01-.11,.03-.21,.03-.34v-.22c0-.07,0-.14,0-.25,0-.1-.02-.2-.03-.3,0-.04-.02-.11-.03-.19-.02-.07-.03-.14-.05-.21s-.04-.14-.06-.21c-.02-.06-.07-.18-.11-.27-.04-.1-.09-.19-.15-.28-.06-.1-.1-.17-.19-.29-.16-.22-.36-.42-.57-.59-.22-.18-.47-.33-.73-.44-.23-.1-.45-.16-.69-.21l-.17-.03h-.13c-.08-.02-.17-.03-.25-.03-.17,0-.35,0-.44,.02-.11,.01-.23,.03-.34,.05-.2,.04-.32,.07-.48,.12-.12,.04-.22,.08-.34,.12l-.26,.11c-.32,.14-.55,.26-.76,.36-.19,.17-.26,.27-.36,.37-.09,.1-.17,.18-.24,.25-.13,.14-.23,.23-.29,.28,.11-.06,.29-.13,.46,0-.35,.18-.81,.55-1.2,.82-.38,.28-.67,.48-.77,.29l.12-.16c-.17-.37-1.64,1.67-2.43,2.04l.62-.02-1.06,.95,.21-.33c-1.8,2.53-3.27,4.12-4.68,5.72-.35,.4-.7,.8-1.06,1.21-.34,.42-.67,.85-1.01,1.3-.68,.91-1.32,1.95-1.95,3.2,.05-.87-.44,1.03-.88,.81-1.31,.8-1.36,2.22-1.83,3.28,.02,.01,.04,.04,.03,.12l-1.14,1.64c.1-1.35-.32,1.5-.19,.28-1.6,2.07-3.17,4.63-4.71,7.32-1.53,2.69-3.05,5.51-4.58,8.09l.27-.15c-.76,1.32-1.48,3.08-2.25,3.98-.77,.9-.81,2.43-.99,2.84-.3,1.12-1.15,1.85-1.13,1.65-.51,1.21-.6,2.57-1.63,4.09-.78,.33-1.8,4.81-2.36,4.6l.04,.04c-1.44,1.97-1.76,4.33-3.21,6.5,0,0-.02-.06-.02-.16-.18,1.85-.36,3.7-.5,5.55l2.47-.52c1.12-1.14,2.26-2.27,3.4-3.39,1.62-3.73,3.3-7.44,5.03-11.13,1.66-2.8,3.35-5.58,5.07-8.34,3.66-6.98,7.52-13.85,11.77-20.4,.17-.56,.37-1.09,.55-1.64,.79-.83,1.55-1.76,2.31-2.75-2.16,4.22-4.25,8.36-6.17,12.41-.35,.49-.84,1.6-1.29,2.69-.09,.23-.18,.45-.27,.67-.09,.24-.19,.48-.28,.71-.18,.48-.36,.94-.52,1.36-.31,.85-.57,1.55-.77,1.97-.32,1.54-.58,3-.68,4.3-.11,1.31-.1,2.46,.02,3.47,.12,1.01,.33,1.89,.64,2.7,.31,.81,.71,1.56,1.32,2.26,.26,.3,.58,.57,.94,.79l-.16-.04c.15,.08,.3,.16,.46,.22,.19,.07,.29,.06,.39,.07,.2,0,.37-.02,.55-.06,.03,.03,.02,.09-.03,.13,.65-.3,1.4-.47,2.54-1.1,.28-.15,.6-.39,.92-.66,.33-.3,.68-.64,1.04-1.05,.71-.8,1.44-1.72,2.13-2.62l-.15,.28c1-1.38,2-2.82,2.98-4.25,.77-1.13,1.54-2.26,2.3-3.38,1.01-1.51,2.01-3,3-4.49,1.98-2.98,3.93-5.92,5.92-8.82,1.56-2.28,3.15-4.54,4.79-6.76-.06,.13-.13,.26-.19,.4-1.86,3.88-3.62,7.83-3.83,8.51l1.23-1.45c-2.34,5.42-3.94,7.72-5.62,12.54l.02-.3c-.2,.32-.09,.68-.49,1.84-.38,1.17-1.3,3.09-3.35,6.77l-.05-.02c-.09,.28,0,.31-.32,.81l.77-1.26c-.18,.85-.22,1.64-.56,2.74-.13,.22-.25,.27-.33,.26-.27,.91-.53,1.83-.77,2.77-.18,.26-.36,.52-.53,.78-.03,.46,.14,.63,.2,.96,.07,.34,.01,.82-.39,2.01,.31-.42,.32-.11,.29,.28-.02,.39-.07,.86,.06,.72-.07,.12-.19,.39-.29,.63-.05,.77-.08,1.91,.19,3.12,.13,.6,.36,1.23,.68,1.75,.31,.53,.72,.92,.97,1.09,0,0-.1-.13-.26-.36-.15-.23-.34-.57-.47-.97-.29-.81-.32-1.77-.21-2.64,.23-1.76,.93-3.34,1.3-4-.47,1.87-.04,.5,.18,.17l-.09-.15c.35-1.09,.64-1.02,.85-1.55-.02,0-.05,0-.09,.01l.02,.08c-.06,.04-.09,0-.1-.07-.06,0-.1-.06,0-.36v.06c.09-.47,.36-1.24,.48-1.57l.23,.06c-.1-.46,.48-1.76,1.17-3.03,.69-1.28,1.48-2.54,1.69-3.05,.68-.93,.85-2.35,1.52-3.59,.93-2.02,.75-.89,1.38-1.83,.69-1.22-.37,.15-.16-.37Zm18.77-37.1h0s0,0,0,0Z"/><path class="cls-1" d="M19.3,114.2s.03-.07,.04-.1c-.03,.05-.04,.08-.04,.1Z"/><path class="cls-1" d="M74.51,76.5v.19c0-.08,0-.14,0-.19Z"/><path class="cls-1" d="M49.13,118.31l.02-.06c-.16-.05-.13,.06-.02,.06Z"/><path class="cls-1" d="M66.51,90.15s-.03,.06-.05,.09l.38-.24-.33,.15Z"/><path class="cls-1" d="M58.09,108.23c-.14,.3-.25,.58-.29,.79,.42-.83,.4-.89,.29-.79Z"/><path class="cls-1" d="M47.52,126.41c-.07,.58,.05,.36,.19,.04,.04-.58,.09-.97,.09-.97-.08,.3-.21,.6-.28,.93Z"/><path class="cls-1" d="M50.08,124.61l.1,.18c.02-.29-.03-.29-.1-.18Z"/><path class="cls-1" d="M64.6,119.21s0,0,0,.01c.05,.04,.09,.07,.12,.1l-.11-.11Z"/><path class="cls-1" d="M63.31,120.92s-.01,0-.02,0c.03,.01,.07,.03,.02,0Z"/><path class="cls-1" d="M67.27,115.14s0,.03,0,.04c.01,0,.01-.02,0-.04Z"/><path class="cls-1" d="M66.33,120.57s0,0,0-.01c-.01,0-.03,0-.04,0h.04Z"/><path class="cls-1" d="M66.26,120.48c.06-.03,.07,.05,.07,.08,.1-.02,.13-.07,.12-.14-.08-.04-.12,.07-.19,.07Z"/><path class="cls-1" d="M64.21,111.84s.02-.03,.02-.05c-.02,.01-.02,.03-.02,.05Z"/><path class="cls-1" d="M67.8,128.95l-.11,.1c.05-.03,.09-.07,.11-.1Z"/><path class="cls-1" d="M62.76,122.16s-.09,0-.12,0h0s.12,0,.12,0Z"/><path class="cls-1" d="M62.03,123.32h0s-.21,.16-.21,.16h0s.07,.07,.11,.1c.02-.02,.04-.03,.06-.05,.05-.08,.05-.14,.04-.21Z"/><path class="cls-1" d="M72.53,117.66l.1-.22,.17-.34c.36-.7,.54-1.47,.5-2.23-.02-.38-.08-.76-.17-1.12l-.07-.27-.08-.25-.13-.38c-.08-.21-.16-.42-.24-.63l-.03-.08-.06-.13c-.04-.09-.08-.17-.13-.26-.11-.18-.22-.35-.36-.5-.28-.32-.61-.55-.92-.71-.62-.31-1.07-.36-1.44-.41-.36-.04-.64-.06-.88-.08-.07-.05-.16-.07-.25-.08-.05,0-.07-.01-.16-.01-.08,0-.16,0-.25,0-.33,.01-.65,.06-.81-.01-1.05,.61-1.99,1.15-2.77,1.7v-.05c-.1,.11-.2,.21-.3,.32-.03,0-.05-.03-.06-.06-.1,.26-.32,.46-.57,.64-.23,.17-.51,.31-.72,.46v-.04c-1.07,1.08-1.88,2.33-2.57,3.62-.34,.65-.67,1.3-.98,1.96-.32,.68-.65,1.36-.99,2.08-.26,.46-.48,.97-.63,1.53-.17,.55-.26,1.12-.29,1.66-.05,1.09,.15,2.01,.39,2.96,.05,.19,.1,.38,.16,.58-.02,.14,.11,.47,.37,.85,.26,.37,.68,.79,1.2,1.09,.51,.31,1.1,.48,1.56,.53,.46,.06,.79,0,.89-.04-.13-.12-.26-.25-.38-.38,.38-.02,.68-.05,.95-.1,.27-.04,.51-.09,.75-.15,.48-.13,.97-.35,1.5-.93l-.04,.13c.09-.02,.12-.25,.36-.54,.12-.14,.29-.3,.57-.47,.15-.1,.34-.2,.57-.33,.09,.11,.2,.21,.31,.31,.15,.15,.3,.3,.34,.57-.13,.18,.14,.44,.42,.63,.14,.09,.28,.17,.37,.25,.09,.07,.13,.15,.06,.24l.03-.03c.15,.34,.47,.46,.79,.55,.33,.08,.65,.12,.96,.32,0,0-.02,.03-.05,.06,.6-.35,1.06-.82,1.36-1.3-.13-.51-.22-1.01-.26-1.52-.15-.41-.17-.84-.07-1.25-.11,.07-.28,.08-.42-.01,.04-.1,.11-.16,.18-.24,.03-.08,.05-.13,.09-.24,.03-.1,.06-.18,.1-.25-.03-.19-.03-.56-.06-1.08-.02-.26-.05-.56-.12-.88,0-.03-.02-.1-.02-.11h0s0-.01,0-.01h-.02s-.03-.06-.03-.09c-.08,.13,.2-.48,.3-.75l-.19-.42c.9-.52,.71-1.78,1.49-2.37l-.26-.15c.09-.23,.25-.13,.32-.16,.14-.3,.28-.6,.41-.9l.21-.45Zm-3.74-2.56s-.09,0-.11,.01c-.03,0-.05,.01-.08,.07-.06,.08-.1,.19-.15,.29-.09,.21-.19,.43-.45,.55,.04,.15,.04,.22,.03,.25,.02-.01,.07-.02,.21,.04-.15,.07-.16,.37-.42,.22v-.04c-.27-.15-.07,.43-.37,.44l.32,.07-.16,.2-.02-.09c.15,1.29-.96,1.3-.8,2.48-.26-.27,.08,.26-.27,.11-.54,.03-.1,.47-.07,.71,.02,0,.04,.02,.06,.04l-.19,.3c-.09-.08-.12-.12-.11-.1,0,.02,.04,.07,.08,.1,.08,.08,.16,.18,.01,.03-.05,0-.21,.24-.31,.4-.11,.18-.22,.37-.3,.57-.16,.4-.26,.87-.17,1.31,.04,.22,.1,.45,.18,.67,.02,.05,.05,.13,.06,.16,0,.01,0,.03,.01,.04,0,.03,.01,.06,.02,.09-.08,.09-.24,.16-.4,.21-.26,.08-.51,.06-.56,.12-.22-.09-.2,.35-.39,.39-.24,.17-.2-.19-.35-.28-.15-.02,.09,.24,.04,.3-.08-.05-.15-.11-.22-.18,.08-.11,0-.2-.02-.28-.13,.08-.31-.28-.33,.27-.17-.14-.14-.38-.2-.37,.01,.09,.05,.16,.04,.27-.05-.21-.03,.08,0,.12-.06,.16-.18-.01-.25-.19-.08-.17-.12-.35-.22,0l.03-.12c-.16,.51-.24,.99-.42,1.27v-.22s-.17,.21-.17,.21c-.01-.17,.07-.3,.09-.36-.24,.22-.35-.14-.44-.31-.19,.47-.34,.94-.47,1.43-.03-.21-.03-.51-.03-.72-.01-.21-.03-.33-.17-.15,.06-.16,.14-.33,.21-.48,.17-.51,.11-.46-.02-.36-.12,.1-.29,.28-.23,.12,.09-.18,.18-.35,.28-.52,.01,.05,.03,.1,.04,.15,.11-.33,.21-.49,.41-.79h0s-.03,.05-.05,.07h-.01c-.17,.14-.31,.17-.31,.06h0c.02-.16-.22-.14,.16-.56-.12,.05-.23,.1-.35,.14,.08-.1,.16-.19,.23-.28l.28-.12c-.04,.15,.05,.34,.08,.49l.13-.1c-.01-.08-.14-.1-.11-.19,.06-.07,.36-.3,.55-.37-.09,.04-.18,.08-.27,.11,0-.23,0-.29,.36-.55l-.13,.03c-.06-.04-.12-.09,.09-.11,.04-.07,.11-.12,.21-.17,.05-.02,.1-.03,.16-.03,.03,.01,.08-.04,.12-.06,.04-.02,.09-.05,.14-.06l-.24-.15c.05-.08,.49-.05,.13-.23l-.05-.22c.06-.1-.06-.23,.14-.3h0s0,0,0,0c.01,0,.03,0,.04-.01,0,0-.02,0-.02,0,.22-.2-.23-.1,.04-.32,.22,0-.28-.25-.16-.36l.43,.03c.33-.14-.02-.36,.17-.72,.21-.1,.56,0,.77,.24-.24-.33-.17-.18-.21-.47,.15,.05,.16,.08,.26,.19,.25-.08-.06-.18,.03-.3-.22-.18-.58-.47-.57-.52h-.11c-.04-.22,0-.42,.22-.5l.12,.09,.05-.21,.16,.09c.04-.09,.08-.18,.12-.27h-.06c.02-.07,.1-.29,.26-.34l.08,.06c.47-.1,.33-.59,.58-.95l.12,.18c.25,.02-.22-.24-.02-.3l.2,.16c-.15-.34,.19-.1,.35-.09l-.28-.19c.06-.03,.12-.07,.19-.1,.23-.09,.4,.19,.51,.33l-.09-.29,.24,.18c-.18-.31,.11-.04,.11-.3,.09,.07,.1,.15,.18,.13l-.08-.51v.26s-.29-.32-.29-.32c-.09-.38,.22-.16,.23-.33l.02,.15c.08-.22,.21-.09,.36-.09-.08-.04-.2-.09-.18-.19,.03-.06,.12,.09,.2,.1-.18-.23-.17-.44,.01-.41,.02,.03,.05,.07,.06,.09,0-.05-.04-.12,.05-.1l.17,.27-.1-.3c.1,.04,.05-.21,.16-.03v.07c.15-.07,.29-.12,.41-.15l.12,.23c-.12-.34,.22,.05,.04-.35,.14,.2,.2-.25,.31,.24,.09,0,.14-.11,.21-.2,0,0,0,0,0,0,.08,.06,.16,.18-.02,.16,.07,.04,.13,.08,.2,.13h-.02Zm1.19-1.92s0,0,0,0h0Z"/><polygon class="cls-1" points="61.99 124.85 62 124.86 62.12 124.56 61.99 124.85"/><path class="cls-1" d="M63.88,124.3s.05-.05,.05-.11c-.08,.01-.07,.06-.05,.11Z"/><path class="cls-1" d="M83.18,122.59s0,.01,0,.02c.06,0,.12,0,.16,0l-.17-.02Z"/><path class="cls-1" d="M82.97,126.33s-.01,.01-.02,.02c.04,0,.07,.02,.02-.02Z"/><path class="cls-1" d="M75.91,119.71s-.02-.03-.04-.04c0,.03,.02,.04,.04,.04Z"/><path class="cls-1" d="M83.8,115.49l-.04-.14c0,.06,.02,.1,.04,.14Z"/><path class="cls-1" d="M80.9,129.23s-.06-.06-.08-.08c0,0,0,0,0,0l.09,.07Z"/><path class="cls-1" d="M74.01,121.89l.08,.08s0-.04-.03-.06c-.02,0-.04-.01-.05-.02Z"/><path class="cls-1" d="M76.48,129.57s-.02,.03-.02,.05c.06,.06,.24,.11,.47,.13l.04-.18c-.16,.01-.32,0-.49,0Z"/><path class="cls-1" d="M84.79,114.77s0-.01,0-.02c0,0,0,0,0,.02Z"/><path class="cls-1" d="M89.63,115.75c.11-.27,.21-.53,.29-.81,.04-.15,.08-.3,.11-.45,.03-.16,.06-.32,.08-.49,.08-.67,.06-1.5-.29-2.36-.16-.42-.42-.84-.73-1.19-.31-.34-.67-.64-1.02-.84-.27-.03-.51-.02-.74,0-.16-.16-.34-.27-.53-.37-.18-.08-.39-.17-.58-.2-.41-.1-.73-.08-1.1-.07-.69,.06-1.33,.2-1.94,.12l.04,.3c-.31,.09-.33-.1-.42-.12-1.45,.42-2.7,1.17-3.82,2.06-1.11,.91-2.13,1.94-2.98,3.35-.16,.1-.3,.42-.42,.74-.11,.31-.19,.63-.31,.74,.18,1.18,.32,2.21,.56,3.14l-.04-.03c.06,.14,.13,.27,.19,.41-.02,.03-.05,.04-.08,.03,.21,.2,.32,.47,.4,.76,.08,.29,.14,.61,.22,.87h-.04c.36,.68,.77,1.26,1.17,1.78l.15,.19,.11,.13c.07,.08,.13,.17,.19,.25,.12,.16,.21,.31,.28,.45,.3,.55,.21,1.11-.14,1.21-.13-.02-.2-.02-.26,0-.05,.03-.12,.09-.13,.12-.04,.09-.33,.18-.56-.07-.02-.15-.29-.24-.55-.36-.31-.16-.3-.09-.41-.09-.09,.08-.17,.16-.25,.27-.15-.05-.19-.24-.2-.4-.03-.16-.03-.33-.21-.55l.08,.02s-.14-.05-.22-.18c-.08-.11-.03-.41,.53-.7h.04s-.07-.04,.03-.07c-.08,.03-.16,.06-.24,.09-.07-.1-.23-.22-.22-.34,.05-.01,.12,0,.18,.01,0-.1,.01-.19,.03-.29h.25c-.09-.11-.55-.28-.2-.38-.34-.07-.13-.21-.29-.26,.04,0,.11,.02,.18,.03,.03-.15,.12-.42,.03-.59,0,0-.23,0-.53,.04-.29,.04-.65,.12-.86,.15,.21-.22,0-.09-.13-.09l.07,.06c-.15,.13-.36,.04-.44,.1,.02,0,.04,.01,.06,.02l-.02-.02s.06,.02,.08,.04c.04,.02,.07,.04,.04,.08l-.02-.02c0,.08-.08,.2-.11,.25l-.17-.06c.13,.12-.05,.3-.29,.51-.22,.2-.49,.44-.51,.55-.26,.19,0,.48-.11,.74-.05,.43-.26,.22-.4,.46-.1,.3,.21-.07,.22,.04-.08,.12-.14,.24-.21,.37-.05-.2-.14-.08-.21-.03,0,.3-.2,.89,.17,.9-.03,.47-.17,.53-.1,.72,.03-.09,.04-.23,.11-.26-.08,.23,.07,.07,.07-.01,.13,.1,.09,.49,.17,.86,.05,.38,.21,.72,.37,.63l-.06,.04c.27-.13,.43-.39,.67-.35v.18s.21,.05,.21,.05c.02,.16-.07,.17-.1,.2,.32,.11,.53,.49,.82,.71,.03-.3,.08-.58,.15-.86,.09,.3,.37,.88,.54,.68,.01,.1,.02,.21,.04,.31,.16,.36,.3,.34,.38,.27,.09-.07,.15-.21,.23-.1,.06,.12,.13,.25,.2,.37-.1-.03-.19-.06-.29-.09,.24,.24,.34,.35,.56,.6,0,0,0,0,0,0-.02-.02-.02-.03-.02-.05h.05c.07-.14,.25-.2,.46-.16,.16,.04,.3,.01,.47,0,.17,0,.35,.02,.63,.16,.04-.1,.07-.21,.1-.31,.13,.04,.27,.09,.42,.12l.05,.23c-.41,.08-1.17,.21-1.68,.15l-.02,.11c.31,.04,.66-.06,.87-.04,.1,.04,.39,.28,.2,.45,.07-.08,.13-.16,.19-.25,.55-.07,.83-.17,1.12-.24,.29-.07,.62-.12,1.2-.32l-.15-.05c.17-.19,.32-.37,.48-.26,.62-.4,1.23-.9,1.76-1.2-.06-.08-.12-.16-.18-.24,.09-.13,.59-.16,.27-.41l.03-.36c.09-.2,0-.37,.21-.56h0s0,0,0,0c.01-.01,.03-.02,.04-.04,0,0-.02,0-.02,0,.24-.44-.23-.05,.03-.55,.23-.14-.32-.24-.23-.48,.14-.07,.28-.15,.42-.23,.13-.23,.08-.38,0-.54-.08-.16-.19-.34-.24-.66,.09-.32,.39-.56,.74-.4-.43-.23-.26-.1-.53-.43,.13-.1,.17-.07,.33-.02,.07-.4-.19-.18-.26-.43-.3,.02-.75,.1-.8,.03l-.05,.11c-.23-.18-.39-.38-.37-.68l.13-.05c-.06-.08-.13-.15-.19-.22l.15-.1c-.08-.11-.16-.22-.25-.33l-.02,.07c-.07-.07-.28-.29-.29-.48l.09-.05c0-.29-.1-.39-.26-.51-.16-.11-.35-.2-.48-.37l.21-.07c.1-.23-.29,.14-.3-.06l.21-.14c-.36,.05-.04-.2,.02-.35l-.26,.21-.03-.2c0-.23,.31-.31,.48-.38l-.29,.02,.25-.16c-.35,.08,0-.11-.23-.16,.09-.06,.17-.06,.19-.13-.16-.01-.32-.02-.49-.04l.23,.06-.4,.17c-.37-.01-.05-.22-.21-.28l.15,.02c-.17-.13,0-.22,.05-.33-.07,.05-.16,.14-.24,.1-.04-.04,.13-.08,.16-.14-.27,.09-.46,.02-.36-.12,.04-.01,.08-.02,.11-.02-.05-.01-.13,0-.07-.07l.32-.06h-.32c.07-.08-.18-.11,.04-.15l.07,.02c0-.14,0-.27,.02-.4l.26-.03c-.36-.01,.13-.17-.31-.16,.24-.06-.16-.26,.34-.17,.03-.08-.07-.16-.13-.25-.06-.09-.1-.18,.07-.25,.22,.05,.3,.02,.38-.06,.08-.07,.11-.18,.2-.24,.1-.42,.22-.77,.56-1.2,.3,.13,.43,0,.55-.2,.13-.17,.25-.39,.49-.33l-.02-.25c.19,.11,.31,.02,.45-.06,.14-.09,.29-.18,.51-.06,.04-.12,.07-.17,.08-.18-.02,0-.05-.04-.11-.18,.12,.06,.26-.12,.34,.17v.04c.06,.29,.21-.22,.37,.01l-.13-.3,.18,.02-.03,.07c.14-.21,.29-.32,.42-.34,.14-.04,.27,0,.38,.03,.12,.03,.22,.08,.33,.08,.05,0,.12-.02,.16-.04,.01,0,.03-.02,.04-.04,0,.06-.02,.12-.05,.2-.05,.14-.12,.26-.22,.34l.12,.05c-.09,.1-.08,.33-.3,.27-.2-.07,.05,.39,.01,.44,.02,.23-.25,.05-.28-.01-.06,.14,0,.57-.29,.51-.12-.16-.22,0-.34,.14-.1,.14-.29,.29-.36,.08v.04c-.48-.17-.67,.47-1.18,.33,0,0,0-.03,0-.07l-.41,1.6,.73,1.37,1.16,.92,.99-.48,.58-.28c.22-.12,.44-.24,.65-.38,.79-.23,1.64-.64,2.39-1.29,.37-.46,.68-.98,.91-1.52Zm-4.12-2.49s0,0,0,0h0s0,0,0,0Z"/><path class="cls-1" d="M75.86,123.1h0c.12,.04,.08,.02,0,0Z"/><polygon class="cls-1" points="74.66 128.48 74.64 128.46 74.62 128.66 74.66 128.48"/><path class="cls-1" d="M72.3,124.79c0-.07-.02-.14-.06-.18-.01,.21,.02,.21,.06,.18Z"/><path class="cls-1" d="M75.95,122.28s-.04-.06-.13-.08c-.02,.05-.03,.09-.03,.09,.04-.01,.12,0,.16-.01Z"/><path class="cls-1" d="M74.33,121.71l-.08-.07c0,.05,.04,.07,.08,.07Z"/><path class="cls-1" d="M143.06,122.4s0,.01,0,.02c.06,0,.11-.01,.16-.01h-.17Z"/><path class="cls-1" d="M143.03,126.24s-.01,.01-.02,.02c.04,0,.07,.02,.02-.02Z"/><path class="cls-1" d="M143.64,115.59l-.04-.14c.01,.06,.03,.1,.04,.14Z"/><path class="cls-1" d="M140.91,129.12s-.06-.06-.08-.08c0,0,0,0,0,0l.09,.07Z"/><path class="cls-1" d="M134.03,121.88l.08,.08s0-.05-.02-.06c-.02,0-.03-.01-.05-.02Z"/><path class="cls-1" d="M136.48,129.62s-.02,.03-.03,.05c.06,.06,.26,.12,.52,.14l.03-.18c-.18,0-.36,0-.53,0Z"/><path class="cls-1" d="M150.16,112.83c-.02-.26-.06-.51-.13-.76-.27-1.03-.99-1.85-1.66-2.29-.26-.05-.5-.05-.74-.04-.3-.32-.7-.53-1.1-.64-.4-.11-.82-.14-1.21-.12-.67,.04-1.27,.17-1.9,.07l.03,.3c-.31,.08-.33-.1-.42-.13-1.51,.39-2.81,1.2-3.88,2.04-.53,.41-1.07,.88-1.59,1.39-.52,.52-1.03,1.13-1.48,1.83-.34,.19-.56,1.21-.78,1.44,.13,1.22,.26,2.3,.48,3.22l-.04-.03c.06,.14,.12,.27,.18,.4-.02,.02-.05,.04-.08,.03,.39,.39,.44,1.12,.59,1.66h-.04c.18,.33,.36,.67,.57,.99,.2,.31,.4,.58,.58,.82,.36,.48,.63,.85,.81,1.17,.18,.3,.27,.67,.25,.78-.01,.11-.1,.21-.24,.21-.06-.02-.12-.01-.18,0-.05,0-.14,.07-.2,.1-.13,.08-.22,.16-.29,.23-.14,.12-.22,.19-.3-.03,0-.07-.02-.12-.08-.17-.05-.04-.11-.08-.19-.1-.07-.03-.12-.07-.19-.1-.26-.12-.46-.27-.55-.27-.07,.1-.15,.2-.21,.32-.1-.07-.18-.14-.21-.23-.05-.08-.06-.17-.07-.25-.02-.08-.02-.16-.06-.23-.04-.07-.07-.16-.16-.26h.08s-.16-.02-.22-.13c-.07-.09-.04-.36,.53-.59h.04s-.07-.03,.03-.05c-.08,.02-.16,.04-.24,.06-.07-.09-.23-.2-.21-.32,.05-.01,.12,0,.17,.02,0-.09,0-.18,.04-.27l.25,.02c-.07-.12-.55-.32-.18-.4-.35-.09-.11-.21-.27-.28,.04,.01,.11,.02,.17,.03,.04-.16,.17-.45,.07-.63,0,0-.25,.02-.55,.05-.31,.03-.65,.11-.88,.12,.23-.21,0-.09-.13-.09l.06,.06c-.16,.12-.35,.03-.44,.09,.02,0,.04,.01,.06,.02l-.02-.02s.06,.02,.07,.04c.04,.02,.07,.04,.04,.08l-.02-.02c0,.08-.09,.19-.13,.24l-.17-.07c.13,.13-.06,.3-.31,.5-.23,.2-.5,.44-.53,.54-.24,.19-.01,.49-.11,.76-.05,.44-.26,.23-.4,.48-.07,.31,.2-.08,.23,.04-.07,.12-.13,.25-.2,.38-.05-.2-.14-.08-.21-.03,0,.08,0,.18-.02,.28,0,.1-.01,.2,0,.3,0,.19,.06,.35,.24,.33,0,.47-.12,.54-.06,.73,.03-.09,.04-.24,.1-.26-.07,.23,.07,.06,.07-.02,.11,.1,.13,.47,.19,.84,.07,.36,.2,.68,.37,.58l-.06,.05c.27-.14,.43-.39,.66-.36l-.02,.17,.22,.04c.01,.15-.08,.17-.11,.19,.15,.06,.27,.19,.4,.32,.13,.13,.24,.31,.38,.42,.04-.28,.11-.58,.19-.86,.04,.16,.11,.38,.21,.54,.1,.16,.21,.26,.29,.16,0,.11,.01,.21,.02,.31,.31,.71,.45-.03,.6,.2,.06,.12,.12,.25,.2,.38-.1-.03-.2-.07-.3-.11,.25,.25,.35,.38,.59,.63,0,0,0,0,0,0-.02-.02-.03-.03-.03-.05h.05c.08-.13,.26-.19,.5-.15,.35,.07,.6-.12,1.19,.1,.03-.11,.06-.21,.08-.32,.14,.03,.29,.06,.44,.08l.07,.23c-.2,.05-.5,.15-.83,.2-.33,.06-.68,.08-.96,.05l-.02,.11c.34,.04,.73-.08,.95-.08,.11,.04,.44,.24,.25,.43,.07-.09,.13-.17,.18-.27,.57-.13,.83-.25,1.1-.33,.27-.09,.56-.15,1.1-.35l-.15-.05c.15-.18,.27-.35,.43-.24,.5-.32,1.16-.77,1.72-1.08l-.17-.25c.1-.13,.61-.16,.3-.42,.02-.13,.04-.26,.04-.38,.11-.21,0-.39,.23-.6h0s0,0,0,0c.01-.01,.03-.03,.04-.04,0,0-.02,0-.02,0,.24-.49-.23-.05,.03-.6,.23-.17-.33-.25-.25-.51,.14-.08,.27-.18,.41-.28,.21-.52-.19-.59-.32-1.21,.07-.32,.36-.57,.71-.44-.43-.19-.27-.07-.55-.38,.13-.1,.17-.08,.32-.04,.06-.38-.2-.16-.28-.39-.29,.04-.75,.14-.79,.08l-.05,.11c-.23-.16-.4-.34-.38-.64l.13-.06-.19-.21,.15-.1-.24-.3-.02,.07c-.07-.06-.26-.27-.26-.45l.09-.05c.04-.53-.5-.58-.74-.92l.21-.06c.1-.23-.29,.14-.29-.06l.22-.14c-.36,.05-.03-.19,.04-.34l-.27,.21-.03-.19c0-.23,.32-.31,.48-.37h-.3s.25-.15,.25-.15c-.35,.08,.01-.1-.22-.16,.1-.06,.17-.05,.19-.12l-.49-.05,.23,.06-.4,.16c-.38-.02-.04-.22-.2-.28l.15,.02c-.17-.13,0-.21,.06-.33-.07,.05-.17,.14-.24,.09-.04-.04,.14-.08,.17-.14-.28,.09-.46,0-.37-.14,.04,0,.08-.02,.11-.02-.05-.01-.13,0-.07-.07l.32-.06h-.32c.07-.08-.18-.12,.04-.16l.07,.02c-.01-.08,0-.14,0-.2,0-.06,0-.13,.02-.18l.26-.02c-.35-.02,.12-.16-.31-.15,.25-.04-.16-.24,.34-.14,.04-.07-.07-.15-.12-.24-.03-.05-.06-.1-.05-.14,.01-.05,.05-.09,.13-.12,.2,.06,.32,.03,.37-.03,.08-.06,.12-.17,.2-.23,.12-.42,.28-.76,.65-1.22,.32,.13,.46-.03,.59-.21,.13-.18,.27-.39,.5-.33l-.02-.25c.37,.22,.51-.34,.94-.11,.04-.12,.07-.16,.08-.18-.02,0-.05-.04-.11-.18,.12,.07,.26-.11,.33,.18v.04c.05,.29,.21-.2,.36,.03l-.12-.3c.06,0,.12,0,.17,.02l-.03,.07c.29-.42,.59-.37,.85-.29,.15,.04,.22,.08,.3,.08,.02,0,.04,0,.06-.01-.04,.23-.1,.43-.26,.53l.11,.05c-.08,.08-.07,.29-.28,.21-.1-.04-.09,.04-.06,.16,.02,.11,.06,.25,.05,.27-.02,.27-.4,.01-.32-.02-.13,.15-.07,.63-.41,.59-.13-.16-.25,0-.37,.16-.12,.16-.24,.29-.33,.08v.04c-.2-.09-.33,.01-.47,.11-.14,.1-.29,.21-.5,.1,0,0,0-.03,0-.07l-.05,.16c0,.11-.04,.22-.13,.34-.11,.13-.17,.24-.22,.38-.12,.27-.09,.61,0,.94l.25,.58,.26,.61c.07,.09,.15,.21,.22,.35-.03,.15,.08,.28,.29,.4l.38,.3c.93-.3,1.78-.73,2.53-1.23,.35-.1,.7-.21,1.04-.34,.39-.16,.86-.42,1.27-.73,.88-.93,1.39-2.19,1.55-3.25,.05-.27,.07-.53,.09-.78v-.1s.01-.19,.01-.19c0-.12,0-.25,0-.37Z"/><path class="cls-1" d="M135.83,123.16h0c.12,.04,.08,.02,0,0Z"/><polygon class="cls-1" points="134.66 128.43 134.65 128.41 134.62 128.6 134.66 128.43"/><path class="cls-1" d="M132.28,124.8c0-.08-.02-.14-.07-.18,0,.21,.02,.22,.07,.18Z"/><path class="cls-1" d="M135.96,122.35s-.04-.07-.12-.08c-.02,.06-.03,.1-.03,.1,.04-.01,.11,0,.16-.02Z"/><path class="cls-1" d="M134.36,121.71l-.08-.07c0,.05,.03,.07,.08,.07Z"/><path class="cls-1" d="M103.01,128.92s.05,0,0,0h0Z"/><path class="cls-1" d="M105.45,112.37s0,0,.01-.01c-.03-.05-.05-.1-.07-.14l.05,.15Z"/><path class="cls-1" d="M108.58,111.11s.02,0,.03,0c-.01-.03-.02-.07-.03,0Z"/><path class="cls-1" d="M101.61,117.52s0-.04,0-.05c-.02,.02-.01,.04,0,.05Z"/><path class="cls-1" d="M108.79,127.85s0,0,0,.01c.01,0,.03,0,.04,.02l-.03-.03Z"/><path class="cls-1" d="M108.78,127.86c-.1-.04-.16-.02-.21,.04,.04,.08,.15,.02,.21,.07-.07-.01-.02-.08,0-.11Z"/><path class="cls-1" d="M114.46,122.94l.1,.11s-.07-.08-.1-.11Z"/><path class="cls-1" d="M113.21,113.46s-.08,.03-.1,.05c0,0,0,.01,0,.02l.1-.07Z"/><path class="cls-1" d="M111.57,117.66s.02,.03,.04,.04c.07-.03,.17-.16,.27-.33l-.15-.1c-.05,.13-.1,.26-.15,.4Z"/><path class="cls-1" d="M113.75,123.64c.39,.19,.37-.99,.71-.7l-.03-.03c.55-.14,.4-.83,.93-1.03,0,0,.02,.03,.03,.06-.16-.55-.34-1.09-.53-1.62l-1.39-.69c-.49-.03-.97-.08-1.45-.14-.34,.58-.7,1.14-1.09,1.68-.48,.27-.96,.5-1.44,.7-.88,.83-1.84,1.52-2.89,2.06l-.09,.42c-.41-.15-.7-.03-.99,.08-.28,.11-.57,.2-.74-.03l-.02,.3c-.12,.01-.08-.18-.1-.23-.07,0-.28-.04-.34-.04-.05,0-.09,0-.15-.01-.1-.02-.21-.08-.26-.19-.05-.12-.08-.16,.02-.53,.01-.05,.07-.24,.12-.39,.05-.15,.09-.3,.14-.44,.09-.28,.18-.54,.29-.77,.12-.08,.19-.26,.25-.42,.34,.04,.76,.14,.87,.09,.29,.11,.39-.27,.67-.3,.39-.17,.31,.12,.58,.14,.29-.04-.16-.15-.07-.22,.14,.02,.27,.03,.41,.04-.15,.12,0,.16,.07,.2,.25-.12,.82-.12,.68-.47,.42-.09,.5,.01,.65-.07-.09-.02-.21,0-.26-.05,.22,.03,.03-.08-.04-.07,.05-.13,.39-.19,.7-.29,.31-.08,.58-.2,.46-.36l.05,.05c-.16-.25-.42-.4-.41-.63l.17,.02,.03-.21c.14-.01,.16,.08,.19,.11,.09-.28,.46-.45,.71-.67-.28-.08-.56-.18-.83-.27,.31-.06,.91-.21,.74-.41l.31,.04c.74-.14,.05-.44,.3-.52l.4-.06-.16,.23c.28-.15,.42-.19,.7-.28,0,0,0,0,0,0-.02,0-.04,0-.05,0v-.04c-.09-.11-.1-.28,.01-.45,.09-.11,.11-.24,.17-.38,.05-.12,.17-.29,.42-.48l-.23-.23c.1-.1,.2-.2,.3-.31l.23,.07c-.06,.19-.15,.47-.26,.77l-.09,.22c-.03,.06-.05,.12-.08,.17-.05,.11-.1,.22-.15,.32l.09,.06c.06-.11,.11-.25,.15-.37,.02-.06,.04-.12,.06-.17,.02-.06,.05-.12,.08-.17,.09-.07,.42-.23,.49,.02l-.13-.28c.19-.52,.23-.78,.32-1.06,.04-.14,.09-.28,.15-.47,.05-.2,.13-.42,.18-.81l-.11,.14c-.08-.29-.19-.58-.03-.74-.03-.14-.05-.28-.11-.46-.03-.09-.05-.16-.09-.25-.04-.1-.09-.19-.13-.28-.04-.09-.12-.2-.19-.3-.08-.1-.14-.19-.24-.3-.1-.1-.2-.2-.31-.28l-.18-.15c-.38-.32-.82-.59-1.19-.81-.07,.08-.14,.17-.21,.25-.22-.05-.58-.48-.68-.08-.15,.05-.3,.1-.43,.16-.27,.02-.38,.21-.67,.12h0s0,0,0,0c-.02,0-.04-.01-.06-.02,0,0,0,.01,0,.02-.5,.03,.07,.24-.47,.25-.22-.13-.03,.39-.24,.41l-.34-.29s-.05,0-.08,0c-.13-.34-.06-.15,0,0h0s0-.02-.01-.03h0s0,0,0,0h0s0,0,0,0c0,0-.02,0-.03,0-.02,0-.03,.02-.04,.02-.01-.02-.01-.02,0,0-.07,.04-.14,.08-.2,.14-.15,.14-.28,.35-.59,.56-.09,.02-.19,.03-.27,.02-.07-.02-.14-.05-.19-.1-.12-.09-.21-.23-.23-.4,.03,.44,.06,.26-.08,.58-.13-.09-.12-.14-.15-.29-.33,.02-.05,.21-.22,.33,.13,.26,.37,.66,.33,.71l.12,.02c-.07,.25-.19,.45-.46,.49l-.09-.11-.14,.23-.13-.13-.23,.29h.07c-.05,.08-.21,.32-.39,.36l-.07-.08c-.55,.1-.52,.67-.84,1.08l-.11-.19c-.28,0,.21,.25-.01,.34l-.2-.16c.13,.36-.21,.14-.4,.16l.3,.17-.21,.14c-.26,.14-.44-.13-.55-.28l.09,.31-.26-.15c.19,.32-.13,.08-.13,.38-.1-.05-.12-.14-.2-.1,.03,.19,.06,.38,.1,.57v-.3s.32,.28,.32,.28c.12,.39-.23,.24-.24,.45l-.03-.17c-.08,.29-.24,.2-.41,.28,.09,0,.24,0,.22,.14-.03,.08-.15-.05-.24,0,.23,.18,.24,.43,.03,.51-.03-.02-.06-.05-.08-.07,.01,.06,.06,.13-.04,.16l-.24-.21,.17,.3c-.13,.04-.01,.29-.19,.17l-.02-.08-.12,.16c-.04,.05-.08,.1-.13,.18-.1,.14-.19,.29-.28,.44l-.24-.1c.27,.24-.36,.46,.06,.6-.3,.09-.09,.72-.52,.46-.19,.47,.03,.84-.09,1.26-.18,.02-.36,.03-.48,.02,.18-.14-.01-.07-.13-.09l.07,.05c-.13,.07-.32-.03-.4-.01,.02,0,.03,.02,.05,.03l-.02-.02s.06,.03,.07,.05c.04,.02,.07,.04,.04,.07l-.02-.02c0,.06-.07,.12-.11,.15l-.16-.09c.25,.26-.76,.26-.83,.34-.26-.02-.09,.26-.27,.32-.18,.17-.28-.05-.48-.04-.17,.06,.19,.09,.17,.15h-.31c.04-.09-.08-.11-.15-.13-.11,.11-.51,.1-.25,.35-.26,.06-.37-.02-.44,.03,.07,.02,.15,0,.21,.05-.17-.03,0,.05,.06,.05,.05,.2-.9,.11-.61,.37l-.06-.04c.21,.2,.47,.34,.54,.51l-.14-.04,.04,.15c-.11-.01-.15-.09-.18-.11,.01,.2-.24,.25-.38,.36l.73,.37c-.24,0-.7-.04-.52,.15l-.26-.11c-.58-.12,.03,.3-.16,.29l-.32-.08,.1-.11c-.21,.01-.32-.01-.54-.05h0s.03,.01,.04,.03v.02c.09,.11,.11,.24,.03,.3-.13,.08-.05,.32-.42,.25l.18,.25c-.08,0-.16,0-.22-.03l-.16-.17s.02-.01,.02-.02c.01-.02,.03-.04,.04-.06,.03-.04,.06-.09,.09-.14,.06-.09,.14-.22,.21-.3l-.08-.08c-.09,.1-.11,.28-.18,.31-.06,0-.3-.11-.37-.27l.12,.21c-.04,.05-.07,.09-.1,.12-.02,.02-.03,.03-.06,.03-.05,0-.12-.02-.23-.1l.07,.1c.01,.08,.02,.17-.08-.01-.08,.02-.21-.09-.29-.42l.06,.31s-.1-.48-.04-.04c0,.05,0,.1,0,.15-.02-.02-.02,.18-.05,0h0s0,0,0,0c0-.01,0-.02,0-.04,0,.01,0,.02,0,.03-.04-.13,0,.3-.05,.13,0-.24-.03,.44-.07,.37,0-.16,0-.33,.01-.49,0-.28-.07,.22-.16,.23,0-.18,.13-.62,.23-1-.13,.46-.08,.3-.17,.52,.06-.19,.08-.23,.13-.4,.07-.22-.06,.17-.07,.16-.13,.36-.37,.92-.39,.94l-.03,.11c-.11,.18-.22,.25-.18,.05l.09-.17-.09,.06,.12-.22s-.06,.02-.09,.03l-.03,.06s-.13,.05-.07-.08l.08-.11c.1-.2,.06-.19-.02-.15-.08,.04-.2,.11-.24,.07l.2-.17c.18-.2-.3,.27-.22,.14l.24-.21c-.33,.25,.05-.1,.17-.2l-.32,.27s.04-.06,.06-.09c.1-.12,.41-.32,.59-.44-.09,.06-.18,.12-.27,.17l.29-.2c-.35,.22,.05-.04-.13,.06,.11-.07,.17-.1,.23-.13-.14,.08-.28,.15-.43,.2,.06-.02,.13-.05,.19-.08l-.44,.24c-.34,.13,.04-.08-.08-.04l.13-.04c-.11,0,.08-.08,.18-.13-.08,.04-.2,.1-.26,.1-.03,0,.16-.07,.2-.09-.3,.11-.45,.12-.31,.04,.04-.01,.08-.02,.11-.03-.05,0-.12,.02-.05-.01l.33-.08c-.1,.02-.21,.04-.31,.06,.09-.04-.15-.01,.07-.05h.07s.06-.08,.09-.12h.26c-.36-.01,.14-.05-.31-.05,.12,0,.08-.02,.07-.04,0-.02,.02-.04,.26,0,0-.01,0-.02,0-.03,0-.03-.02-.05-.03-.08-.03-.05-.07-.11-.1-.16-.07-.11-.11-.22,.04-.34,.43-.02,.36-.31,.45-.49-.08-.4-.16-.69-.17-1.12,.63-.05,0-.65,.41-.8l-.2-.15c.41-.04,.08-.46,.51-.56-.07-.09-.09-.14-.09-.15-.01,0-.06,0-.2-.04,.12-.03,.05-.21,.33-.09l.02,.03c.27,.12-.05-.26,.22-.23l-.31-.08,.1-.11,.04,.06c-.42-.83,.62-.68,.26-1.47,.28,.21-.12-.18,.23-.03,.49,.07,.02-.29-.05-.45-.02,0-.04-.02-.06-.04l.13-.17c.38,.32-.3-.31,.02-.03,.56-.34,.54-1.15,.97-1.66l-.12-.03c.09-.14,.05-.39,.28-.41,.23-.03-.16-.38-.16-.44-.13-.22,.3-.14,.26-.1,0-.08-.07-.2-.12-.31-.05-.11-.07-.2,.06-.25,.39,.13-.09-.73,.34-.57l-.03-.02c.16-.07,.21-.19,.22-.33l.02,.02s0-.02-.01-.02c0-.03,0-.06,0-.09,.28-.09,.57-.13,.88,0l-.14-.24c.05-.02,.39,.25,.15-.07v-.17c.07-.03-.03-.15,.11-.07h0s0,0,0,0c0,0,.02,.01,.03,.02l-.02-.02c.16,.03-.17-.19,.02-.14,.16,.12-.21-.29-.13-.28l.31,.26c.23,.1-.03-.2,.07-.3,.15,.06,.41,.29,.59,.54-.21-.31-.14-.19-.21-.38,.11,.1,.13,.13,.21,.24,.18,.08-.06-.13-.01-.16-.19-.22-.49-.56-.49-.58l-.08-.05c-.06-.15-.07-.24,.08-.18l.1,.11v-.1s.13,.13,.13,.13l.04-.11-.05-.03s.02-.13,.11-.09l.07,.07c.31,.15,.08-.21,.14-.32l.08,.1s-.01,.04-.02,.05h0s.04,.02,.06,.02h.05s0,.01,0,.01h.03s.09,.02,.13,.03c.02,.02,.03,.03,.05,.04l-.04-.04s.06,0,.09,.01c.07,.08,.15,.18,.2,.24l-.16-.22,.2,.22c-.21-.27,.05,.03-.05-.13,.07,.09,.11,.14,.15,.17-.06-.09-.12-.18-.18-.27,.09,0,.18,0,.26,0,.2,.33,.49,.28,.72,.17,.23-.1,.41-.26,.64-.15,.02-.09-.01-.16-.02-.24,.19,.33,.19-.14,.41,.18,0-.11,0-.14,.01-.15,0,0-.03-.05-.07-.19,.06,.09,.09-.05,.17,.23v.03c.07,.29,.06-.16,.17,.08l-.1-.3,.08,.03v.06c.1-.76,.47,.19,.57-.5,.05,.35,0-.19,.1,.18,.17,.45,.1-.13,.12-.26,0-.02,0-.04-.01-.07l.1,.02c.05,.48-.02-.4,.02,0,.32,.3,.56-.13,.87-.01l-.03-.12c.07,.01,.14-.15,.22,.03,.08,.18,.07-.33,.09-.35,.03-.22,.15,.19,.12,.17,.05-.07,.05-.51,.17-.34,.08,.4,.19-.43,.25,.03v-.04c.15,.31,.19-.25,.35,.03,0,0,0,.03,0,.06,.04-.47,.08-.94,.13-1.41l-.21-1.52c-.12-.4-.25-.81-.38-1.21-.24,.12-.47,.23-.7,.36-.22-.13-.43-.26-.65-.39-.02,0-.03,.01-.05,.02,0-.03,.01-.05,.1-.01l-.17-.16c.33,.19,.01-.16,.34,0-.07-.08-.09-.1-.1-.11-.01,0-.05-.03-.17-.12,.09,.05,.02-.07,.25,.12l.02,.02c.23,.18-.07-.14,.14,0l-.26-.18h.07s.04,.05,.04,.05c-.46-.57,.38-.01-.03-.54,.26,.23-.12-.14,.17,.09,.4,.26-.04-.12-.12-.23-.01-.01-.03-.03-.05-.04,.02,0,.06-.02,.09-.04,.34,.34-.27-.3,.02,0,.46,0,.37-.55,.65-.81l-.12-.03c.06-.08-.04-.23,.16-.24,.21-.01-.25-.24-.27-.26-.19-.12,.24-.08,.21-.06-.04-.1-.45-.25-.26-.31,.41,.01-.36-.31,.09-.27h-.04c.33-.12-.21-.25,.07-.37,0,0,.03,0,.06,0-.46-.08-.93-.12-1.4-.14-.51,.06-1.02,.11-1.52,.15-.2,.02-.39,.04-.59,.06-.03-.02-.06-.03-.09-.05-.07-.04-.14-.09-.23-.15l-.14-.1-.12-.09-.02,.04,.24,.26c-.56-.26-.12,.32-.56,.18l.23,.18s-.16-.07-.2-.09c-.19,.37-.12,.95-.64,1.02-.18-.09-.15,.07-.33-.03,.22,.31,.14,.41,.04,.49l-.02-.02v.08s-.04-.03-.05-.05c.17,.21-.09,.13-.23,.13l-.02-.02c-.32,.34-.11,1-.72,1.13-.28-.02-.34,.15-.38,.33-.05,.18-.08,.38-.35,.46-.15-.04-.27,.17-.33,.41-.06,.24-.05,.52,0,.57h.38c.05,.25-.13,.36-.15,.52-.11,.03-.24,.03-.34,.06v-.03c-.25,.19-.4,.37-.52,.54-.08,.11-.15,.23-.23,.34-.31-.08-.62-.12-.85-.11-.31,0-.47,.06-.53,.09,.09,.12,.18,.24,.26,.36-.2,.04-.38,.05-.51,.06-.07,0-.13,0-.19,0-.05,0-.1,0-.15,0-.21,0-.35,.02-.46,.19v-.08s-.01,.15-.05,.23c-.01,.04-.07,.06-.11,0-.02-.03-.05-.07-.09-.14-.01-.04-.02-.08-.03-.12,0-.02-.01-.05-.02-.08v-.04s0,.08,0,.11v-.05s0,.05,0,.05c0,.02,0,.05,0,.08,0,.02,0,.03,0,.05v-.03s0,0,0,0c0,.03,0,.05,0,.06,0,.02,0,.04,0,.05v-.03s0,.02,0,.03c0,0,0,0,0,.01,0,0,0,0,0,0,0,0,0,.01,0,.03v-.02c0,.09,.02,.18,.03,.3,0,.02,0,.05,0,.07v.14s.01,.08,.01,.08c0,.05,0,.11,0,.16,0,.03,0,.08,0,.09,0,.05,0,.03-.02,.17,0-.03,0,0,0,0,0,0,0,0,0,0,0,0,0,0,0,.02-.02,.06,0-.02,0,0,0,0,0,.01-.02,.03,0,.03-.02,.06-.02,.09-.01,.06-.02,.12-.03,.18-.02,.12-.02,.24-.02,.33-.04-.1-.03,.04-.03,.15l.02-.08c.03,.09,.01,.3,.04,.36,0-.02,0-.04,0-.06v.03s0-.06,0-.09c0-.05,0-.08,.02-.07v.02s.05,0,.07,.02v.18c.02-.17,.09-.04,.19,.12,.08,.14,.18,.29,.23,.34-.07,0-.13,0-.2-.02l.03,.03s.03,0,.03,0c.02,.01,.03,.05,.03,.11,0,.11-.04,.29-.11,.53-.32,.29-.61,.51-.92,.77-.34,.81-.68,1.64-1.01,2.49l.23,.32c-.77,.24-.42,1.16-1.04,1.53l.27,.12c-.05,.16-.21,.08-.28,.1-.26,.73-.43,1.52-.61,2.29-.18,.76-.39,1.51-.72,2.24-.22,.11-.19,.59-.41,.68,.13,.36,.17,.79,.19,1.18,.02,.4,0,.79,.01,1.17l-.03-.02c.02,.12,.06,.22,.09,.33-.02,.02-.06,.04-.08,.03,.15,.15,.2,.38,.21,.66,.02,.26,.02,.56,.06,.81h-.04c.49,1.28,1.57,2.17,2.81,2.49,.61,.17,1.25,.19,1.87,.13,.63-.07,1.26-.19,1.92-.4,.66-.04,1.32-.54,1.87-1.11,.14-.14,.28-.29,.41-.44l.15-.17,.13-.15s.09-.09,.14-.14c.04-.04,.09-.08,.13-.11,.09-.07,.2-.13,.31-.19,.17,.04,.53-.34,.84-.76,.3-.4,.54-.85,.55-.98,.02,.07,.03,.14,.05,.21-.22,.45-.03,.95,.27,1.36,.3,.42,.68,.74,.86,1.15,.11,0,.22,0,.33,0,.04,.16,.13,.29,.25,.41,.13,.11,.29,.21,.45,.3,.34,.18,.72,.33,1.02,.63,.21-.04,.3-.04,.34-.04-.03-.02-.06-.08-.03-.22,.17,.17,.55,.12,.46,.41l-.05,.02c-.11,.29,.62,0,.81,.26l-.09-.33c.12,.03,.24,.06,.36,.09l-.1,.05c.82-.3,1.29-.3,1.81-.3,.5,0,1.01-.05,1.47-.56-.03,.38,.16-.25,.31,.09,.48,.32,.46-.31,.61-.52,0-.02-.01-.04-.02-.07,.13-.04,.25-.09,.38-.13,0,.54,.08-.49,.07-.02,.55-.07,1.08-.38,1.6-.74,.51-.37,1-.78,1.52-1.1l-.12-.06c.26-.17,.44-.53,.74-.53,.3,0,.16-.57,.21-.64,.03-.32,.48-.18,.39-.12,.15-.23,0-.71,.39-.84Zm-21.63-13.82s0,0,0-.01c0,0,0,0,0,0,0,0,0,0,0,.01Zm7.35-2.29s0,0,0,0c0,0,0,0,0,0,0,0,0,0,0,0Zm-1.23,3.13l.07,.08s0,.02-.01,.03c-.06-.06-.11-.13-.06-.11Zm.63,.36l-.07-.09s.01,0,.02,0l.05,.09Zm.51-2.72h0s0,0,0,0c0,0,0-.01,0-.02h0s0,.02,0,.02Zm-5.65,2.98s-.02,0-.03,0c.02-.07,.04-.13,.05-.2,0,.06-.01,.13-.02,.19Zm5.29,13.52c.09-.2,.2-.34,.31-.46,.03,.17,.06,.34,.1,.51l-.41-.05Zm11.5-10.95h0s0,.02,0,.02c0,0,0,0,0,0,.02-.04,.03-.05,.01-.02Zm-2.33-.58c.04,.09,.08,.18,.1,.23-.02-.05-.06-.13-.1-.23Zm.14,.3s0,.02,.01,.03c0,0,0-.01-.01-.03Zm-.15-.34h0s0-.03,0-.03h0s0,.02,.01,.03Z"/><polygon class="cls-1" points="110.17 118.98 110.15 118.99 110.33 119.05 110.17 118.98"/><path class="cls-1" d="M107.11,121.75c.18-.07,.17-.1,.12-.13-.06,.03-.1,.07-.12,.13Z"/><path class="cls-1" d="M93.29,123.72h0c.03-.08,.05-.14,.07-.19l-.07,.19Z"/><path class="cls-1" d="M93.42,124.15s0,.01,0,.02c0-.04,0-.09,0-.02Z"/><path class="cls-1" d="M92.56,123.67s.02,0,.03,0c0,0,0,0-.03,0Z"/><path class="cls-1" d="M94.58,116.98s0,0,0,0c.01,0,.02,0,.04,0h-.04Z"/><path class="cls-1" d="M94.66,117.05c-.05,.01-.07-.04-.08-.06-.09,0-.11,.03-.09,.07,.08,.04,.1-.03,.17-.01Z"/><path class="cls-1" d="M93.71,124.09s.04,.08,.05,.1h0s-.05-.1-.05-.1Z"/><path class="cls-1" d="M99.07,120.83l.08,.08s0-.03-.03-.05c-.02,0-.03-.02-.05-.02Z"/><path class="cls-1" d="M94.89,123.79s-.02-.03-.03-.04c-.06-.01-.12,.04-.18,.12l.13,.13,.09-.21Z"/><polygon class="cls-1" points="95.8 123.29 95.81 123.28 95.65 123.2 95.8 123.29"/><path class="cls-1" d="M97.03,121.51c-.09,.06-.06,.08-.02,.1,.03-.02,.04-.05,.02-.1Z"/><path class="cls-1" d="M99.35,120.76l-.08-.06s.04,.06,.08,.06Z"/><path class="cls-1" d="M120.92,124.08s0,0,0,0c.05,.03,.09,.06,.13,.08l-.12-.09Z"/><path class="cls-1" d="M120.16,124.72s-.01,0-.02,0c.03,.02,.06,.03,.02,0Z"/><path class="cls-1" d="M119.69,125.46s-.07-.03-.1-.04h0s.1,.04,.1,.04Z"/><path class="cls-1" d="M115.82,128.73l-.1-.04s.02,.02,.04,.03c.02,0,.04,0,.06,0Z"/><path class="cls-1" d="M118.6,126.29s.03,.02,.04,.02c.05,0,.09-.04,.11-.11l-.16-.08v.16Z"/><path class="cls-1" d="M113.82,127.84h0c-.12-.04-.08-.02,0,0Z"/><polygon class="cls-1" points="117.99 126.75 117.98 126.76 118.15 126.8 117.99 126.75"/><path class="cls-1" d="M117.48,128.18c.06-.05,.04-.06-.01-.07-.02,.02-.02,.04,.01,.07Z"/><path class="cls-1" d="M113.88,128.84c-.01,.06,.06,.04,.15,.02,0-.06-.01-.11-.01-.11-.03,.03-.1,.06-.13,.09Z"/><path class="cls-1" d="M115.59,128.83l.1,.03s-.06-.03-.1-.03Z"/><path class="cls-1" d="M125.34,114.41s.01,0,.02,0c-.03-.02-.06-.04-.02,0Z"/><path class="cls-1" d="M132.1,120.03s0,0,0,0c0,0,.02,.01,.03,.03l-.03-.03Z"/><path class="cls-1" d="M132.13,120.12s-.04-.08-.04-.09c-.06-.06-.09-.05-.09,0,.05,.08,.08,.04,.13,.1Z"/><path class="cls-1" d="M126.31,113.49s.06,.06,.08,.08h0s-.08-.08-.08-.08Z"/><path class="cls-1" d="M131.08,112.9v.1s.01-.03,.01-.05c0-.02,0-.04-.01-.06Z"/><path class="cls-1" d="M127.73,113.24s-.02-.03-.03-.04c-.04-.03-.08-.02-.11,.01l.1,.15,.04-.12Z"/><path class="cls-1" d="M132.15,119.93c.52,.1,.73-.48,1.17-.6l-.09-.09c.1-.05,.12-.24,.3-.14,.18,.11-.05-.36-.03-.39-.06-.22,.26,.06,.22,.07,.04-.1-.16-.5,.05-.43,.29,.29,.02-.53,.31-.17l-.02-.03c.33,.15,.1-.37,.42-.26,0,0,.02,.03,.03,.06l-.63-1.29-1.06-1.11-1.01-.77-.4,.68c-.13,0-.25-.01-.38-.02,.17-.21,.43-.1,.42-.41l.04,.07s-.06-.13-.06-.21c0-.04,.03-.06,.1-.04,.01,.01,.02,.03,.04,.05,0,0,.02,.02,.02,.03,0,0,0-.01-.01-.02-.04-.07-.07-.13-.1-.19-.02-.04-.03-.08-.05-.11,0-.05,.03-.14,.06-.27,0,0-.02-.18-.06-.41-.04-.23-.14-.49-.2-.66,.1,.08,.02-.05-.02-.16v.09c-.06-.07-.1-.28-.15-.34,0,.02,0,.04,.01,.06v-.03s.01,.06,.01,.08c0,.05,.01,.08,0,.07v-.02s-.07,.01-.1,0l-.05-.17c.02,.17-.09,.07-.25-.06-.16-.13-.36-.26-.41-.25-.19-.15-.15,.15-.29,.11-.17,.04-.22-.17-.37-.25-.15-.03,.14,.16,.11,.19l-.25-.13c.05-.06-.05-.12-.1-.17-.11,.04-.45-.11-.25,.19-.22-.04-.31-.16-.37-.13,.06,.04,.13,.06,.17,.11-.14-.09,0,.05,.04,.06,.03,.17-.76-.22-.51,.09l-.05-.05c.18,.24,.38,.43,.45,.59l-.11-.08,.04,.13c-.09-.05-.13-.12-.15-.15,.02,.16-.18,.12-.28,.15l.6,.54c-.19-.08-.55-.27-.4-.06l-.21-.18c-.45-.3,.05,.25-.1,.17l-.24-.18,.06-.04c-.15-.07-.23-.13-.39-.25h0s.02,.02,.03,.04h0c.08,.14,.11,.24,.06,.26-.04,0-.04,.06-.06,.08-.02,.03-.06,.03-.23-.05l.13,.28-.21-.07-.13-.2c.06-.03,.13-.1,.21-.18,.05-.06,.07-.1,.11-.14l-.06-.09s-.03,.15-.08,.15c-.05-.02-.26-.18-.29-.35l.07,.23c-.29,.22-.27,.23-.76,.27l.1,.07c-.02,.1-.03,.21-.18,.08-.22,.13-.51,.22-.87,.16l.18,.22s-.44-.17-.16,.11v.18c-.06,.05,.04,.19-.15,.17h0s0,0,0,0c-.01,0-.02,0-.04,0,0,0,.01,0,.02,.01-.21,.09,.21,.14-.05,.23-.21-.05,.26,.26,.15,.31-.13-.04-.27-.08-.4-.11-.27,.06-.03,.25-.06,.47-.01-.01-.03-.02-.04-.04-.11-.1-.22-.18-.16,.01l-.03-.07c.02,.06,.04,.12,.06,.18-.18,0-.4-.05-.59-.19-.06-.16,.27,.03,.23,.05,.01-.06-.07-.16-.11-.25-.05-.09-.07-.16,.03-.12,.15,.13,.11,.04,.08-.06-.03-.09-.05-.19,.09,0l-.02-.03c.13,.1,.12,.04,.13-.03,0-.07,.02-.15,.12-.04,0,0,.01,.03,.02,.06-.15-.43-.25-.88-.28-1.34-.19-.47-.41-.95-.65-1.41-.3-.34-.65-.65-1.03-.93-.23,.17-.45,.35-.65,.55-.2,.2-.39,.43-.52,.64l-.29,.13c-.09,.04-.15,.05-.23,.08l-.44,.14c-.37,.52-.73,1.06-1.07,1.62l.2,.32c-.72-.04-.43,.76-1.01,.87l.25,.17c-.05,.11-.2,0-.26,0-.14,.25-.23,.47-.38,.81-.13,.32-.26,.69-.36,1.08-.1,.39-.18,.82-.23,1.25-.02,.22-.04,.44-.06,.65,0,.02,0,.04,0,.06l-.03,.03-.02-.03-.03,.15s-.05-.03-.07-.04c.13,.28-.23,.36-.42,.47l-.02-.03c-.67,.98-.69,2.18-1.56,3-.67,.26-.33,1.1-.94,1.47-.32-.02-.61,1.17-.52,1.32l.39,.02c-.02,.47-.44,.52-.32,.97l-.06-.05s.09,.09,.13,.19c.02,.05,.01,.11-.05,.16-.03,.03-.08,.05-.15,.08-.07,.03-.15,.03-.28,.11-.06,.03-.13,.07-.2,.11h-.03s.06,.05-.06,.09c.09-.04,.18-.07,.27-.1,.04,.14,.17,.28,.16,.42-.05,.02-.12,0-.18,0-.01,.12-.02,.24-.03,.36l-.25,.06c.11,.14,.59,.17,.29,.4,.35-.06,.19,.16,.37,.14-.04,0-.11,.03-.17,.05,.03,.16,.11,.35,.28,.4,0,0,.19-.08,.42-.19,.23-.1,.52-.25,.71-.27-.11,.15,.04,.05,.15,.03l-.08-.02c.09-.08,.31-.04,.37-.07-.02,0-.04,0-.06,0h.03s-.06,0-.08,0c-.05,0-.08-.02-.06-.04h.02s.02-.09,.04-.11l.18,.04c-.26-.12,.31-.23,.55-.23,.06,0,.09-.01,.1-.03,.24,.01,.02-.19,.16-.24,.12-.13,.27,.03,.45,.01,.14-.05-.2-.06-.2-.11h.28c0,.06,.11,.07,.18,.08,.07-.08,.44-.11,.12-.28,.21-.06,.35,0,.39-.05-.07,0-.14,0-.21-.02,.17,.01-.03-.04-.07-.03-.11-.14,.78-.15,.42-.32l.07,.03c-.26-.14-.54-.22-.66-.34l.14,.02-.09-.11c.1,0,.17,.05,.2,.07-.08-.15,.12-.21,.2-.3l-.78-.21c.21-.02,.63-.03,.4-.16l.27,.06c.55,.03-.15-.22,.03-.23l.31,.03-.05,.09c.18-.03,.28-.03,.49-.02h0s-.03,0-.04-.01v-.02c-.13-.07-.2-.16-.16-.22,.08-.07-.08-.24,.27-.25l-.25-.16,.21-.03,.22,.1c-.06,.1-.07,.34-.13,.48l.1,.05c.04-.08-.02-.22,.03-.26,.06,0,.31,.03,.43,.15l-.19-.15c.1-.28,.09-.29,.47-.44l-.12-.03c-.04-.09-.07-.17,.11-.1,.12-.15,.34-.25,.66-.22l-.24-.15s.44,.11,.09-.08l-.07-.13s-.09-.14,.09-.12h0s0,0,0,0c.01,0,.02,0,.03,0,0,0-.01,0-.02-.01,.16-.05-.22-.11-.02-.16,.2,.05-.29-.21-.21-.24l.39,.13c.26,0-.09-.2,0-.36,.17,0,.49,.12,.73,.32-.29-.24-.2-.14-.3-.32,.14,.06,.16,.08,.27,.17,.2,0-.09-.11-.05-.17-.24-.15-.63-.39-.64-.42l-.09-.02c-.1-.14-.12-.24,.04-.24l.12,.07-.02-.11,.16,.09v-.14s-.04,0-.04,0c0-.04-.01-.15,.1-.15l.09,.05c.35,.02,.06-.29,.12-.47l.17,.13c.21,.05-.27-.18-.14-.19l.22,.13c-.26-.23,.1-.04,.24,0l-.3-.16,.1-.03c.14-.02,.39,.17,.54,.28l-.19-.19,.26,.15c-.19-.15-.08-.1-.04-.11,.01,0,.02,.01,.03,.02,.02,0,.04-.02,.06-.03,.04,.03,.07,.04,.1,.05l-.06-.06c.39-.14,.76-.31,1.09-.53l-.07-.35c.24,.22,.37,.12,.47,0,.1-.11,.18-.25,.42-.15l-.17-.25c.05-.06,.15,.09,.2,.12,.26-.24,.43-.54,.59-.79,.05-.08,.05-.09,.08-.13,.02-.03,.05-.06,.08-.08,.06-.05,.15-.07,.27-.05,.16,.12,.14-.02,.3,.11-.18-.33-.1-.4,0-.45l.02,.03v-.07s.04,.04,.05,.06c-.03-.04-.03-.07-.04-.09l.73,1.01,.23,.06c.07,.02,.12,.05-.02,.28,.28,.17,.59-.22,.86,.11,.01,.45,.44,.41,.68,.48,.52-.11,.82-.27,1.24-.44,.16,.28,.33,.21,.48,.1,.15-.11,.28-.25,.44-.13v-.24c.28,.32,.39-.19,.72,.07,.02-.12,.03-.16,.04-.17-.01,0-.04-.04-.1-.18,.1,.08,.16-.09,.27,.19v.03c.1,.28,.12-.2,.28,0l-.16-.28h.13s0,.07,0,.07c.08-.42,.26-.43,.44-.43,.18,0,.37,0,.39-.38,.12,.33-.02-.2,.17,.13,.33,.36,.12-.19,.12-.34,0-.02-.02-.04-.03-.06l.15-.04c.18,.45-.12-.39,.03,0Zm-.68-5.24s0,0,0,0c0,0,0,0-.02-.05l.03,.06Zm-.05-.13h0c0-.05,0-.04,0-.09,0,.02,0,.06,0,.09Zm-7.28,1.38s0,.03-.02,.03c-.06,0-.02,.12-.11,.1,.04-.05,.08-.09,.13-.13Zm-.18,.2l.08,.11-.11-.05s.02-.03,.03-.05Zm.82,.15l-.16-.22c-.37-.38,.05,.23-.07,.13l-.21-.21,.06-.03c-.09-.06-.16-.11-.24-.18,.03-.03,.04-.08,.06-.12l.05,.03s0,0,0-.01c-.02-.01-.03-.02-.05-.03,0-.02,.02-.03,.04-.04,.02,.02,.03,.04,.01,.07,.12,.06,.28,.12,.41,.18,.1,.16,.2,.32,.29,.47h-.05c-.11-.13-.21-.21-.13-.05Zm-.28-.72s-.05-.01-.07-.02c-.04-.1-.18-.29-.17-.31,0,0,0,0,0,0,.22,.2,.15,.12,.24,.33Zm3.63,1.42s.02-.07,.02-.1l.21,.24c-.12,.06-.22,.04-.23-.15Zm1.03,1.13s-.03-.06-.04-.09l.3,.35c-.13-.07-.21-.16-.26-.26Z"/><path class="cls-1" d="M131.6,114.91s0,0,0,0h0Z"/><polygon class="cls-1" points="128.36 113.21 128.37 113.21 128.24 113.08 128.36 113.21"/><path class="cls-1" d="M129.41,112.21c-.08,.01-.07,.04-.03,.07,.02,0,.04-.03,.03-.07Z"/><path class="cls-1" d="M131.22,113.09v-.1s-.01,.06,0,.1Z"/><path class="cls-1" d="M98.16,111.85s0,0,0,0c.04,.05,.07,.09,.1,.12l-.09-.12Z"/><path class="cls-1" d="M97.34,112.09s0,0-.01,0c.02,.03,.05,.05,.01,0Z"/><path class="cls-1" d="M101.94,110.15s0,0,0,0c0,.01,0,.02,.01,.03v-.04Z"/><path class="cls-1" d="M101.94,110.16c-.03-.08-.05-.08-.06-.04,.02,.09,.05,.07,.07,.14-.02-.04-.01-.08-.01-.1Z"/><path class="cls-1" d="M92.07,110.82l.02-.1s-.01,.02-.02,.05c0,.02,0,.04,0,.06Z"/><path class="cls-1" d="M98.27,110.89s-.01,.03,0,.02l.02-.05s0,0,0,0v.03Z"/><path class="cls-1" d="M92.09,108.77s0,0,0,0v.02s0,0,0,0c0,0,0-.01,0-.02Z"/><path class="cls-1" d="M92.06,108.55v.09s0-.03,0-.05c0-.01,0-.03,0-.04Z"/><path class="cls-1" d="M102.51,104.33s0,0,0,0c.01,0,.02,0,.03,.02l-.04-.02Z"/><path class="cls-1" d="M102.51,104.33c-.08-.03-.08-.04-.06,0,.07,.06,.07,.03,.13,.07-.04-.02-.07-.05-.07-.07Z"/><path class="cls-1" d="M18.83,26.4s-.04,.08,0,0h0Z"/><path class="cls-1" d="M46.06,10.85s-.01,.05-.02,.08c.08,.02,.14,.05,.19,.08-.05-.05-.11-.1-.17-.15Z"/><path class="cls-1" d="M42.86,19.9s-.02,.02-.03,.03c.05,.01,.09,.03,.03-.03Z"/><path class="cls-1" d="M39.35,3.56c.04-.05,.09-.11,.15-.16-.07,.04-.11,.1-.15,.16Z"/><path class="cls-1" d="M37.72,13.1s-.02,.04-.02,.06c0,0,.01-.03,.02-.06Z"/><path class="cls-1" d="M1.91,53.93l-.15-.13c.05,.07,.1,.11,.15,.13Z"/><path class="cls-1" d="M31.65,56.67l-.14-.13c.01,.07,.03,.12,.06,.15,.02,0,.05,0,.08-.02Z"/><path class="cls-1" d="M37.83,34.15s.03,.04,.06,.05c.1-.13,.21-.5,.34-.99l-.22-.09-.17,1.04Z"/><path class="cls-1" d="M17.37,39.41c.37-.11,.76-.22,1.16-.34,1.14-.34,2.29-.69,2.69-.89-.17-.14-.38,.06-.57-.18,.17-.23,.34-.05,.39-.25,.22,.38,.52-.06,.82,.3v-.25s.14,.11,.14,.11c.9-.55,.19-.19,1.07-.41,.49-.19,.63-.59,.95-.55-.04,.01-.2-.1-.08-.2,.08,.2,.3-.25,.43-.06,.12-.07,.54-.16,.32-.4,.11,.12,.5,.07,.32,.25,.13-.03,.26-.02,.33-.11l-.18-.03c.41-.17,.7-.01,.9-.35l-.19-.07c.25-.09,.45-.17,.63,.08l-.23,.16c.42-.13,.66-.21,.97-.46l-.13,.03c.37-.41,2.63-1.25,2.96-1.7l-.24-.17,.31-.27s0,.75-.05,.69c.28-.08,1-.28,1.82-.49-.28,.9-.62,2.24-.92,3.6-.48,2.18-.84,4.4-.82,4.78l.67-.83c-.43,3.03-1.18,4.35-1.22,7.04l-.08-.16c-.08,.18,.13,.37,.12,1.01,0,.65-.24,1.72-1.1,3.86h-.05c0,.15,.09,.16-.06,.45l.36-.74c.08,.46,.28,.88,.27,1.49-.06,.13-.16,.17-.24,.17,0,.5,0,1.01,.03,1.53l-.31,.48c.18,.49,.81,.23,.51,1.55,.42-.52,.32,.63,.54,.45-.05,.07-.12,.23-.18,.36,.07,.39,.2,.97,.39,1.5,.19,.53,.45,1.01,.63,1.17,0,0,0-.06-.01-.16,0-.1-.02-.25-.02-.42,0-.34,.02-.8,.1-1.24,.14-.91,.45-1.81,.67-2.19-.06,1,.07,.25,.21,.06l-.12-.06c.09-.59,.38-.6,.45-.89-.02,0-.05,0-.08,.02l.04,.04c-.05,.03-.09,.01-.11-.02-.06,0-.11-.02-.09-.18l.03,.03c-.04-.24,0-.66,.03-.84h.24c-.22-.22-.03-.93,.26-1.64,.28-.71,.65-1.42,.69-1.7,.36-.53,.07-1.27,.32-1.95,.24-1.11,.43-.51,.72-1.03,.26-.67-.3,.1-.27-.18l.47-.78c-.05,.49,.13,.25,.24,.18,.16-.71,.8-1.76,.37-2.07,.41-.93,.6-.89,.7-1.3-.11,.12-.25,.38-.34,.37,.28-.35-.01-.2-.09-.05-.09-.64,1.49-2.88,1.01-3.12l.09,.02c-.35-.22-.77-.08-.89-.54l.23-.24-.07-.45c.19-.25,.26-.09,.3-.08-.02-.72,.41-1.61,.66-2.41l-1.25,.62c.4-.64,1.19-1.76,.89-1.98l.45-.33c1.01-1.21-.05-1.04,.29-1.54l.56-.6-.18,.69c.37-.64,.56-.88,.95-1.37,0,0,0,0,0,0-.03,.03-.05,.05-.07,.05l.02-.1c-.17-.13-.2-.53-.06-1.01,.06-.17,.1-.34,.13-.51,.16,0,.32,0,.46,.02,0,.03-.01,.06-.02,.09-.04,.06-.11,.1-.18,.14,.04,0,.09,0,.14,.01-.03,.11-.05,.22-.08,.32l.14,.06c.04-.15,.07-.31,.1-.48,.02,0,.03-.02,0-.04,.09-.1,.18-.15,.24-.17,.08-.02,.15-.01,.19,0l.07,.02s.01,0,.02,0h0s0,0,0,0v-.04s.04-.08,.04-.08c.04-.1,.05-.17,.08-.25,.05-.16,.12-.3,.19-.44,0-.02,.03-.06,.07-.12,.01-.03,.02-.06,.04-.09,0-.02,.02-.04,.03-.05l.02-.03,.06-.1c.17-.28,.38-.59,.64-.89,.25-.3,.57-.58,.92-.82,.7-.51,1.62-.69,2.38-.7,.75,.01,1.32,.18,1.42,.14,.14,.38,.2,.71,.23,1,.03,.29,.04,.52,.02,.62,.05-.09,.07-.49,0-.95-.03-.22-.1-.49-.2-.74-.09-.25-.21-.47-.31-.65-.09,0-.19,0-.28,0-.49-.69-.56-.77-.57-.87-.04-.1-.03-.21-.57-.68,.03-.1,.32,.04,.69,.36,.4,.39,.88,1.01,1.15,1.74-.23-.67-.56-1.23-.91-1.67-.09-.12-.17-.2-.24-.27-.08-.07-.15-.14-.23-.2-.15-.11-.29-.19-.41-.21-.2-.19-.24-.24-.27-.29-.02-.05,0-.07,.02-.1,.03-.05,.06-.12-.36-.42-.08-.04-.17-.08-.26-.11-.08-.03-.15-.05-.23-.07-.16-.04-.32-.08-.48-.12-.15-.04-.29-.07-.43-.1-.07-.02-.15-.05-.22-.08,.39-1.04,.88-2.02,1.4-2.62l-.31-.29c.1-.26,.76-.51,.3-.79v-.62c.15-.36,0-.65,.34-1.01h0s0,0,0,0c.02-.02,.04-.05,.07-.07-.01,0-.02,0-.03,0,.41-.79-.32-.09,.17-.98,.35-.23-.36-.48-.13-.92l.66-.32c.27-.38,.29-.64,.29-.97,0-.16,0-.34,0-.55,0-.05,.01-.11,.02-.17,0-.06,.04-.19,.06-.29,.05-.22,.11-.45,.19-.72,.25-.49,.53-.88,.78-1.06,.25-.18,.47-.15,.57,.24-.1-.53-.15-.63-.16-.79,0-.15,.04-.35,.1-.99,.29-.25,.3-.13,.4,.14,.63-1.31,.02-.72,.3-1.63-.37-.11-1.01-.07-.97-.31l-.23,.36c0-.72,.11-1.45,.6-2.53l.24-.14c.04-.3,.09-.6,.12-.88l.34-.32c.08-.44,.13-.85,.16-1.23l-.11,.25c0-.06,0-.16,0-.28,0-.11,0-.25,.01-.4,0-.14,0-.29,.02-.44,.01-.14,.03-.29,.07-.44l.17-.16c.11-.42,.13-.73,.09-.95-.04-.23-.11-.4-.2-.54-.19-.28-.42-.45-.57-.84l.23-.17c.07-.53-.31,.35-.36-.12l.2-.32c-.11,.03-.17,.02-.23-.03-.05-.05-.14-.14-.15-.18-.04-.09-.02-.26-.08-.36l-.15,.43c-.13-.03-.25-.06-.38-.1-.38-.18,.07-.67,.27-.9-.18,.11-.34,.2-.54,.35l.18-.48c-.57,.58-.23-.1-.86,.22,.06-.21,.23-.32,.11-.42-.19,.12-.38,.26-.58,.4-.09,.06-.21,.17-.32,.28l-.34,.31c.25-.2,.53-.45,.73-.54l-.43,.86c-.1,.09-.19,.17-.27,.24-.08,.07-.15,.13-.22,.17-.12,.08-.21,.1-.29,.1-.15,0-.27-.05-.53,.17l.4-.41c-.27,.18-.44,.26-.55,.28-.28,.13-.33-.02-.62,.08,.11,.05,.25,.17-.12,.52-.27,.23-.04-.22-.26-.14-.23,.65-.87,1.38-1.36,1.5,.02-.09,.05-.17,.09-.25-.16,.2-.25,.39-.47,.43l.24-.73c-.19,.32-.38,.63-.56,.94-.31,.12-.81,.96-.75,.53l.19-.28-1.27,1.03c-.43,.36-.86,.66-1.29,1.09l-.14-.34c-.06,.39-.42,.69-.75,.97-.33,.28-.61,.54-.42,.76-.32,.09-.77,.62-1.14,1.01-.19,.2-.35,.36-.47,.42-.12,.06-.18,0-.27-.15-.99,.99-1.03,1.96-2.38,3-.83,.07-1.75,1.44-2.49,2.22-1.17,1.76-1.85,2.94-3.03,4.73-1.41,.53-1.75,2.68-2.92,3.51l.02,.49c-.95,.43-1.29,1.91-2.44,2.66-.08,.33-.14,.49-.17,.56,.05-.04,.15-.07,.32,.02-.33,.21-.62,.92-.91,.64l.02-.1c-.29-.28-.5,1.01-1.02,1.14l.48,.07-.46,.52,.04-.2c-.41,1.26-.98,2.05-1.57,2.75-1.12,.34-2.18,.63-2.62,.72-.4,.45-1.1,.49-1.53,.84l.03-.08c-.24,.15-1.14,.45-2.04,.77-.9,.32-1.82,.66-2.1,.84h.1c-.46,.4-.52,.08-.98,.17,.19,.27-.2,.64-.36,.74l-.02-.07c-.24,.17-.72,.7-1.13,.95l-.06-.17c-.28,.34-1,.62-1.26,.78-.32,.13-.75,.25-1.21,.46-.46,.2-.94,.49-1.37,.97l-.24,.03-.26,.06-.27,.07c-.09,.02-.2,.08-.31,.12l-.1,.17s.05,.09,.14,.24c.09,.15,.23,.36,.42,.59,.38,.47,.93,1.06,1.56,1.62,.63,.56,1.31,1.11,1.93,1.54,.3,.22,.58,.41,.82,.59,.23,.18,.35,.4,.46,.52,.03,.04,.04,.04,.03,.03h0s0,0,0,0c0,0-.03-.03-.04-.04l.02,.02h0s.13,.13,.13,.13l-.08-.08,.05,.05s0,0,0,0h0s0-.03,0-.03c.11,.02,.05-.18,.14-.03-.01,0-.03,.02-.04,.02,0,0-.01-.01-.02-.02,0,0,0-.02,0,0,0,0-.01,.02-.02,.03,0,0,0,.01,0,.02-.01,0-.03,.01-.03,.02,0,0,.02,0,.03,0,0,.01,0,.02,0,.03h0s0,0,0,0l-.02-.02,.03,.03h0s0,0,0,0h0c-.1-.1-.17-.18-.22-.23,.54,.58,.31,.34,.28,.3,0,0,.01,.01,.03,.04h0s0,0,0,0h0s0,0,0,0l-.02-.03-.08-.09h0s.03,.04,.03,.04h0s0,.01,0,.01c.02,.01,.03,.03,.05,.05,0,0,0,0,0-.01,0,.02,.01,.03,.03,.05,0,.01,.08,0,.13,.02-.03-.07-.05-.05-.09-.07,0-.07,0-.28,.12-.27,.15-.08,.16,.23,.35,.14,.48-.23,1.11-.48,1.73-.72-.48,.77-.97,1.54-1.48,2.24l.21-.03c-.44,.64-.79,1.57-1.32,1.94-.53,.37-.32,1.32-.42,1.53-.1,.7-.88,.91-.71,.69-.29,.64-.13,1.49-.83,2.19-.64,0-.87,2.54-1.41,2.25l.04,.03c-.99,.86-.93,2.24-1.9,3.24,0,0-.03-.04-.04-.1,.12,1.1,.24,2.21,.44,3.3,.73,.02,1.46,.08,2.16,.17,.41-.21,.82-.41,1.23-.61l1.25-.59c.86-1.83,1.79-3.68,2.74-5.52,1.03-1.31,2.08-2.61,3.13-3.9,2.06-3.46,4.19-6.88,6.38-10.27l.03-.27Zm17.41-23.22c.29-.13,.69-.54,1.09-.94,.4-.39,.79-.77,1.05-.84l.18-.32,.1-.16s.01-.05,.02-.08c-.01-.05-.02-.1-.02-.15,0-.1,.04-.2,.09-.29,.1-.18,.24-.29,.35-.36l-.02,.08,.14-.23c0,.06-.03,.14-.05,.2,.09-.23,.17-.37,.23-.41,.07-.06,.1-.01,.1,.08,0,.09-.03,.23-.06,.33l-.06,.11s.07-.03,.1-.06l.06-.04s.02,.03,.02,.04c0,.06,.02,.1,.03,.15,.03,.1,.06,.25,.04,.5,0,.12-.03,.27-.06,.42v.06s-.02,.04-.02,.04l-.05,.16-.19,.66c-.13,.44-.26,.87-.39,1.31-.53,1.75-1.11,3.5-1.77,5.27-.57,1.13-.97,2.39-1.31,3.71-.67,.12-1.41,.27-2.14,.44-1.57,.37-3.08,.8-3.7,.96l.04-.04c-.78,.23-1.89,.53-3.05,.88,2.93-4.21,5.94-8.32,9.23-11.46Z"/><path class="cls-1" d="M28.83,54.52v-.03c-.17,0-.11,.05,0,.03Z"/><polygon class="cls-1" points="36.19 38.66 36.18 38.71 36.45 38.57 36.19 38.66"/><path class="cls-1" d="M34.19,49.01c.13-.46,.09-.48,.01-.43-.04,.17-.05,.32-.01,.43Z"/><path class="cls-1" d="M29.22,58.9c.02,.3,.11,.17,.2-.01-.06-.3-.08-.5-.08-.5-.03,.16-.1,.34-.12,.51Z"/><path class="cls-1" d="M31.39,57.6l.14,.07c-.04-.15-.09-.14-.14-.07Z"/><path class="cls-1" d="M5.28,43.65s-.03-.03-.04-.05c.01,.01,.03,.03,.04,.05Z"/><path class="cls-1" d="M5.19,43.56s0,0,0,0c0,0-.01-.01-.02-.02h0s.03,.04,.05,.05c-.01-.01-.02-.02-.03-.03,0,0,0,0-.01-.01Z"/><polygon class="cls-1" points="5.32 43.69 5.23 43.6 5.21 43.58 5.34 43.71 5.32 43.69"/><path class="cls-1" d="M5.6,43.99l.02,.02h0s0,0,0,0h.01s-.02-.02-.03-.03c0,0,0,0,0,0Z"/><polygon class="cls-1" points="5.18 43.55 5.18 43.55 5.18 43.55 5.18 43.55 5.18 43.55 5.18 43.55"/><path class="cls-1" d="M5.19,43.56s0,0-.01-.01h0s0,0,.01,.01Z"/><path class="cls-1" d="M5.18,43.55s-.05-.05,0,0h0s0,0,0,0Z"/><polygon class="cls-1" points="5.19 43.56 5.21 43.58 5.21 43.58 5.19 43.56 5.19 43.56 5.19 43.55 5.18 43.55 5.19 43.56 5.19 43.56"/><polygon class="cls-1" points="5.63 44.02 5.63 44.02 5.63 44.02 5.63 44.02"/><path class="cls-1" d="M45.31,29.9c-.03-.14-.06-.29-.1-.44-.05-.16-.11-.33-.17-.5,.06,.16,.11,.33,.16,.49,.04,.15,.07,.3,.11,.45Z"/><path class="cls-1" d="M104.05,50.42h0c.05-.03,.1-.05,.13-.07l-.13,.07Z"/><path class="cls-1" d="M104.18,51.03s0,.01,0,.02c.01-.03,.03-.07,0-.02Z"/><path class="cls-1" d="M104.17,47.65s.02,.03,.01,.04c0-.01,0-.03-.01-.04Z"/><path class="cls-1" d="M99.9,46.25s0-.03,0-.04c0,.02,0,.03,0,.04Z"/><path class="cls-1" d="M104.78,51.11s.02,.08,.03,.11h0s-.04-.11-.04-.11Z"/><path class="cls-1" d="M113,46.95l.06,.09s0-.04-.01-.06c-.02,0-.03-.02-.05-.03Z"/><path class="cls-1" d="M106.95,50.77s-.01-.03-.02-.05c-.06-.02-.15,.03-.27,.1l.09,.16c.07-.07,.13-.14,.2-.22Z"/><path class="cls-1" d="M110.19,40.16s0-.01,0-.02c0,0,0,.01,0,.02Z"/><path class="cls-1" d="M100.68,43.89c0,.8-.32,1.45-.62,2.09l-.02-.04-.07,.33s-.06,0-.08-.02c.12,.44-.33,.9-.56,1.31l-.02-.04c-.11,.32-.19,.64-.27,.96l-.06,.24-.06,.34c-.04,.24-.06,.48-.07,.72-.04,.98,.21,2.07,.73,2.95,.25,.44,.56,.84,.89,1.17,.16,.17,.33,.32,.5,.47,.19,.16,.39,.31,.61,.45,.86,.57,1.91,.91,2.97,.98,.48,.11,.98,.09,1.44-.02,.23-.05,.45-.13,.67-.21,.19-.08,.35-.16,.53-.25,.69-.35,1.35-.78,2.1-1.03,.2,.05,.93-.42,1.53-.97,.61-.55,1.1-1.17,1.14-1.3l-.49-.03c.62-.84,1.2-.95,1.55-1.77l.03,.09c.07-.02-.03-.17,.05-.37,.04-.1,.12-.2,.3-.31,.18-.1,.48-.25,.89-.37l.03,.02s-.03-.09,.11-.11l-.33,.06c.02-.17-.03-.38,.07-.55,.06,0,.12,.03,.17,.06l.23-.41,.27,.03c-.02-.19-.45-.43-.02-.56-.35-.09-.06-.26-.23-.33,.04,.01,.12,.02,.19,.02,.09-.19,.24-.56,.16-.74,0,0-.26,.04-.58,.1-.32,.05-.69,.1-.91,.08,.25-.19,.01-.09-.11-.11l.06,.07c-.17,.1-.35-.03-.45,0,.01,.01,.03,.02,.05,.03l-.02-.03s.05,.04,.07,.06c.04,.03,.06,.05,.02,.09v-.02c-.03,.08-.14,.16-.18,.2l-.14-.11c.19,.32-.96,.39-1.07,.5-.28-.01-.21,.33-.44,.43-.28,.23-.31-.04-.55-.01-.23,.09,.19,.11,.14,.18l-.36,.03c.08-.13-.05-.14-.12-.16-.17,.15-.65,.18-.44,.47-.33,.1-.43,0-.53,.08,.08,.02,.18,0,.23,.04-.2-.02-.01,.07,.05,.06-.02,.25-1.11,.2-.86,.5l-.05-.05c.17,.24,.42,.4,.44,.6l-.15-.04v.18c-.13-.01-.16-.1-.18-.12-.06,.24-.38,.31-.59,.43,.24,.15,.48,.3,.72,.44-.29,0-.82-.05-.69,.18l-.27-.14c-.63-.16-.1,.35-.33,.33l-.34-.12,.17-.11c-.25,0-.37-.04-.6-.12h0s.03,.02,.04,.03l-.02,.02c.06,.13,.03,.28-.1,.34-.19,.06-.22,.34-.64,.2l.07,.3c-.1-.01-.19-.04-.29-.06l-.1-.22c.21-.08,.53-.36,.77-.51l-.05-.1c-.14,.08-.25,.28-.37,.3-.07-.02-.3-.18-.29-.36l.02,.25c-.24,.13-.36,.19-.49,.23-.07,.01-.14,.02-.24,.01-.05,0-.1,0-.16,0-.04-.01-.1-.03-.15-.04l.07,.1c-.05,.09-.11,.18-.18,0-.22,.02-.42-.13-.43-.44l-.03,.28s.03-.44-.05-.05c-.02,.04-.04,.07-.07,.11-.02-.03-.09,.12-.07-.05h0s0,0,0,0c0-.01,0-.02,0-.03,0,0,0,.01,0,.02,0-.13-.1,.23-.11,.05,.08-.19-.2,.3-.22,.21,.06-.12,.12-.24,.19-.36,.04-.12,0-.09-.07-.06-.08,.03-.19,.06-.25,0,.05-.16,.32-.38,.57-.55-.31,.21-.19,.14-.37,.2,.12-.09,.15-.1,.27-.18,.13-.12-.12,.06-.13,.04-.25,.14-.66,.34-.69,.33l-.07,.06c-.17,.02-.27-.05-.16-.17l.14-.04s-.06-.04-.09-.06l.18-.05s-.05-.06-.07-.09l-.05,.02s-.1-.11,0-.17h.1c.32-.14-.1-.24-.04-.58l.19,.1c.23-.07-.3-.11-.16-.24l.25,.06c-.29-.22,.11-.15,.26-.2l-.34-.05,.11-.15c.16-.15,.44,0,.6,.08l-.22-.2,.29,.06c-.3-.19,.08-.07-.05-.28,.11,.02,.16,.08,.22,.04-.11-.13-.21-.26-.31-.39l.12,.21-.41-.16c-.26-.27,.12-.21,.05-.36l.09,.12c-.03-.22,.15-.17,.28-.24-.09,0-.22,.01-.24-.08,0-.06,.15,.02,.22-.01-.27-.12-.36-.31-.18-.38,.04,.02,.07,.03,.09,.05-.03-.05-.09-.09,0-.12l.28,.15-.24-.22c.11-.04-.06-.23,.13-.13l.04,.06c.09-.17,.2-.32,.3-.48l.24,.1c-.3-.2,.25-.22-.16-.39,.26,.01,.04-.45,.45-.17,.19-.3-.12-.71,.31-.98,.45,.08,.55-.36,.75-.56,.08-.28,.14-.52,.22-.75,.07-.24,.16-.47,.29-.74,.34,.05,.43-.15,.52-.37,.08-.22,.15-.47,.4-.5l-.1-.24c.44,.07,.39-.53,.9-.53,0-.13,0-.19,.01-.21-.02,0-.07-.01-.18-.11,.15,0,.21-.24,.4,0v.04c.2,.23,.13-.32,.39-.2l-.26-.19,.18-.09v.08c.22-1.14,.98-.49,1.11-1.25,0,0,0,0,.01,.01,.04,.13,.04,.09,.05,.04,.06,.05,.13,.1,.16,.13,0,0,0,0,0,0,0,0,.02,.02,.02,.03,.14,.17-.18,.15-.23,.11,.03,.14,.32,.45,.05,.53-.19-.08-.18,.09-.2,.27-.01,.17-.05,.35-.22,.2l.03,.03c-.44,.02-.26,.63-.75,.71,0,0-.02-.03-.03-.06,.14,.51,.26,1.05,.4,1.57l1.25,.91c.46,.13,.92,.25,1.4,.35,.44-.58,.96-1.26,1.38-2.13,.54-.56,1.02-1.34,1.32-2.19,.06-.55,.09-1.01,.02-1.66-.03-.31-.11-.7-.27-1.11-.16-.42-.44-.92-.86-1.35-.43-.44-.99-.75-1.47-.9-.5-.16-.91-.19-1.28-.19-.72,.02-1.19,.13-1.72,.29-.11,.15-.22,.31-.31,.47-.67-.08-1.27,.28-1.73,.67-.22,.19-.44,.38-.65,.57-.2,.17-.38,.28-.63,.35l.19,.23c-.17,.18-.29,.03-.37,.04-.83,.81-1.57,1.76-2.26,2.7-.69,.94-1.33,1.87-2.04,2.7-.27,.08-.49,.69-.74,.74Zm10.2-4.17h0s0,0,0,0h0Zm.21-.96s0,0,0,0c0,0,0,0,0,0Z"/><path class="cls-1" d="M114.34,48.76h0c.1,.08,.07,.04,0,0Z"/><polygon class="cls-1" points="108.24 50.27 108.26 50.26 108.1 50.16 108.24 50.27"/><path class="cls-1" d="M110.34,48.1s.06-.08,.06-.13c-.13,.08-.11,.11-.06,.13Z"/><path class="cls-1" d="M114.9,47.6c.05-.06-.02-.08-.12-.09-.04,.07-.06,.12-.06,.12,.05-.02,.13-.01,.18-.03Z"/><path class="cls-1" d="M113.35,46.85l-.07-.08c0,.05,.02,.07,.07,.08Z"/><path class="cls-1" d="M67.05,45.55s0,0,0,.01c.05,.03,.09,.06,.12,.09l-.12-.1Z"/><path class="cls-1" d="M65.94,47.29s-.01,0-.02,0c.03,.01,.07,.02,.02,0Z"/><path class="cls-1" d="M69.23,41.3s0,.03,0,.05c.02-.01,.01-.03,0-.05Z"/><path class="cls-1" d="M71.28,42.5s0,0,0-.01c-.01,0-.03,0-.04,0h.04Z"/><path class="cls-1" d="M71.21,42.41c.06-.03,.07,.05,.07,.08,.1-.02,.13-.07,.13-.14-.08-.04-.12,.07-.2,.06Z"/><path class="cls-1" d="M65.71,38.5s0-.03,0-.04c-.02,.01-.02,.03,0,.04Z"/><path class="cls-1" d="M65.53,48.36s-.09,.01-.12,.02h0s.12-.02,.12-.02Z"/><path class="cls-1" d="M64.98,49.8s.03-.03,.05-.05c.03-.08,.02-.14-.01-.2l-.19,.18s.09,.05,.15,.07Z"/><path class="cls-1" d="M69.37,47.07s0-.02,0-.02c0,0,0,.02,0,.02Z"/><polygon class="cls-1" points="65.35 50.81 65.36 50.81 65.42 50.54 65.35 50.81"/><path class="cls-1" d="M67.09,49.87s.04-.05,.04-.1c-.08,.03-.07,.06-.04,.1Z"/><path class="cls-1" d="M87.53,42.17s0,0,0,0c-.05-.02-.1-.05-.14-.06l.14,.07Z"/><path class="cls-1" d="M88.01,41.86s.01,0,.02,0c-.04,0-.08,0-.02,0Z"/><path class="cls-1" d="M86.84,45.17s-.01-.02-.01-.03c0,0,0,.02,.01,.03Z"/><path class="cls-1" d="M82.11,50.88s0,0,0,0c0,0-.02-.02-.03-.03l.03,.03Z"/><path class="cls-1" d="M82.08,50.78s.03,.08,.03,.09c.06,.06,.09,.05,.1,0-.05-.08-.08-.04-.13-.1Z"/><path class="cls-1" d="M88.14,41.51s.09-.05,.12-.07h0s-.12,.07-.12,.07Z"/><path class="cls-1" d="M88.37,40.58l.15-.2c-.05,0-.1,.01-.15,.03-.01,.02-.03,.04-.04,.06-.02,.06,0,.09,.04,.11Z"/><path class="cls-1" d="M80.7,51.21s0,0,.01,0c0,0,0,0-.01,0Z"/><path class="cls-1" d="M87.49,41.98s-.07-.02-.12-.03c.04,.01,.08,.02,.12,.03Z"/><polygon class="cls-1" points="88.04 39.91 88.03 39.91 87.99 40.12 88.04 39.91"/><path class="cls-1" d="M86.79,40.43c.06,0,.05-.03,.03-.07-.02,0-.03,.03-.03,.07Z"/><path class="cls-1" d="M84.55,43.27s0,0,0,.01c.04,.04,.08,.08,.11,.1l-.11-.11Z"/><path class="cls-1" d="M83.24,44.7s-.01,0-.02,0c.03,.02,.06,.04,.02,0Z"/><path class="cls-1" d="M91.5,28.28s0,0,0,.01c.01,0,.03,0,.04,0h-.04Z"/><path class="cls-1" d="M91.56,28.37c-.06,.02-.07-.05-.07-.08-.1,0-.13,.04-.12,.1,.08,.05,.12-.04,.19-.02Z"/><path class="cls-1" d="M81.82,36.76s0-.03,0-.05c-.01,.02,0,.03,0,.05Z"/><path class="cls-1" d="M82.3,46.23s-.07-.03-.1-.04c0,0,0,0,0,0l.11,.04Z"/><path class="cls-1" d="M76.5,53.98l-.11-.05s.03,.04,.05,.05c.02,0,.04,0,.06,0Z"/><path class="cls-1" d="M80.86,47.99l-.16-.08-.06,.31s.03,.02,.04,.03c.06-.02,.12-.12,.18-.25Z"/><path class="cls-1" d="M75.57,55.01h-.02s0,0,0,0c0,0,.02,0,.02,0h0Z"/><path class="cls-1" d="M75.54,55s0,0,0,0h.01s0,0,0,0Z"/><path class="cls-1" d="M76.05,47.78c-.12,.32-.22,.64-.29,.89-.06,.24-.13,.51-.11,.57l.46-.17c-.13,.53-.28,.84-.42,1.12-.14,.28-.24,.52-.22,.86l-.06-.06c-.05,.02,.08,.11,.1,.25,.01,.07,0,.15-.08,.23-.04,.04-.09,.08-.17,.12-.04,.02-.08,.03-.13,.05-.03,.01-.04,0-.08,.03-.05,.04-.09,.07-.14,.11-.12,.09-.25,.18-.38,.29h-.03c-.03,.06,.03,.08-.13,.19,.13-.09,.26-.18,.39-.26-.03,.24,.03,.47-.04,.74-.06,.05-.14,.04-.19,.03-.06,.24-.09,.48-.09,.72-.08,.06-.17,.13-.25,.2,.13,.25,.6,.16,.38,.73,.32-.22,.24,.27,.41,.19-.04,.03-.09,.1-.14,.16,.01,.04,.03,.09,.04,.14,0,.01,.02,.03,.03,.05,.02,.02,.04,.04,.07,.03,.09,0,.19,0,.28,0,.04,0,.08,0,.11,0-.04,0,.02,0,.06,0l-.23-.04,.23,.04s0,0,0,0c.05-.02,.1-.03,.15-.07,.05-.03,.11-.08,.16-.13,.05-.09,.1-.16,.15-.23,.1-.14,.2-.25,.28-.31-.05,.33,.05,.08,.16,.02l-.09-.02c.06-.19,.28-.18,.33-.26-.02,0-.04,0-.06,0h.03s-.06,.01-.09,0c-.05,0-.08-.01-.07-.06h.02c-.03-.07,0-.2,.03-.25l.18,.03c-.13-.08-.04-.24,.17-.36,.22-.12,.5-.18,.64-.23,.05-.02,.08-.03,.1-.06,.29-.05,.15-.39,.34-.54,.07-.1,.12-.14,.17-.15,0,.06,0,.11,0,.15h0c0,.06-.05,.25-.21,.51-.11,.18-.26,.39-.5,.64-.05,.06-.16,.17-.13,.14h0s.03,.02,.05,.03l.22,.16c.14,.1,.29,.21,.46,.3l.24,.14,.27,.14c.47,.48,1.05,.9,1.72,1.19,.43,.06,.86,.07,1.29,.03,.21-.02,.43-.05,.63-.1l.31-.07,.27-.08c.72-.23,1.29-.54,1.79-.85,.02-.14,.03-.28,.04-.42,.44,.09,.74-.15,1.02-.4,.28-.26,.52-.54,.93-.6l-.18-.23c.13-.14,.24,0,.31,.01,.65-.63,1.16-1.36,1.63-2.05,.47-.69,.9-1.33,1.45-1.84,.24-.01,.37-.43,.6-.41-.03-.29,0-.54,.09-.76,.08-.22,.21-.41,.35-.62l.02,.03,.06-.23s.06,.02,.07,.04c-.1-.35,.31-.59,.55-.83l.02,.03c.44-.83,.67-1.72,.88-2.59,.07-.29,.14-.58,.21-.87,.09-.35,.17-.69,.25-1.04,.17-.7,.23-1.37,.24-2.07,.15-.72-.15-1.38-.55-1.93-.21-.28-.44-.54-.69-.79-.24-.24-.48-.48-.77-.77-.03-.2-.74-.62-1.56-.67-.41-.03-.86,.02-1.2,.09-.08,.01-.15,.03-.22,.05,.06-.1,.11-.21,.17-.29,.13-.61,.18-1.02,.36-1.62,.69-.03,.27-.9,.76-1.08l-.15-.21c.45-.04,.26-.62,.76-.76-.04-.13-.05-.19-.04-.21-.02,0-.07,0-.2-.06,.14-.04,.14-.29,.39-.13v.04c.26,.16,.06-.35,.34-.32l-.31-.11,.15-.15,.03,.08c-.16-1.11,.91-.93,.78-1.97,.24,.27-.07-.23,.26-.05,.52,.07,.11-.38,.09-.59-.02,0-.03-.02-.05-.05l.19-.23c.32,.4-.23-.39,.04-.04,.71-.48,.93-1.53,1.55-2.21l-.13-.03c.14-.18,.16-.5,.42-.55,.26-.04-.07-.49-.05-.56-.08-.27,.37-.2,.31-.14,.06-.2-.21-.6,.1-.74,.39,.14,.08-.88,.45-.61l-.03-.02c.43-.07,.28-.79,.74-1.25,0,0,.03,.02,.05,.05-.3-.55-.74-1-1.28-1.31-.49,.04-.94,.05-1.44,.02-.38,.07-.81,.03-1.2-.1,0,.02,.02,0,.03,.02,0,.01,0,.04,0,.07-.02,.08-.07,.2-.16,.37l-.07,.14-.05,.11-.1,.22-.19,.43-1.2,1.01-1.77,3.2,.16,.4c-.89,.3-.77,1.45-1.54,1.9l.25,.16c-.1,.2-.25,.09-.32,.11-.98,1.8-1.66,3.82-2.86,5.28-.26,.07-.41,.6-.66,.63,.02,.35-.04,.67-.15,.96-.11,.3-.24,.54-.41,.84l-.02-.04-.1,.33s-.06,0-.08-.03c.03,.24-.08,.5-.23,.81-.15,.31-.34,.68-.43,1.06l-.03-.05c-.03,.21-.04,.44-.03,.66-.87,1.41-1.53,2.82-2.56,4.12-.95,.74-.91,2.18-1.78,3.12-.18,.04-.48,.66-.71,1.29Zm11.39-11.58c.13,.01,.22-.02,.31-.07,.05,.05,.1,.1,.15,.15-.24,.07-.45,.11-.65,.15,.04-.08,.09-.16,.19-.23Zm-8.02,12.63h.3c.64-.18-.09-.37,.12-.46l.35-.07-.09,.19c.22-.13,.34-.17,.58-.24h0s-.03,0-.05,0v-.03c-.12-.08-.16-.22-.09-.35,.13-.17,0-.41,.42-.58l-.24-.2,.27-.15,.21,.1c-.12,.21-.23,.66-.35,.95l.1,.05c.08-.17,.07-.4,.14-.5,.07-.03,.36-.06,.46,.1l-.16-.2c.24-.56,.23-.57,.76-1.02h-.13c0-.15,0-.29,.18-.23,.21-.32,.52-.6,.91-.66l-.22-.18c.05-.06,.48,.04,.15-.18l-.03-.21c.07-.08-.03-.22,.17-.25h0s0,0,0,0c.01,0,.03,0,.04,0,0,0-.01,0-.02-.01,.23-.15-.22-.12,.06-.29,.22,.02-.26-.27-.13-.35l.42,.09c.32-.09,0-.34,.19-.64,.21-.07,.55,.05,.74,.31-.23-.33-.17-.19-.21-.45,.14,.06,.16,.09,.25,.2,.25-.05-.05-.17,.03-.28-.22-.19-.57-.48-.56-.53h-.1c-.05-.21-.01-.39,.2-.45l.12,.09,.04-.19,.16,.1,.1-.24h-.06c.02-.06,.08-.26,.23-.3l.08,.06c.08-.01,.14-.04,.18-.07,.03,0,.02,0,.05-.06,.03-.08,.07-.17,.11-.26,.06-.13,.13-.29,.22-.51,.08-.22,.18-.51,.22-.84,.06,.08,.11,.16,.16,.26,.08-.13,.1-.22,.09-.27,.04,.01,.07,.02,.09,.01,.22,.15,.28-.19,.44-.16,.19-.05,.2,.19,.33,.29,.13,.05-.1-.19-.07-.22,.07,.05,.13,.11,.19,.17-.05,.06,.02,.14,.05,.2,.1-.03,.27,.25,.23-.14,.14,.13,.15,.29,.19,.29-.02-.07-.05-.12-.06-.2,.06,.16,.02-.05,0-.08,.03-.1,.14,.04,.2,.18,.07,.13,.11,.24,.14,.01v.08c.04-.34,.04-.67,.13-.87l.02,.15,.08-.16c.02,.11-.01,.2-.02,.24,.13-.17,.22,0,.31,.04,.07-.32,.12-.63,.15-.94,.09,.21,.11,.64,.26,.33-.02,.11-.04,.21-.07,.32-.09,.62,.27-.26,.27-.06-.03,.12-.06,.25-.1,.37-.03-.01-.06-.03-.09-.03,0,.2-.04,.32-.14,.57h0s.01-.04,.03-.06h.01c.12-.17,.24-.27,.28-.22,.03,.09,.29-.08,.08,.33l.31-.27c-.04,.09-.07,.17-.11,.26l-.24,.22c-.03-.09-.22-.12-.31-.16l-.09,.12s.18-.04,.19,.02c-.03,.07-.24,.34-.41,.48l.24-.21c.11,.1,.14,.13-.12,.45l.13-.09c.08-.02,.17-.03-.05,.1-.03,.11-.2,.27-.54,.39l.31-.09s-.49,.16-.06,.05c.04,0,.09,0,.13,0-.03,.02,.14,0-.04,.06h0s0,0,0,0c-.01,0-.02,0-.04,0,0,0,.02,0,.03,0-.14,.06,.27-.03,.08,.04-.21,.03,.37,0,.29,.04-.14,.01-.29,.02-.43,.02-.25,.02,.17,.06,.14,.14-.13,.01-.4-.06-.66-.13,.09,.02,.13,.04,.15,.04,.03,.02,.05,0,.12,.07-.15-.02-.18-.05-.3-.11-.2,.05,.11,.11,.07,.19,.26,.11,.69,.29,.69,.32h.1c.11,.14,.14,.27-.03,.34l-.13-.05,.03,.14-.18-.06v.19s.05,0,.05,0c0,.05,.02,.2-.1,.24l-.09-.04c-.38,.09-.06,.41-.14,.67l-.18-.12c-.23,0,.28,.15,.14,.21l-.24-.1c.27,.23-.11,.08-.26,.08l.32,.12-.12,.08c-.16,.07-.42-.11-.57-.2l.2,.2-.27-.12c.28,.21-.08,.03,.04,.22-.1-.04-.15-.1-.21-.08l.29,.36-.11-.19,.38,.21c.24,.26-.12,.12-.05,.26l-.09-.11c.03,.17-.14,.09-.26,.12,.08,.02,.21,.04,.23,.12,0,.05-.14-.05-.21-.04,.25,.15,.33,.31,.17,.33-.04-.02-.07-.04-.09-.06,.03,.04,.09,.09,0,.09l-.27-.18,.23,.22c-.1,0,.06,.18-.12,.07l-.04-.06-.28,.33-.22-.13c.28,.22-.23,.13,.15,.34-.25-.06-.02,.36-.42,.06-.17,.21,.15,.59-.23,.74-.42-.13-.47,.2-.62,.34-.08,.42-.1,.72-.23,1.12-.6-.18-.21,.59-.63,.56l.13,.21c-.39-.13-.22,.37-.64,.27,.03,.11,.03,.16,.03,.17,.02,0,.06,.02,.16,.13-.12-.03-.12,.16-.32-.07v-.03c-.2-.22-.06,.23-.28,.09l.24,.21-.13,.04-.02-.07c.03,.43-.17,.51-.37,.55-.2,.05-.39,.07-.42,.47-.13-.33,.02,.2-.19-.11-.35-.34-.12,.2-.15,.36,0,.02,.02,.04,.03,.06-.06,.02-.11,.03-.16,.04-.14-.47,.08,.4-.03,0-.26-.06-.44,0-.6,.08-.15,.07-.24,.13-.35,.04v.12s-.16,.11-.16-.09c.02-.19-.18,.28-.22,.28-.12,.16-.05-.14-.02-.2-.04,.02-.11,.11-.19,.17-.07,.06-.15,.09-.14-.02,.1-.17-.01-.14-.14-.11-.12,.03-.25,.02-.09-.14l-.03,.03c.02-.09,.01-.14-.02-.16-.04-.04-.16-.12-.26-.16-.06-.03-.12-.06-.18-.09,.08-.08,.11-.14,0-.21l.07,.03c-.17-.1-.34-.16-.48-.23,0,0,0,0,.01,0,0,0-.01,0-.02,0-.07-.04-.13-.08-.16-.14l.15-.03-.07-.17c.12-.04,.18,.03,.21,.04-.05-.24,.22-.44,.35-.65l-.84-.07c.25-.12,.75-.32,.53-.46Z"/><polygon class="cls-1" points="75.58 55.01 75.58 55.01 75.58 55.01 75.58 55.01 75.58 55.01 75.58 55.01"/><path class="cls-1" d="M75.58,55.01s0,0,0,0c0,0,0,0,0,0h0s0,0,0,0Z"/><path class="cls-1" d="M75.51,55s-.06,0-.09,0c-.02,0-.05,0-.08,0,.01,0,.03,0,.07,0,.05,0,.08,0,.11,.01h.05s0,.01,0,.01h0s0,0,0,0h0s0,0,0,0h0s-.05-.01-.05-.01c0,0,0,0,0,0h-.02s0,0,0,0l-.11-.02s0,0,0,0l.11,.02Z"/><path class="cls-1" d="M74.52,52.77v-.02c-.12-.03-.08,0,0,.02Z"/><polygon class="cls-1" points="79.74 49.35 79.73 49.36 79.92 49.38 79.74 49.35"/><path class="cls-1" d="M74.67,54.78c.01,.13,.08,.07,.15-.01-.04-.12-.06-.21-.06-.21-.02,.07-.07,.15-.09,.22Z"/><path class="cls-1" d="M76.31,54.25l.11,.02s-.07-.05-.11-.02Z"/><path class="cls-1" d="M97.32,48.63s0,0,0,0c.05,.03,.1,.05,.13,.07l-.13-.08Z"/><path class="cls-1" d="M96.62,49.32s-.01,0-.02,0c.03,.01,.07,.03,.02,0Z"/><path class="cls-1" d="M97.65,46.48s.02,.02,.02,.03c0,0,0-.02-.02-.03Z"/><path class="cls-1" d="M100.01,41.89s0,0,0,0c.01,0,.02,0,.04,.01l-.04-.02Z"/><path class="cls-1" d="M100.09,41.96s-.07-.05-.07-.06c-.08-.03-.1-.01-.08,.03,.08,.05,.09,0,.15,.04Z"/><path class="cls-1" d="M96.22,50.07s-.08-.03-.1-.04h0s.11,.04,.11,.04Z"/><path class="cls-1" d="M92.64,53.4l-.1-.03s.02,.02,.05,.03c.02,0,.04,0,.06,0Z"/><path class="cls-1" d="M95.21,50.92s.03,.01,.05,.02c.05,0,.08-.05,.1-.11l-.17-.07,.02,.16Z"/><path class="cls-1" d="M95.5,40.84c-.45,.88-.58,1.94-1.31,2.55-.21-.01-.23,.27-.44,.23,.2,.42,.06,.68-.1,.92l-.02-.02v.15s-.06-.02-.08-.03c.17,.25-.16,.35-.34,.47l-.02-.02c-.5,.96-.39,2.09-1.17,2.91-.64,.28-.22,1.06-.8,1.44-.31,0-.5,1.14-.4,1.28h.38c.02,.45-.39,.51-.23,.95l-.07-.04s.12,.09,.15,.19c.02,.05,0,.11-.08,.17-.05,.03-.11,.05-.2,.1-.1,.07-.23,.15-.39,.24h-.03s.01,.02,.02,.04c0,.01-.01,.03-.07,.05l.1-.04,.17-.07s.05,.09,.08,.14c.05,.08,.11,.16,.1,.25-.05,.02-.12,.01-.18,0,0,.11-.01,.23,0,.34l-.24,.08c.12,.12,.61,.12,.33,.36,.34-.08,.21,.14,.38,.11-.04,.01-.1,.04-.16,.06,.02,.08,.06,.19,.12,.28,.01,.02,.03,.05,.05,.05h.05c.05,0,.11,0,.17,0-.09,0,0,0,.07-.01,.07,0,.17-.08,.28-.15,.21-.15,.48-.28,.66-.33-.09,.15,.04,.04,.16,.02l-.09-.02c.08-.08,.3-.06,.36-.09-.02,0-.04,0-.06,0h.03s-.06,0-.09,0c-.05,0-.08-.01-.07-.03h.02s.01-.09,.03-.11l.18,.03c-.2-.07,.08-.17,.33-.21,.16-.03,.32-.05,.33-.07,.24,.01,0-.18,.14-.23,.1-.13,.27,.01,.45-.01,.14-.05-.2-.05-.2-.09l.27-.03c0,.07,.11,.07,.18,.08,.06-.08,.42-.12,.1-.27,.21-.07,.34-.02,.38-.07-.07,0-.14,.01-.21-.01,.17,0-.03-.04-.07-.03-.12-.13,.76-.18,.39-.33l.07,.02c-.27-.12-.55-.18-.68-.29h.14s-.1-.09-.1-.09c.1,0,.17,.04,.2,.05-.1-.13,.1-.2,.18-.3l-.79-.16c.21-.03,.62-.06,.39-.17l.27,.04c.55,0-.16-.2,0-.22h.31s-.04,.1-.04,.1c.17-.04,.28-.04,.48-.04h0s-.03,0-.04-.01v-.02c-.13-.06-.21-.14-.18-.2,.07-.08-.1-.22,.24-.25l-.27-.14,.21-.04,.22,.09c-.05,.1-.05,.33-.08,.47l.1,.04c.03-.08-.03-.21,0-.25,.05,0,.31,.02,.44,.12l-.2-.13c.08-.27,.07-.28,.43-.46l-.12-.02c-.04-.08-.09-.16,.1-.1,.1-.15,.31-.26,.63-.26l-.25-.13s.44,.08,.09-.09l-.08-.12s-.1-.13,.07-.12h0s0,0,0,0c.01,0,.02,0,.03,0,0,0-.01,0-.02,0,.16-.06-.23-.1-.03-.16,.2,.04-.31-.18-.23-.22l.4,.1c.26-.02-.11-.19-.04-.35,.16-.02,.5,.08,.76,.25-.31-.21-.21-.13-.33-.28,.15,.05,.17,.07,.29,.14,.2,0-.11-.1-.07-.16-.26-.13-.67-.33-.67-.36h-.09c-.11-.14-.15-.24,.02-.25l.13,.06-.03-.11,.17,.07v-.14s-.06,0-.06,0c-.01-.04-.03-.15,.08-.16l.09,.04c.35,0,.02-.29,.07-.47l.18,.11c.21,.03-.29-.15-.16-.17l.23,.1c-.28-.2,.1-.05,.23-.03l-.31-.12,.1-.05c.14-.04,.41,.13,.56,.21l-.21-.17,.27,.11c-.29-.19,.07-.02-.06-.17,.1,.04,.15,.09,.21,.08l-.32-.29,.13,.15-.39-.19c-.26-.21,.09-.08,0-.18l.1,.09c-.05-.13,.11-.06,.22-.06-.08-.02-.2-.05-.23-.11,0-.04,.14,.05,.2,.05-.26-.13-.37-.26-.22-.26,.04,.02,.07,.04,.09,.05-.04-.03-.1-.07-.02-.07l.28,.15-.25-.18c.09,0-.09-.14,.1-.04l.05,.05,.19-.21,.23,.11c-.31-.18,.19-.07-.21-.26,.24,.06-.06-.25,.37,0,.11-.14-.27-.44,.04-.52,.41,.12,.38-.12,.49-.22-.03-.32-.09-.54-.08-.85,.6,.14,.02-.45,.4-.44l-.18-.16c.38,.08,.07-.3,.47-.26-.07-.09-.09-.12-.09-.13-.01,0-.06-.01-.19-.08,.11,.01,.05-.14,.3,.02l.02,.03c.25,.16-.05-.19,.2-.11l-.29-.14,.09-.05,.04,.05c-.41-.7,.54-.32,.19-.97,.27,.23-.12-.16,.21,.04,.45,.18,0-.2-.06-.33-.02-.01-.03-.02-.06-.04l.11-.09c.36,.33-.28-.3,.02-.01,.48-.09,.43-.66,.79-.9l-.11-.06c.08-.07,.03-.26,.23-.2,.2,.05-.16-.32-.16-.35-.12-.19,.26,0,.23,0,0-.11-.3-.43-.08-.42,.35,.21-.12-.51,.25-.24l-.03-.02c.35,.07,0-.38,.34-.34,0,0,.02,.02,.05,.05l-.88-1.14-1.27-.86-1.19-.49c-.11,.3-.23,.59-.33,.89l-.82,.31c-.29,.52-.59,1.04-.85,1.57l.22,.29c-.7-.03-.34,.72-.9,.81l.25,.16c-.04,.1-.19,0-.25,0Z"/><path class="cls-1" d="M90.58,52.69h0c-.12-.03-.08-.01,0,0Z"/><polygon class="cls-1" points="94.64 51.4 94.64 51.4 94.81 51.44 94.64 51.4"/><path class="cls-1" d="M94.26,52.78c.06-.05,.03-.06-.02-.07-.01,.02-.01,.04,.02,.07Z"/><path class="cls-1" d="M90.73,53.64c0,.06,.07,.04,.15,0-.02-.06-.03-.1-.03-.1-.03,.03-.09,.06-.12,.09Z"/><path class="cls-1" d="M92.42,53.51l.1,.02s-.06-.03-.1-.02Z"/><path class="cls-1" d="M48.57,49.72s0,0,0,0c.05,.03,.09,.07,.12,.09l-.12-.09Z"/><path class="cls-1" d="M47.8,50.31s-.01,0-.02,0c.03,.02,.06,.03,.02,0Z"/><path class="cls-1" d="M49.33,47.17s.02,.02,.02,.03c0,0,0-.02-.02-.03Z"/><path class="cls-1" d="M47.36,50.99s-.07-.03-.1-.04h0s.11,.04,.11,.04Z"/><path class="cls-1" d="M43.29,54.36l-.1-.04s.02,.02,.05,.03c.02,0,.04,0,.06,0Z"/><path class="cls-1" d="M46.29,51.87s.03,.02,.05,.02c.05,0,.09-.05,.11-.12l-.16-.07v.17Z"/><path class="cls-1" d="M46.6,41.06c-.18,.37-.25,.61-.57,1.32-.04,.14-.09,.27-.13,.41-.05,.13-.09,.27-.08,.41,0,.14,0,.28,0,.43,0,.11,0,.23-.01,.34,0,.24-.08,.39-.23,.52-.2,0-.13,.17-.34,.15,.3,.27,.21,.48,.09,.65l-.03-.02s0,.08,0,.12c-.02,0-.06-.02-.08-.03,.18,.22-.13,.28-.31,.36l-.02-.02c-.48,.77-.64,1.96-1.59,2.97-.7,.34-.34,1.21-.94,1.59-.16,0-.3,.28-.38,.57-.08,.29-.12,.57-.07,.64l.38,.05c-.02,.43-.41,.4-.31,.82l-.06-.05s.06,.07,.1,.16c.02,.04,.03,.09,0,.13-.04,.06-.14,.15-.31,.24-.14,.07-.33,.16-.55,.27h-.03s.06,.05-.07,.09l.29-.1c.04,.14,.16,.28,.12,.41-.05,.02-.13,0-.18-.01-.02,.11-.04,.24-.04,.36l-.25,.06c.11,.14,.6,.17,.31,.41,.34-.06,.2,.16,.38,.15-.04,0-.11,.03-.16,.05,.04,.16,.17,.5,.35,.53,0,0,.04-.03,.11-.07,.07-.06,.16-.13,.27-.2,.22-.14,.48-.26,.66-.29-.09,.15,.04,.05,.16,.03l-.09-.02c.08-.08,.29-.04,.35-.07-.02,0-.04,0-.06,0h.03s-.06,0-.08,0c-.05,0-.08-.02-.07-.04h.02s.01-.09,.03-.12l.17,.04c-.16-.07,0-.15,.24-.17,.23-.03,.48-.02,.51-.05,.08,.01,.11,0,.12-.02,.02-.05-.04-.14,.06-.16,.14-.12,.27,.05,.45,.05,.15-.04-.19-.08-.18-.13h.28c-.02,.08,.1,.1,.17,.12,.08-.09,.47-.11,.16-.31,.23-.07,.35,0,.4-.06-.07,0-.14,0-.21-.02,.17,.01-.02-.04-.06-.04-.1-.15,.81-.18,.46-.37l.07,.03c-.26-.14-.53-.23-.65-.36h.14s-.09-.1-.09-.1c.11,0,.17,.05,.2,.07-.08-.15,.13-.22,.22-.33l-.79-.2c.21-.02,.63-.05,.4-.17l.27,.05c.56,0-.15-.22,.03-.24l.31,.02-.05,.1c.18-.04,.28-.04,.49-.05h0s-.03,0-.04-.01v-.02c-.13-.07-.2-.16-.16-.22,.08-.08-.09-.24,.26-.27l-.26-.15,.21-.04,.22,.09c-.06,.1-.06,.35-.11,.5l.1,.04c.04-.09-.02-.23,.02-.27,.06,0,.31,.02,.44,.13l-.19-.14c.09-.29,.08-.3,.45-.46l-.12-.03c-.04-.08-.08-.17,.11-.1,.11-.14,.32-.24,.64-.2l-.24-.15s.43,.12,.09-.07l-.08-.12s-.09-.13,.08-.1h0s0,0,0,0c.01,0,.02,0,.03,0,0,0-.01,0-.02-.01,.16-.03-.22-.12-.02-.15,.19,.06-.29-.21-.2-.24l.38,.14c.26,.01-.09-.2,0-.35,.17,0,.48,.14,.72,.34-.28-.25-.19-.15-.29-.33,.14,.06,.16,.09,.27,.18,.2,.02-.09-.12-.05-.17-.23-.17-.61-.42-.62-.45l-.09-.02c-.09-.14-.11-.25,.06-.25l.12,.08v-.12s.15,.09,.15,.09l.02-.15h-.05c0-.05,0-.17,.11-.18l.09,.05c.37,0,.08-.33,.16-.53l.17,.13c.22,.04-.27-.18-.13-.2l.22,.12c-.25-.24,.11-.05,.25-.04l-.31-.14,.11-.05c.15-.05,.41,.14,.55,.24l-.19-.2,.27,.13c-.27-.22,.08-.03-.03-.21,.1,.05,.15,.1,.21,.09l-.29-.35,.11,.18-.38-.21c-.24-.25,.11-.11,.04-.24l.09,.11c-.04-.16,.13-.09,.25-.11-.08-.01-.21-.04-.23-.11,0-.04,.15,.05,.21,.04-.26-.13-.35-.28-.19-.3,.04,.02,.07,.04,.09,.05-.03-.04-.1-.08-.02-.09l.28,.16-.25-.2c.1,0-.08-.17,.11-.08l.05,.05s.06-.09,.09-.14c.09,.08,.15,.12,.1-.05l.02,.07s-.03-.09-.05-.14c.02-.02,.03-.04,.05-.07l.24,.09c-.31-.17,.21-.16-.21-.3,.12,0,.11-.07,.12-.13l.09,.15-.08-.15h0c0-.06,.04-.1,.27,0,.01-.03,.02-.06,.02-.09,.09,.08,.16,.15,.28,.26h0s-.02-.03-.03-.04h0c-.07-.14-.09-.24-.05-.26,.08,0,0-.2,.25,0l-.15-.26,.16,.1,.14,.19c-.07,.03-.13,.19-.22,.26l.06,.09c.05-.03,.05-.16,.1-.16,.04,.03,.23,.2,.29,.36l-.1-.21c.16-.14,.14-.15,.48-.08l-.09-.08c-.01-.08-.03-.16,.11-.02,.13-.05,.32-.03,.6,.12l-.19-.21s.34,.28,.07,0l-.06-.11s-.07-.13,.06-.03h0s0,0,0,0c0,0,.02,.01,.03,.02l-.02-.02c.13,.05-.18-.18-.02-.11,.15,.13-.24-.27-.17-.24l.31,.26c.2,.13-.08-.17-.02-.22,.13,.07,.39,.3,.58,.54-.24-.29-.16-.18-.25-.34,.11,.1,.13,.13,.22,.23,.16,.1-.08-.11-.05-.13-.2-.21-.51-.54-.52-.56l-.07-.05c-.09-.13-.11-.21,.02-.13l.1,.1-.02-.08,.13,.13v-.08s-.04-.03-.04-.03c0-.03-.02-.1,.06-.05l.07,.07c.28,.17,.02-.16,.05-.24l.14,.15c.17,.13-.22-.23-.13-.18l.18,.18c-.22-.26,.08,.02,.18,.1l-.25-.23,.08,.02c.11,.05,.32,.28,.44,.4l-.17-.21,.22,.2c-.23-.26,.05,.02-.05-.13,.08,.08,.12,.13,.17,.15l-.26-.33,.11,.16-.31-.31c-.21-.26,.07,0,0-.11l.08,.1c-.04-.1,.09,.02,.18,.07-.06-.05-.16-.13-.19-.18,0-.03,.11,.1,.16,.13-.21-.2-.29-.33-.18-.26,.03,.03,.06,.06,.08,.08-.03-.04-.08-.09-.02-.05l.23,.23-.2-.23c.08,.05-.08-.13,.08,.02l.04,.05,.14-.04,.19,.18c-.25-.25,.15,.04-.18-.26,.19,.15-.06-.18,.29,.17,.03-.01,0-.07-.02-.14,.05-.04,.09-.07,.13-.09,.08,.05,.13,.08,.16,.08-.03,.02-.05,.04-.07,.05,.05-.01,.11-.06,.08,.03l-.26,.21,.27-.15c-.04,.11,.17,0,0,.15l-.06,.02c.05,.12,.1,.25,.17,.37l-.17,.2c.26-.24,.06,.27,.34-.09-.1,.24,.31,.07-.02,.43,.19,.21,.57-.1,.73,.26-.11,.43,.27,.44,.45,.54,.48-.05,.79-.17,1.24-.29,.06,.31,.24,.24,.42,.15,.18-.09,.35-.23,.48-.08l.09-.25c.08,.18,.2,.14,.33,.09,.13-.05,.26-.09,.41,.07,.06-.12,.08-.16,.1-.17-.01,0-.04-.05-.06-.2,.08,.09,.21-.08,.25,.21v.04c.02,.3,.19-.2,.32,.03l-.11-.3s.1,0,.15,0l-.02,.07c.21-.45,.42-.43,.65-.44,.11,0,.22,0,.32-.05,.08-.05,.14-.14,.16-.33,.1,.34,0-.2,.17,.14,.32,.37,.13-.19,.14-.34,0-.02-.02-.04-.03-.06l.15-.03c.16,.46-.1-.4,.03,0,.52,.11,.75-.47,1.18-.58l-.09-.09c.1-.04,.12-.24,.3-.13,.18,.11-.05-.35-.04-.39-.06-.22,.26,.07,.22,.07,.03-.1-.17-.5,.04-.43,.29,.29,0-.52,.3-.17l-.02-.03c.33,.15,.08-.36,.4-.24,0,0,.01,.02,.02,.04-.27,.63-.5,1.26-.75,1.89-.13,.32-.25,.65-.38,.98-.13,.35-.24,.55-.46,1.21-.26,.51-.43,1.1-.5,1.68-.07,.58-.04,1.16,.06,1.7,.21,1.08,.65,2.02,1.19,2.98,.01,.13,.21,.43,.57,.74,.36,.31,.9,.61,1.48,.77,.58,.16,1.18,.18,1.63,.1,.46-.07,.77-.19,.86-.26-.16-.08-.3-.19-.44-.28,.71-.23,1.23-.41,1.72-.67,.49-.26,.97-.58,1.43-1.23l-.02,.13c.1-.04,.07-.26,.27-.57,.1-.16,.26-.34,.52-.56,.13-.11,.3-.24,.5-.39,.1-.07,.2-.14,.32-.23,.06-.05,.11-.07,.16-.09,.01,0,.02-.01,.04-.02,.05,.43,.07,.87,.36,1.27,.14,.03,.31,.06,.59,0,.26-.06,.59-.27,.8-.52,.1-.12,.2-.26,.25-.36,.03-.06,.06-.11,.09-.17l.07-.14,.1-.25,.08-.21c.08-.33,.19-.22,.29-.26,.1-.03,.2-.03,.31-.06-.05-.12-.04-.52-.11-1.17-.03-.23-.07-.5-.16-.79,.17-.23,.33-.43,.5-.64,.45-1.25,.92-2.45,1.46-3.59l-.18-.4c.3-.12,.48-.33,.62-.57,.07-.12,.13-.25,.19-.38l.09-.19,.23-.39c.06-.13,.13-.25,.19-.38,.03-.06,.09-.12,.08-.19,.03-.06,.07-.12,.09-.19,.11-.26,.19-.52,.29-.78l-.29-.08c.02-.44,.19-.4,.25-.51,0-.13,0-.28,0-.39l-.02-.27c-.01-.18-.03-.36-.06-.54-.05-.36-.11-.71-.21-1.14-.03-.12-.05-.21-.1-.36-.05-.15-.08-.26-.19-.5-.05-.11-.07-.17-.22-.41-.06-.1-.13-.2-.21-.29l-.06-.07-.03-.03h-.01s-.04-.06-.04-.06c-.12-.12-.24-.24-.39-.35-.28-.22-.6-.41-.93-.55-.33-.13-.65-.21-.95-.26-.58-.08-1.02-.05-1.36-.03l-.24,.02-.3,.03c-.21,.02-.41,.05-.62,.09-.82,.15-1.59,.43-2.27,.73-.17-.01-.43,.13-.66,.27-.23,.14-.45,.28-.59,.27-.23,.42-.49,.79-.74,1.09-.25,.3-.52,.57-.79,.83v-.04c-.07,.1-.14,.2-.2,.3-.03,0-.06-.03-.07-.05-.07,.47-.67,.78-1.06,1.11v-.04c-.92,1.13-1.55,2.4-2.09,3.68,0,.01-.01,.03-.02,.04l-.63-1.25-1.05-1.11-1.01-.77-.03,.06-.11-.07c-.01-.1-.08-.27-.04-.33,.03,.02,.08,.08,.12,.13l.1-.15,.18,.16c-.03-.13-.34-.52-.07-.37-.24-.25-.07-.21-.18-.34,.03,.03,.08,.07,.12,.11,.04-.08,.11-.25,.04-.41,0,0-.68-.39-.97-.64,.15,0,0-.05-.09-.13l.04,.07c-.1-.03-.23-.2-.3-.23,.01,.01,.02,.03,.04,.05v-.03s.03,.05,.04,.07c.03,.04,.05,.07,.02,.07v-.02s-.08,.04-.1,.04l-.11-.15c.16,.31-.59-.22-.65-.18-.19-.14-.09,.14-.23,.1-.15,.04-.21-.17-.36-.25-.14-.04,.14,.16,.12,.19l-.24-.14c.04-.05-.06-.12-.11-.17-.09,.03-.41-.14-.21,.16-.2-.06-.29-.17-.35-.15,.05,.04,.12,.06,.16,.12-.14-.09,0,.05,.04,.06,.04,.17-.72-.27-.49,.06l-.04-.06c.17,.24,.37,.45,.43,.61l-.11-.08,.04,.13c-.09-.05-.12-.12-.15-.15,.02,.16-.18,.11-.29,.15l.6,.54c-.18-.09-.55-.27-.4-.06l-.22-.17c-.47-.27,.05,.25-.11,.18l-.26-.16,.07-.06c-.17-.05-.26-.1-.44-.19h0s.02,.02,.04,.03h0c.09,.13,.12,.24,.06,.27-.1,.03,0,.24-.33,.11l.18,.24-.2-.05-.16-.17c.09-.07,.18-.28,.28-.38l-.07-.08c-.06,.06-.06,.2-.12,.22-.05-.02-.27-.15-.35-.3l.12,.21c-.2,.23-.18,.22-.6,.27l.11,.06c-.01,.11-.03,.22-.19,.11-.2,.16-.48,.27-.82,.27-.1-.06-.21-.12-.31-.17-.1,.04-.19,.09-.29,.13-.15-.31-.29-.62-.42-.95-.34-.38-.68-.76-1.03-1.14-.36-.24-.73-.48-1.1-.71-.24,.32-.46,.65-.66,.98-.33,.1-.65,.21-.97,.34-.44,.6-.82,1.21-1.15,1.81l.21,.31c-.73,0-.4,.8-.98,.94l.25,.16c-.04,.11-.2,0-.26,0Zm24.3,9.52s0-.02,0,0c0,0,0,0,0,0Zm-.23,.54c0-.08,0-.16-.01-.22,.03,0,.05,0,.07,0,0,0,0,.01-.01,.02,.01,.06,.02,.12,.03,.17l-.07,.02Zm3.23-13.15h0s-.02,.03-.02,.03c-.01,.01-.03,.02-.04,.03,.02-.01,.04-.03,.07-.06h0Zm-.07,.06s0,0,0,0c.12-.1,.17-.15,.18-.16-.02,.02-.12,.11-.18,.16Zm-9.28,11.22l.26-.15c-.01,.15,.13,.31,.2,.44l.11-.11c-.03-.08-.17-.08-.16-.16,.04-.08,.31-.33,.49-.41-.09,.05-.17,.1-.26,.14-.05-.21-.05-.27,.27-.56l-.13,.05c-.07-.03-.13-.07,.08-.11,.07-.14,.25-.24,.56-.22-.09-.03-.17-.08-.26-.12,.04-.08,.48-.08,.11-.23l-.07-.21c.06-.1-.07-.22,.12-.3h0s0,0,0,0c.01,0,.02,0,.04-.01,0,0-.02,0-.02,0,.2-.21-.24-.08,.01-.31,.22-.02-.3-.22-.19-.34h.43c.31-.16-.05-.35,.1-.7,.21-.11,.56-.05,.79,.18-.27-.3-.19-.16-.26-.44,.15,.03,.17,.07,.28,.17,.24-.1-.07-.16,0-.29-.24-.16-.63-.41-.62-.46h-.11c-.07-.2-.05-.39,.17-.49l.12,.07,.03-.21,.17,.08c.03-.09,.06-.18,.09-.27h-.06c.01-.06,.07-.28,.21-.34l.09,.06c.45-.13,.25-.59,.46-.96l.14,.16c.25,0-.25-.22-.06-.29l.22,.14c-.19-.31,.17-.11,.33-.12l-.3-.16,.17-.11c.22-.1,.42,.15,.54,.28l-.13-.27,.25,.16c-.21-.29,.11-.05,.07-.3,.1,.06,.12,.13,.19,.12l-.14-.49,.03,.25-.32-.29c-.13-.35,.2-.17,.19-.35l.04,.15c.06-.24,.21-.12,.36-.16-.09-.02-.22-.06-.2-.16,.03-.07,.14,.07,.21,.06-.21-.2-.22-.43-.02-.44,.03,.03,.06,.06,.07,.08,0-.06-.05-.12,.04-.12l.21,.25-.14-.3c.12,0,.03-.25,.18-.09v.08c.17-.14,.34-.26,.5-.39l.19,.18c-.2-.3,.31-.12,0-.43,.24,.11,.18-.39,.46,.02,.14-.09,.16-.25,.21-.39,.05-.14,.13-.27,.33-.24,.31,.31,.46,.08,.62,.09,.11-.13,.22-.23,.35-.32,.02-.02,.09-.05,.16-.07,.03-.01,.07-.03,.1-.04-.08,.11,.04,.29-.25,.28l-.03-.02c-.15,0-.11,.07-.07,.14,.04,.02,.08,.05-.04,.05,.11,0,.21,.01,.32,.01l-.06,.05-.06-.02c.13,.06,.2,.14,.22,.2,.02,.06-.03,.1-.07,.12-.02,.01-.04,.02-.06,.03,0,0-.01,0-.01,0,0,0,0-.01-.01,0l-.06,.07c-.08,.09-.17,.18-.23,.28-.14,.2-.24,.45-.21,.82-.24-.29,.06,.26-.28,.09-.54,0-.14,.47-.12,.71,.02,0,.03,.02,.06,.04l-.21,.3c-.33-.41,.24,.41-.04,.05-.75,.69-.92,1.95-1.48,2.86h.13c-.13,.24-.11,.61-.37,.72-.26,.12,.13,.53,.11,.61,.02,.04,.02,.1,.02,.11,0,.04-.08,.04-.15,.04-.06,0-.11,0-.12-.02-.02,.13-.04,.39-.03,.81,0,.22,.04,.48,.11,.73,.03,.1,.06,.19,.09,.28-.02,0-.03,0-.05,0,.01,.01,.03,.03,.04,.04v-.03s0,.01,0,.02c0,0,0,.02,0,.03,0,0-.01,0-.02-.01l.04,.1s0-.01,0-.02c0,.01,0,.02,.01,.04,0,0,0,0,0,0v-.02c-.04,.07-.16,.14-.21,.18l-.13-.12c.08,.17-.17,.25-.46,.36-.29,.12-.61,.19-.65,.24-.26-.02-.17,.32-.37,.4-.23,.19-.26-.1-.43-.14-.17,.02,.14,.17,.1,.23-.09-.02-.18-.06-.26-.09,.06-.1-.03-.16-.08-.22-.13,.09-.38-.15-.3,.29-.2-.08-.22-.27-.28-.25,.03,.07,.08,.11,.1,.2-.09-.16-.02,.07,.01,.1-.03,.13-.19,.02-.29-.1-.11-.12-.17-.24-.2,.05v-.1c-.05,.43-.04,.83-.15,1.1l-.04-.17c-.04,.07-.08,.14-.12,.21-.04-.12,.01-.25,.02-.3-.18,.24-.35,.01-.49-.08-.08,.41-.14,.83-.17,1.23-.07-.14-.13-.37-.19-.53-.06-.15-.11-.24-.22-.06,.03-.15,.06-.29,.1-.44,.05-.45,0-.4-.12-.29-.1,.11-.24,.3-.22,.15,.05-.17,.1-.33,.16-.5,.02,.04,.06,.08,.09,.12,.04-.3,.1-.46,.24-.76h0s-.02,.05-.04,.07h-.01c-.15,.15-.28,.2-.31,.11,0-.15-.27-.08,.03-.54-.11,.06-.22,.12-.34,.17,.06-.1,.12-.2,.18-.29Zm-7.23-7.34s-.01,.09-.02,.13c-.05,0-.09-.04-.05-.18,.04-.08,.06-.11,.06-.14,0,.07,0,.13,0,.19Zm-.06,.35s0,0,0,0c0,0,0-.02,0-.03,0-.02,0-.04,.02-.05,0,0,0,0,0,0,0,.02,0,.04-.01,.06v.03Zm.75-.46s0,0,.02,0v.03s0-.01-.02-.02Zm1.2-1.51l.03,.07c.08,.04-.37-.6,.56-.13l-.33,.57c-.24-.01-.48-.03-.71-.06-.04,.04-.07,.07-.11,.1h0c.16-.34,.5-.15,.56-.55Zm-1.95,1.28l.03-.02s.02,.07,.03,.12c-.18,.19-.2,.14-.18,.09l.03-.02-.05,.03s.05-.04,.07-.06c-.23,.17-.02-.06,.08-.13Zm-7.09,4.61s0,0,0-.01h0s0,.01,0,.01Zm3.13-1.38s-.02,.04-.04,.07c-.02-.04-.01-.07,.04-.07Zm0,.16s-.02-.04-.03-.07c.03-.03,.05-.06,.08-.08,.02,.01,.03,.02,.04,.03-.03,.03-.07,.07-.09,.11Z"/><path class="cls-1" d="M41.29,53.45h0c-.12-.04-.08-.02,0,0Z"/><polygon class="cls-1" points="45.67 52.39 45.67 52.4 45.84 52.44 45.67 52.39"/><path class="cls-1" d="M45.04,53.96c.07-.05,.05-.06,0-.08-.02,.02-.02,.05,0,.08Z"/><path class="cls-1" d="M41.38,54.46c0,.06,.07,.04,.15,.02-.02-.06-.02-.11-.02-.11-.03,.03-.1,.06-.13,.09Z"/><path class="cls-1" d="M43.08,54.47l.1,.03s-.06-.03-.1-.03Z"/><path class="cls-1" d="M52.5,46.14h0s.08,.08,.1,.11l-.1-.11Z"/><path class="cls-1" d="M51.93,46.18s0,0-.01,0c.03,.03,.05,.05,.01,0Z"/><path class="cls-1" d="M51.49,46.47s-.05-.06-.08-.08h0s.08,.08,.08,.08Z"/><path class="cls-1" d="M50.44,46.46s.02,.03,.02,.05c.04,.03,.07,.02,.11,0l-.09-.15-.04,.11Z"/><path class="cls-1" d="M53.54,45.01s-.03,0-.03,0c0,.01,.02,0,.03,0Z"/><path class="cls-1" d="M60.2,45.35s0,0,0,0c0,0,.02,.01,.03,.03l-.03-.03Z"/><path class="cls-1" d="M60.23,45.45s-.04-.08-.03-.09c-.06-.06-.09-.05-.09,0,.04,.08,.08,.05,.12,.1Z"/><path class="cls-1" d="M54.05,39.01s.06,.05,.09,.07h0s-.09-.07-.09-.07Z"/><path class="cls-1" d="M58.71,38.07l.05,.09s0-.03-.01-.05c-.01-.01-.02-.03-.04-.04Z"/><path class="cls-1" d="M55.4,38.59s-.02-.03-.03-.04c-.05-.02-.09,0-.14,.05l.12,.14,.05-.15Z"/><path class="cls-1" d="M59.79,39.94h0c.07,.1,.05,.06,0,0Z"/><polygon class="cls-1" points="56.11 38.46 56.12 38.46 55.99 38.34 56.11 38.46"/><path class="cls-1" d="M57.1,37.54c-.07,0-.06,.03-.02,.07,.02,0,.03-.03,.02-.07Z"/><path class="cls-1" d="M60.02,39.48s-.02-.06-.09-.12c-.02,.03-.03,.05-.03,.05,.03,.01,.08,.06,.12,.07Z"/><path class="cls-1" d="M58.92,38.17l-.05-.09s.02,.06,.05,.09Z"/></g></g></svg>