<?xml version="1.0" encoding="UTF-8"?><svg id="Layer_2" xmlns="http://www.w3.org/2000/svg" viewBox="0 0 572.96 147.63"><defs><style>.cls-1{fill:#afc746;}</style></defs><g id="Layer_2-2"><g><path class="cls-1" d="M355.28,6.31c-.23,.13-.29,.26,0,0h0Z"/><path class="cls-1" d="M360.2,50.44c.04-.06,.06-.09,.1-.15-.09-.22-.16-.42-.2-.59l.1,.74Z"/><path class="cls-1" d="M378.7,27.55c.06-.04,.1-.07,.15-.11-.1-.06-.18-.16-.15,.11Z"/><path class="cls-1" d="M320.65,49.5s.03-.07,.06-.12c-.09,.07-.17,.14-.28,.2l.22-.08Z"/><path class="cls-1" d="M320.88,48.68s-.1,.04-.19,.14c.06-.02,.12-.07,.19-.14Z"/><path class="cls-1" d="M320.88,48.68c.15-.03-.08,.49-.17,.7,.62-.45,1.03-1.04,1.33-1.72-.22-.14-.77,.68-1.15,1.02Z"/><path class="cls-1" d="M336.87,113.33c-.1,.16-.22,.33-.32,.48,.2-.22,.29-.37,.32-.48Z"/><path class="cls-1" d="M282,121.74l-.37-.37c.12,.22,.24,.32,.37,.37Z"/><path class="cls-1" d="M397.2,6.79c.11,.1,.24,.14,.37,.16,.03-.02,.05-.04,.06-.05l-.43-.11Z"/><path class="cls-1" d="M358.47,122.18c.06,0,.13,0,.2-.02l-.2-.61c-.04,.28-.04,.49,0,.64Z"/><path class="cls-1" d="M403.03,34.55c.04,.05,.04,.16,.1,.19,.42-.49,1.19-1.97,2.11-3.9l-.48-.38-1.72,4.09Z"/><path class="cls-1" d="M290.47,103.06c.03-.08,.06-.17,.09-.25-.07,.12-.1,.2-.09,.25Z"/><path class="cls-1" d="M372.87,93.85c1.53-2.59-.88,.28-.45-.84l2.2-2.94c-.77,1.93,.02,1.04,.38,.79,1.33-2.79,4.34-6.77,3.64-8.13,2.26-3.55,2.71-3.35,3.51-4.95-.45,.45-1.13,1.44-1.36,1.35,1.18-1.29,.22-.78-.18-.21,.58-2.55,7.62-11.03,6.67-12.08l.22,.1c-.63-.96-1.91-.52-1.62-2.36l.91-.88,.4-1.8c.81-.94,.79-.3,.9-.24,.87-2.83,3.14-6.26,4.83-9.38l-4.06,2.19c1.87-2.42,5.39-6.7,4.87-7.62l1.6-1.21c4.2-4.62,1.18-4.09,2.71-6.01l2.22-2.27-1.34,2.68c1.77-2.47,2.59-3.41,4.23-5.28,0,0,0-.03-.01-.04-.11,.13-.2,.21-.26,.2l.16-.39c-.28-.54,.11-2.1,1.07-3.99,1.44-2.66,1.82-5.07,4.82-9.03l-.4-1.52,2.05-3.11,.73,.32c-1.49,3.34-4.1,9.51-6.06,13.62l.29,.23c1.18-2.43,2.2-5.36,3.04-6.96,.46-.65,1.88-2.07,2.02-1.12v-1.45c1.88-4.2,2.77-6.36,3.77-8.81,.25-.63,.5-1.26,.78-2.09,.14-.42,.28-.87,.43-1.52,.03-.17,.07-.34,.11-.52,.03-.23,.06-.46,.09-.7,.03-.26,.04-.66,.04-.99,0-.19-.03-.53-.06-.79-.04-.29-.05-.48-.21-1.02-.07-.23-.14-.46-.23-.69l-.14-.34-.07-.16-.13-.25c-.39-.71-.85-1.32-1.51-1.92-.37-.33-.79-.62-1.24-.87-.43-.25-.95-.46-1.29-.56-.39-.12-.8-.21-1.21-.26-.38-.06-.9-.07-1.08-.06-.5,.01-1.01,.08-1.5,.19-.34,.08-.59,.16-.88,.26l-.42,.16-.26,.12-.52,.25c-.31,.16-.5,.28-.75,.43-.19,.12-.38,.24-.57,.37-.23,.15-.47,.31-.71,.47-.87,.58-1.82,1.25-2.86,2.02l.94-.29c-1.41,1.52-2.66,3.06-3.51,2.98-4.42,4.1-8.72,8.3-11.94,10.53l.19,1.24c-.83,.9-3.09,1.41-2.45,2.7l-1.31,2.28c-1.1,1.25-1.3,2.37-2.89,3.52h0s0,0,0,0c-.1,.07-.2,.14-.31,.21,.02,.02,.05,.02,.07,.03-2.62,2.69,.68,.49-2.36,3.53-1.37,.68,.03,1.93-1.39,3.45l-2.33,.85c-2.87,2.55-2.17,3.87-5.37,8.26-1.92,1.82-3.59,2.18-3.41,.17-.39,2.65,.02,1.35-1.33,4.26-.7,.1-.59-.24-.56-1.07-2.11,1.93-.63,1.67-1.88,3.37,.43,1.05,1.27,2.51,.92,3.11l.71-.49c-.87,2.11-2.07,4.23-3.94,6.07l-.34-.36-1.37,2.39-.61-.21-2.08,3.33,.44-.35c-.46,.8-2,3.41-3.24,4.65l-.25-.25c-3.65,3.41-4.76,7.52-7.87,12.28l-.16-1.01c-1.67,1.21,.59,1.05-1,2.76l-.78-.39c-.21,2.32-1.68,2.03-2.82,2.94l1.3,.1-1.68,2.04c-.13,.15-.25,.27-.37,.39,.99-3.76,1.14-6.89,3.93-11.75,2.21-1.61,4.48-7.7,6.51-11.52,3.16-7.85,5.23-12.98,8.9-20.95,4.2-3.75,5.57-11.95,9.2-16.64l.02-1.78c1.43-1.47,2.47-3.7,3.55-6.39,.27-.68,.54-1.4,.83-2.19,.28-.82,.58-1.62,.9-2.92,.08-.31,.15-.72,.22-1.17,.03-.27,.06-.49,.08-.81v-.52c.02-.17,.02-.33,0-.61-.02-.25-.04-.49-.08-.74-.01-.1-.04-.27-.08-.46-.04-.18-.08-.35-.13-.53s-.1-.35-.16-.52c-.04-.14-.17-.46-.27-.67-.11-.24-.23-.47-.36-.7-.14-.24-.25-.42-.47-.72-.41-.54-.88-1.05-1.41-1.48-.55-.44-1.18-.82-1.82-1.1-.57-.25-1.12-.4-1.7-.52l-.43-.07-.31-.03c-.21-.02-.41-.03-.62-.04-.42-.01-.87,.01-1.09,.04-.28,.03-.55,.07-.83,.12-.49,.1-.78,.18-1.17,.3-.3,.09-.54,.18-.8,.28l-.62,.25c-.75,.33-1.28,.59-1.77,.83-.43,.39-.57,.61-.78,.83-.19,.22-.36,.41-.5,.57-.29,.31-.49,.51-.61,.63,.24-.14,.66-.27,1.05,.05-.78,.38-1.78,1.18-2.64,1.77-.84,.6-1.48,1.03-1.73,.57l.25-.36c-.46-.91-3.53,3.68-5.32,4.38l1.45,.06-2.31,2.04,.44-.73c-3.79,5.59-6.96,8.98-10.04,12.41-.76,.86-1.52,1.71-2.3,2.58-.73,.89-1.46,1.82-2.19,2.8-1.47,1.96-2.81,4.21-4.11,6.96-.04-1.96-.87,2.27-1.98,1.69-3.02,1.59-2.88,4.82-3.85,7.11,.05,.03,.1,.1,.1,.27l-2.48,3.52c.02-3.03-.53,3.33-.42,.6-3.52,4.4-6.89,9.92-10.19,15.7-3.28,5.79-6.52,11.85-9.85,17.38l.64-.3c-1.64,2.83-3.13,6.65-4.87,8.53-1.74,1.89-1.61,5.28-1.99,6.17-.54,2.41-2.47,3.89-2.5,3.53-1.05,2.62-1.07,5.62-3.36,8.83-1.86,.61-3.68,10.42-5.1,9.86l.1,.1c-3.23,4.16-3.68,9.34-6.91,13.95,0,0-.06-.14-.07-.36-.19,4.07-.35,8.14-.46,12.2l5.99-.8c2.6-2.36,5.21-4.7,7.84-7.01,3.43-8.01,6.99-15.99,10.65-23.91,3.62-5.97,7.31-11.89,11.07-17.75,5.91-11.3,12.06-22.47,18.62-33.3-.92,1.88-1.86,3.76-2.76,5.62-.8,1.05-1.87,3.42-2.86,5.78-.99,2.35-1.9,4.7-2.57,5.58-.85,4.45-1.9,9-2.53,14.06-.29,2.55-.51,5.22-.24,8.3,.15,1.54,.41,3.18,1,4.94,.58,1.75,1.51,3.63,2.91,5.33l-.5-.45c.22,.27,.43,.53,.67,.78l.36,.38,.18,.19,.09,.09,.1,.1c.29,.28,.61,.55,.95,.79,.66,.48,1.48,.89,2.15,1.12,.66,.22,1.37,.37,2.07,.43,.82,.06,1.09,.01,1.54-.02,.42-.05,.84-.12,1.25-.23,.56-.15,.93-.3,1.38-.49l.26-.12,.19-.1,.37-.2,.34-.21,.22-.15,.44-.31c.2-.15,.41-.33,.58-.48,.64-.57,.98-.95,1.32-1.33,.34-.38,.6-.71,.87-1.04,.2-.1,.3-.05,.26,.12,1.44-2.37,3.14-4.7,5.07-7.11,1.91-2.35,3.91-4.8,5.65-6.93l-.09,.32c9.11-13.05,17.21-25.86,25.72-38.33,.76-1.12,1.53-2.23,2.3-3.35-1.51,3.41-2.58,5.96-2.8,6.7l2.8-3.04c-4.95,11.67-8.56,16.55-12.04,26.97v-.66c-.44,.68-.14,1.49-.95,3.99-.8,2.54-2.78,6.64-7.43,14.49l-.11-.04c-.19,.59,.04,.67-.69,1.74l1.75-2.68c-.36,1.85-.36,3.57-1.08,5.95-.29,.46-.59,.56-.79,.54-.58,1.97-1.13,3.96-1.63,5.99-.42,.55-.85,1.1-1.26,1.67-.04,1,.4,1.38,.58,2.12,.19,.75,.1,1.8-.84,4.38,.75-.9,.79-.22,.75,.63-.04,.84-.14,1.87,.19,1.57-.17,.26-.47,.85-.71,1.36-.09,1.69-.16,4.21,.46,6.94,.31,1.36,.83,2.78,1.57,3.98,.72,1.21,1.68,2.12,2.27,2.51,0,0-.23-.29-.61-.83-.34-.54-.78-1.34-1.07-2.25-.64-1.87-.67-4.02-.38-5.95,.6-3.87,2.24-7.24,3.14-8.65-1.05,4.02-.07,1.08,.46,.37l-.22-.32c.78-2.35,1.51-2.16,1.99-3.29-.06-.01-.13,0-.21,.02l.06,.17c-.15,.08-.22,0-.26-.15-.16,0-.25-.15-.04-.78l.04,.14c.15-1.01,.74-2.66,1-3.37l.58,.16c-.3-1.02,1-3.78,2.57-6.48,1.56-2.71,3.36-5.37,3.81-6.47,1.56-1.95,1.79-5.06,3.29-7.67,2.02-4.32,1.73-1.85,3.15-3.85Zm-6.57-76.27h0s0,0,0,0Zm-10.51-7.69h0s0,0,0,0Zm44.65-3.55h0s0,0,0,0h0Z"/><path class="cls-1" d="M410.59,23v.42c.02-.18,.02-.31,0-.42Z"/><path class="cls-1" d="M354.19,111.9l.04-.13c-.4-.13-.31,.12-.04,.13Z"/><path class="cls-1" d="M393.03,52.1c-.04,.07-.07,.13-.11,.19l.9-.48-.79,.29Z"/><path class="cls-1" d="M375,90.86c-.31,.65-.53,1.24-.59,1.71,.91-1.78,.86-1.9,.59-1.71Z"/><path class="cls-1" d="M350.78,129.54c-.15,1.27,.14,.8,.49,.09,.08-1.28,.19-2.12,.19-2.12-.2,.65-.5,1.31-.68,2.03Z"/><path class="cls-1" d="M357.12,125.74l.27,.39c.04-.63-.08-.63-.27-.39Z"/><path class="cls-1" d="M389.26,114.69s0,.02-.01,.02c.12,.1,.22,.18,.3,.24l-.28-.26Z"/><path class="cls-1" d="M387.27,116.41s-.03,0-.05,0c.1,0,.19,.01,.05,0Z"/><path class="cls-1" d="M391.51,116.81s0-.01,0-.03c-.03,0-.06,.01-.11,.01h.11Z"/><path class="cls-1" d="M391.32,116.61c.15-.06,.18,.12,.19,.18,.24-.03,.31-.14,.27-.3-.21-.1-.28,.14-.46,.12Z"/><path class="cls-1" d="M387.01,97.67s.04-.07,.05-.11c-.05,.03-.05,.07-.05,.11Z"/><path class="cls-1" d="M394.89,135.48l-.28,.24c.14-.08,.22-.17,.28-.24Z"/><path class="cls-1" d="M386.62,117.52c-.15,.07-.26,.12-.36,.16h0s.37-.16,.37-.16Z"/><path class="cls-1" d="M384.54,120.75l-.64,.6c.1,.05,.21,.08,.32,.11,.06-.06,.12-.11,.18-.18,.16-.23,.17-.39,.14-.54Z"/><path class="cls-1" d="M404.82,114.85l-.65-.37c.19-.49,.59-.25,.77-.31,.27-.6,.54-1.21,.82-1.82l.4-.91,.2-.45,.44-.86c.79-1.52,1.19-3.2,1.17-4.86,0-1.67-.41-3.29-.96-4.83-.19-.51-.38-1.02-.57-1.52l-.03-.08-.07-.19c-.09-.22-.19-.43-.3-.65-.2-.41-.52-.87-.82-1.27-.65-.8-1.5-1.47-2.24-1.86-1.57-.83-2.68-.95-3.54-1.09-.86-.11-1.51-.15-2.04-.2-.16-.12-.35-.18-.56-.21-.12-.02-.15-.04-.35-.03-.18,0-.37,0-.56,.01-.75,.02-1.49,.12-1.85-.06-2.38,1.47-4.51,2.7-6.25,3.92v-.11c-.23,.24-.44,.48-.66,.73-.07-.02-.13-.09-.14-.15-.2,.6-.69,1.05-1.25,1.43-.52,.36-1.14,.64-1.62,.96v-.1c-2.35,2.36-4.1,5.13-5.58,7.96-.38,.71-.73,1.42-1.09,2.14-.13,.27-.48,.93-.72,1.48l-.79,1.71c-.99,2.3-1.89,4.61-2.78,7.05-.46,.95-.86,1.98-.98,2.9-.19,.96-.23,1.88-.14,2.69,.16,1.66,.63,3.02,1.07,4.55,.21,.7,.43,1.4,.66,2.16-.11,.6,1.05,2.55,3.15,3.81,1.03,.63,2.2,1.03,3.09,1.17,.9,.16,1.52,.08,1.72,.02l-.54-1.01c1.49-.01,2.28-.06,3.14-.1,.84-.09,1.7-.24,2.81-1.22l-.14,.31c.14,.06,.32-.57,.83-1.08,.26-.25,.59-.48,1.07-.61,.49-.14,1.12-.14,2.11-.08v.12c.14-.12,.1-.36,.4-.26-.25-.05-.48-.12-.71-.2,.33-.6,.55-1.42,.99-1.95,.12,.03,.21,.23,.25,.4,.1-.12,.21-.25,.31-.37,.29,.28,.56,.61,.59,1.14-.36,.41,.28,1.05,.97,1.53,.7,.49,1.4,.8,1.06,1.25l.07-.07c.39,.87,1.25,1.2,2.04,1.39,.4,.09,.79,.14,1.17,.24,.37,.07,.74,.23,1.09,.47,0,0-.04,.08-.11,.15,1.27-.97,2.11-2.16,2.75-3.35-.29-1.27-.5-2.55-.65-3.83-.21-.51-.33-1.06-.41-1.57,0-.11-.01-.22-.02-.34,.05-.03,.1-.07,.15-.1l.29-.19s-.06,.03-.09,0c.14-.14,.28-.42,.43-.7l.23-.49c.08-.19,.16-.35,.26-.47-.06-.35-.07-1.14-.15-2.32-.02-.29-.06-.61-.1-.95-.04-.32-.11-.73-.16-.98l-.07-.06c-.06-.05-.07-.11-.07-.17v-.05s0-.03,0-.03h0s.04-.12,.06-.16l.45-1.11-.52-.96c2.13-1.01,1.5-3.81,3.3-5.01Zm-15.42,9.65c-.24-.51-.48,.83-.77,.75-.45,.28-.18-.78-.34-1.18-.21-.21-.02,.8-.13,.95-.08-.23-.15-.47-.21-.73,.19-.26,.14-.62,.15-.88-.25,.12-.31-1.1-.71,.59-.18-.54,0-1.25-.1-1.25-.04,.29-.02,.51-.1,.85,.06-.66-.11,.23-.1,.36-.2,.44-.3-.15-.32-.72-.03-.56-.01-1.07-.43-.07l.14-.36c-.64,1.49-1.08,2.92-1.63,3.76l.13-.66-.49,.63c.07-.49,.32-.89,.4-1.07-.66,.65-.72-.34-.89-.76-.67,1.37-1.27,2.76-1.81,4.17,.04-.57,.17-1.42,.24-1.99,.06-.56,.05-.86-.39-.3,.23-.47,.47-.95,.71-1.41,.63-1.44,.43-1.27,.06-.92-.36,.36-.86,.95-.66,.49,.29-.52,.58-1.02,.88-1.51l.09,.33c.39-.91,.7-1.39,1.32-2.3l-.03,.03c-.04,.06-.09,.12-.15,.19h-.03c-.52,.51-.9,.72-.89,.47,.06-.24-.13-.2-.15-.37-.01-.13,.11-.42,.63-1.02l-1.05,.71c.22-.29,.45-.57,.68-.84l.84-.6c-.07,.23,.04,.45,.15,.65,.05,.09,.09,.17,.12,.27l.39-.37c-.01-.11-.14-.11-.23-.14-.07-.02-.11-.06-.08-.15,.17-.22,1.06-1.05,1.63-1.42l-.82,.57c-.03-.45-.02-.57,.99-1.49l-.41,.24c-.21,.02-.4,0,.24-.3,.21-.34,.78-.78,1.69-.99l-.82,.11c.07-.07,1.31-.23,.18-.14-.11-.02-.21-.04-.32-.07,.08-.06-.34-.12,.13-.17h0s0,0,0,0c.03,0,.06,0,.09,0-.02,0-.04,0-.06,0,.39-.1-.67-.07-.16-.19,.54,.04-.89-.24-.66-.34,.35,.04,.7,.11,1.04,.18,.31,.02,.22-.03,.07-.15-.13-.15-.39-.19-.16-.63,.5-.19,1.36,.08,1.9,.67-.64-.75-.45-.43-.6-1.06,.37,.13,.41,.21,.66,.47,.59-.13-.18-.4,0-.65-.57-.45-1.49-1.14-1.47-1.25h-.26c-.14-.51-.09-.95,.45-1.09l.29,.21,.09-.47,.4,.24c.07-.2,.15-.4,.23-.59h-.15c.03-.16,.19-.64,.54-.72l.2,.16c1.1-.13,.65-1.26,1.18-2.02l.32,.43c.59,.1-.56-.59-.12-.7l.5,.41c-.43-.8,.41-.2,.79-.14l-.7-.49c.14-.07,.27-.13,.41-.19,.52-.15,.97,.52,1.26,.87l-.28-.68,.58,.47c-.48-.76,.25-.07,.19-.67,.15,.12,.22,.23,.3,.3-.06,.07-.14,.11-.27,.11l.79,.2-.36,.43-.07-.2c.56,2.89-2.17,2.75-1.61,5.4-.67-.62,.24,.58-.64,.2-1.32,0-.18,1.02-.07,1.55,.04,.02,.09,.05,.15,.1l-.42,.64c-.46-.45-.29-.2-.09,0,.1,.1,.21,.21,.22,.29,.01,.07,0-.02-.19-.21-1.11,1.18-2.11,3.11-1.81,5.05,.07,.46,.19,.96,.33,1.45l.21,.62c.03,.06,.05,.13,.05,.19,0,.06,.02,.13,.02,.2-.02,0-.03,0-.05,0-.37-.07-.71-.42-.81-.3Zm5.66-16.99s.18-.04,.52,.11c-.37,.14-.34,.81-.99,.43l-.03-.1c-.46-.27-.32,.31-.45,.68l-.24-.99,.05,.61-.74-.8c-.28-.89,.48-.32,.46-.71l.09,.36c.13-.49,.46-.15,.78-.12-.18-.11-.47-.26-.44-.48,.05-.12,.3,.25,.46,.27-.46-.57-.48-1.05-.07-.94,.06,.08,.12,.17,.15,.23-.03-.13-.11-.3,.08-.22l.44,.68-.3-.73c.23,.11,.05-.48,.34-.02l.03,.17c.29-.11,.55-.2,.8-.25v.02c-.02,.08-.05,.14-.09,.22-.18,.41-.4,.81-.96,1.03,.11,.34,.12,.5,.11,.56Zm5.08-6.3c.06-.02,.06-.02,0,0h0Zm.2,27.78h0s0,0,0,0Z"/><path class="cls-1" d="M391.96,131.94l-.03,.03c.08,.4,.09,.21,.03-.03Z"/><polygon class="cls-1" points="383.98 124.67 383.99 124.7 384.43 123.81 383.98 124.67"/><path class="cls-1" d="M388.09,123.41c.05-.02,.11-.1,.15-.3-.13-.02-.15,.11-.15,.3Z"/><path class="cls-1" d="M429.18,121.12s.01,.03,.02,.05c.15-.01,.29-.02,.39-.02l-.41-.03Z"/><path class="cls-1" d="M428.6,129.76s-.03,.03-.05,.04c.09,.02,.17,.06,.05-.04Z"/><path class="cls-1" d="M429.41,105.68l-.1-.35c.03,.15,.06,.26,.1,.35Z"/><path class="cls-1" d="M423.87,136.31c-.07-.09-.14-.15-.2-.2,0,0-.01,0-.02,.01l.22,.19Z"/><path class="cls-1" d="M408.63,119.95l.21,.19c0-.05-.03-.1-.07-.14-.04-.01-.09-.03-.14-.04Z"/><path class="cls-1" d="M413.78,136.97s-.04,.07-.06,.12c.13,.14,.53,.26,1.06,.31l.08-.44c-.37,.03-.72,.02-1.09,.02Z"/><path class="cls-1" d="M431.35,104.12s0-.03,0-.04c-.02,0-.02,.02,0,.04Z"/><path class="cls-1" d="M413.38,122.76h0c.3,.1,.19,.05,0,0Z"/><polygon class="cls-1" points="409.78 134.43 409.74 134.39 409.67 134.87 409.78 134.43"/><path class="cls-1" d="M404.48,126.21c0-.16-.04-.3-.15-.39-.04,.46,.04,.47,.15,.39Z"/><path class="cls-1" d="M413.41,121.14c.07-.07-.11-.14-.32-.19-.02,.11-.05,.18-.05,.18,.1-.01,.27,.02,.37,.01Z"/><path class="cls-1" d="M409.39,119.61l-.21-.16c.01,.12,.1,.16,.21,.16Z"/><path class="cls-1" d="M557.62,120.67s.01,.03,.02,.04c.15-.02,.29-.04,.39-.04h-.41Z"/><path class="cls-1" d="M557.45,129.55s-.03,.03-.05,.04c.09,.02,.17,.05,.05-.04Z"/><path class="cls-1" d="M557.77,105.9l-.11-.35c.04,.15,.07,.26,.11,.35Z"/><path class="cls-1" d="M552.65,136.03c-.07-.09-.14-.15-.2-.2,0,0-.01,0-.02,.01l.22,.18Z"/><path class="cls-1" d="M537.4,119.92l.2,.2c0-.05-.02-.1-.06-.14-.04-.02-.09-.03-.13-.05Z"/><path class="cls-1" d="M542.58,137.07s-.05,.07-.06,.12c.14,.15,.58,.28,1.16,.32l.07-.45c-.39,.03-.78,.03-1.18,.01Z"/><path class="cls-1" d="M572.94,100.44c-.06-.61-.14-1.22-.32-1.83-.65-2.47-2.37-4.41-3.96-5.44-.63-.09-1.21-.08-1.76-.04-.69-.76-1.6-1.27-2.53-1.54-.92-.26-1.88-.32-2.77-.27-1.51,.11-2.84,.42-4.26,.14l.09,.74c-.7,.19-.75-.26-.96-.35-3.37,.87-6.26,2.71-8.61,4.58-1.16,.91-2.35,1.96-3.52,3.09-1.17,1.16-2.34,2.52-3.38,4.12-.82,.42-1.3,2.77-1.86,3.29,.37,2.81,.67,5.26,1.15,7.33l-.1-.06c.13,.32,.28,.59,.43,.89-.05,.06-.13,.09-.19,.08,.95,.85,.98,2.49,1.29,3.71l-.1-.03c.39,.77,.79,1.51,1.25,2.21,.45,.68,.88,1.27,1.26,1.78,.78,1.02,1.35,1.74,1.7,2.34,.18,.29,.31,.62,.35,.65,.05,.11,.08,.23,.07,.35-.03,.24-.24,.45-.57,.42-.31-.12-.38-.21-.48-.18-.03,0-.17,.12-.2,.16-.06,.06-.04,.09-.06,.13,0,.18-.28,.37-.28-.16,.03-.18,.05-.3,.06-.33-.06-.07-.14-.13-.24-.15-.1-.03-.18-.11-.3-.14-.41-.16-.76-.3-.96-.26-.21,.21-.41,.45-.61,.71-.19-.1-.34-.22-.38-.37-.08-.14-.08-.29-.09-.44-.03-.13-.02-.27-.08-.4-.09-.12-.15-.27-.37-.43l.2,.02c.1-.06-.39-.04-.55-.24-.18-.16-.09-.7,1.28-1.02l.09,.02s-.18-.09,.06-.1c-.19,.02-.38,.04-.57,.07-.2-.17-.61-.41-.58-.64,.11-.01,.29,.03,.43,.07,0-.17-.01-.35,.04-.52l.6,.1c-.21-.26-1.4-.78-.53-.86-.84-.27-.31-.47-.72-.65,.1,.03,.27,.07,.42,.1,.05-.32,.27-.93,.02-1.35,0,0-.54-.02-1.26-.02-.72,0-1.54,.12-2.08,.09,.53-.42,0-.2-.32-.23l.16,.14c-.38,.23-.84,0-1.07,.12,.04,.02,.09,.04,.14,.05l-.05-.06c.09,.02,.15,.06,.19,.11,.11,.05,.18,.1,.11,.19l-.04-.04c0,.18-.2,.41-.29,.51l-.42-.17c.33,.3-.12,.65-.72,1.05-.56,.41-1.22,.92-1.28,1.15-.6,.41,0,1.07-.26,1.65-.12,.97-.65,.51-1.02,1.05-.19,.68,.51-.18,.57,.08-.17,.27-.35,.56-.51,.86-.12-.45-.35-.17-.51-.05-.02,.7-.43,2.09,.48,2.03-.05,1.06-.36,1.24-.23,1.66,.09-.21,.11-.54,.28-.62-.21,.54,.16,.14,.18-.05,.27,.21,.27,1.06,.38,1.91,.13,.82,.39,1.56,.81,1.3l-.14,.11c.66-.36,1.08-.97,1.64-.93l-.07,.41,.5,.07c0,.36-.22,.4-.28,.47,.34,.13,.61,.4,.89,.71,.28,.3,.52,.71,.84,.95,.13-.7,.33-1.41,.56-2.09,.11,.74,.63,2.1,1.05,1.62,0,.26,0,.51,.02,.77,.66,1.73,1.04-.12,1.36,.43,.13,.31,.27,.62,.44,.93-.23-.07-.46-.17-.69-.25,.57,.61,.8,.92,1.33,1.53,0,0,0-.01,.01-.02-.04-.04-.06-.08-.06-.12h.11c.17-.34,.6-.49,1.12-.42,.78,.17,1.3-.33,2.6,.27,.06-.27,.12-.53,.17-.8,.31,.1,.63,.17,.97,.23l.16,.58c-.9,.26-2.66,.72-3.91,.58l-.05,.27c.76,.08,1.6-.21,2.08-.2,.23,.1,.96,.63,.55,1.09,.14-.21,.27-.43,.4-.66,1.26-.28,1.86-.55,2.5-.73,.63-.19,1.36-.36,2.61-.77l-.35-.13c.31-.41,.6-.84,1.02-.55,1.38-.9,2.84-1.97,4.12-2.58l-.47-.58c.21-.28,1.45-.3,.64-.9,.02-.28,.05-.56,.04-.84,.24-.44-.04-.85,.5-1.26h0s0,0,0,0c.03-.02,.07-.05,.11-.08-.02,0-.04,0-.06,0,.55-1.02-.58-.13,.04-1.29,.56-.33-.83-.58-.62-1.13,.35-.16,.69-.34,1.03-.54,.56-1.15-.44-1.36-.73-2.9,.19-.81,.9-1.48,1.79-1.1-.55-.29-.72-.31-.84-.38-.12-.07-.18-.19-.53-.54,.32-.24,.43-.19,.81-.1,.17-.89-.48-.35-.66-.89-.73,.11-1.86,.38-1.96,.25l-.13,.26c-.55-.35-.94-.74-.87-1.41l.33-.15-.44-.44,.39-.26-.54-.65-.05,.16c-.15-.14-.6-.57-.57-.97l.22-.13c.18-1.22-1.1-1.24-1.63-1.93l.51-.18c.29-.52-.73,.36-.69-.08l.54-.35c-.88,.19-.04-.41,.15-.74l-.69,.5-.03-.42c.05-.5,.82-.72,1.23-.89l-.72,.08,.64-.39c-.85,.23,.05-.22-.51-.3,.24-.15,.42-.15,.49-.29l-1.17-.02,.55,.09-1.01,.42c-.91,.02-.06-.46-.44-.56l.36,.03c-.38-.25,.02-.45,.2-.7-.17,.12-.43,.31-.6,.23-.09-.08,.34-.18,.43-.31-.69,.22-1.14,.08-.89-.23,.1-.03,.2-.05,.26-.05-.12-.02-.31,0-.16-.13l.79-.16c-.26,.02-.52,.03-.78,.03,.19-.16-.43-.2,.11-.3l.17,.03c0-.27,.04-.51,.09-.72l.64-.05c-.88-.02,.31-.26-.78-.25,.63-.05-.41-.42,.84-.2,.09-.08-.21-.22-.35-.39-.08-.08-.16-.17-.16-.26,.02-.08,.09-.15,.26-.17,.49,.18,.75,.16,.85,.07,.16-.1,.21-.29,.38-.4,.13-.85,.41-1.61,1.13-2.6,.73,.38,1,.04,1.26-.38,.25-.41,.5-.89,1.01-.69l-.1-.61c.83,.62,1.02-.73,1.94-.09,.06-.29,.11-.39,.14-.42-.04-.02-.11-.11-.24-.46,.26,.19,.52-.23,.7,.5l-.02,.09c.17,.73,.42-.48,.75,.12l-.28-.76c.12,.02,.24,.03,.35,.06l-.06,.17c.48-.91,1.04-.89,1.52-.74-.06,.08-.13,.14-.23,.18l.27,.15c-.15,.12-.06,.58-.52,.32-.21-.13-.15,.06-.05,.33,.09,.26,.21,.58,.18,.63,0,.64-.89-.06-.71-.1-.25,.33-.04,1.49-.77,1.33-.32-.41-.53-.02-.76,.33-.23,.36-.47,.68-.68,.15l.03,.09c-.46-.26-.71-.02-.99,.22-.28,.24-.59,.48-1.02,.19,0,0,0-.09,0-.17l-.07,.39c-.01,.27-.05,.54-.26,.83-.26,.31-.36,.6-.47,.93-.24,.65-.16,1.45,.04,2.25l1.22,3.1c.16,.24,.35,.57,.51,.91,0,.19-.05,.38,.09,.55,.09,.17,.34,.32,.53,.47l.87,.76c2.07-.69,3.98-1.67,5.62-2.82,.8-.2,1.58-.43,2.35-.69,.89-.34,1.99-.93,2.96-1.65,2.01-2.12,3.21-5.07,3.56-7.47,.1-.61,.16-1.2,.2-1.77v-.23s.03-.44,.03-.44c0-.3,0-.58-.02-.89Zm-10.88,2.37s.01-.03,.02-.04c0,.02,0,.03-.02,.05-.05,.11,0,.01,0,0Z"/><path class="cls-1" d="M542,122.93h0c.3,.11,.19,.06,0,0Z"/><polygon class="cls-1" points="538.48 134.31 538.44 134.27 538.36 134.74 538.48 134.31"/><path class="cls-1" d="M533.16,126.25c0-.17-.05-.31-.16-.41-.03,.48,.05,.49,.16,.41Z"/><path class="cls-1" d="M542.12,121.31c.07-.08-.1-.15-.31-.2-.03,.12-.05,.2-.05,.2,.1-.02,.27,.02,.36,0Z"/><path class="cls-1" d="M538.16,119.6l-.19-.17c0,.12,.08,.16,.19,.17Z"/><path class="cls-1" d="M469.98,135.58c.06,.05,.11,.02,0,0h0Z"/><path class="cls-1" d="M475.45,98.74s.02-.02,.03-.03c-.07-.14-.13-.26-.17-.35l.15,.37Z"/><path class="cls-1" d="M482.54,96.01s.04,.01,.06,.02c-.03-.09-.04-.17-.06-.02Z"/><path class="cls-1" d="M467.18,110.14s-.02-.08,0-.12c-.04,.04-.02,.08,0,.12Z"/><path class="cls-1" d="M483.51,133.33s-.01,.01-.02,.02c.03,.02,.06,.03,.1,.05l-.08-.08Z"/><path class="cls-1" d="M483.51,133.62c-.17-.04-.06-.21-.02-.26-.22-.12-.36-.08-.46,.07,.1,.21,.34,.06,.48,.19Z"/><path class="cls-1" d="M495.81,122.55l.26,.26c-.1-.12-.18-.2-.26-.26Z"/><path class="cls-1" d="M493.48,101.68c-.11,.03-.19,.08-.26,.13,0,.02,0,.03,0,.04l.25-.17Z"/><path class="cls-1" d="M489.66,111.15s.06,.06,.09,.09c.17-.05,.38-.33,.6-.72l-.38-.25c-.1,.3-.21,.59-.31,.88Z"/><path class="cls-1" d="M492.57,126.17c.02-.75,1.1-.34,.9-.21,.32-.51-.1-1.66,.78-1.9,.95,.5,.69-2.25,1.56-1.5l-.07-.07c1.28-.24,.81-1.84,2.03-2.22,0,0,.05,.07,.09,.14-.47-1.28-.99-2.55-1.53-3.78l-3.44-1.81c-1.17-.17-2.32-.37-3.46-.6-.69,1.24-1.42,2.45-2.21,3.6-1.05,.52-2.11,.95-3.15,1.31-1.8,1.74-3.77,3.19-5.94,4.32l-.13,1.01c-.89-.44-1.45-.19-2,.05-.14,.06-.27,.11-.4,.16-.13,.04-.26,.07-.31,.07-.11,0-.17-.09-.19-.37l-.1,.75c-.12,.04-.02-.43,0-.56-.16,.02-.36,.06-.6,.03-.24-.03-.49-.15-.62-.37-.13-.21-.15-.49-.05-.73,.02-.06,.05-.11,.12-.31l.31-.97c.21-.61,.42-1.16,.65-1.64,.3-.17,.44-.55,.59-.87,.47,.11,.88,.2,1.03,.14,.67,.3,.83-.61,1.46-.63,.85-.34,.73,.33,1.33,.43,.65-.06-.38-.39-.19-.53,.31,.06,.62,.11,.93,.15-.31,.27,.02,.38,.18,.48,.56-.26,1.86-.17,1.48-1.01,.94-.15,1.16,.11,1.48-.07-.2-.05-.49-.02-.6-.16,.52,.1,.07-.18-.1-.16,.09-.31,.86-.4,1.57-.57,.71-.15,1.31-.39,1.02-.78l.12,.13c-.42-.62-1.05-1.01-1.07-1.55l.4,.07,.03-.48c.34,0,.4,.22,.46,.28,.17-.65,1.01-.97,1.56-1.45-.67-.24-1.34-.5-2-.77,.73-.08,2.11-.33,1.69-.82l.75,.13c1.76-.19,.04-1,.62-1.15l.95-.09-.35,.49c.65-.29,.99-.36,1.66-.54v-.02c-.06,.01-.1,.01-.14,0l.03-.08c-.27-.26-.32-.66-.08-1.02,.19-.24,.23-.53,.36-.82,.11-.26,.39-.63,.98-1.04-.19-.19-.39-.38-.58-.56,.24-.21,.48-.44,.71-.68l.57,.18c-.15,.43-.33,1.06-.58,1.73l-.19,.49c-.06,.13-.11,.26-.17,.39-.11,.25-.22,.49-.33,.71l.23,.15c.14-.25,.23-.55,.31-.82,.04-.14,.08-.27,.12-.38,.05-.13,.11-.27,.18-.37,.21-.15,1.03-.48,1.22,.1-.12-.23-.23-.45-.36-.67,.43-1.17,.52-1.77,.73-2.4,.1-.31,.21-.63,.36-1.06,.13-.45,.32-.96,.44-1.86l-.29,.32c-.19-.67-.47-1.35-.07-1.72-.06-.33-.13-.66-.27-1.08-.07-.21-.12-.37-.21-.61-.1-.23-.21-.46-.32-.68-.1-.21-.28-.48-.45-.72-.19-.25-.34-.47-.59-.72-.24-.25-.49-.48-.76-.69l-.26-.21-.17-.14c-.88-.76-1.93-1.42-2.79-1.95-.18,.2-.34,.42-.5,.64-.51-.13-1.37-1.21-1.61-.21-.36,.12-.71,.25-1.01,.4-.64,.04-.87,.5-1.55,.27h0s0,0,0,0c-.04-.01-.09-.03-.13-.05,0,.02,.01,.04,.02,.05-1.15,.04,.16,.59-1.06,.59-.51-.34-.03,.97-.51,1l-.8-.76c-.11-.03-.21-.04-.29-.03h-.06s-.05,.02,.02-.02l.07-.05s-.02,0-.03,0l-.08,.03c-.2,.08-.35,.22-.5,.38-.31,.32-.57,.81-1.26,1.27-.91,.19-1.55-.39-1.69-1.24,.11,1.08,.16,.64-.11,1.4-.31-.24-.31-.35-.4-.71-.76,0-.08,.5-.45,.76,.34,.65,.95,1.63,.87,1.75l.27,.07c-.12,.58-.36,1.03-1,1.1l-.22-.29-.3,.51-.34-.32-.5,.65,.16,.02c-.1,.18-.43,.71-.85,.78l-.17-.19c-1.28,.15-1.11,1.48-1.8,2.39l-.29-.46c-.66-.05,.53,.62,.03,.79l-.5-.4c.38,.87-.48,.29-.92,.31l.74,.44-.48,.3c-.59,.29-1.06-.38-1.35-.73l.26,.74-.64-.4c.49,.77-.3,.15-.25,.86-.25-.14-.3-.34-.5-.27,.1,.44,.21,.89,.33,1.32l-.07-.7,.84,.7c.35,.92-.52,.51-.49,1l-.11-.4c-.15,.66-.54,.42-.94,.57,.23,.02,.57,.06,.55,.35-.05,.18-.37-.13-.57-.06,.57,.44,.65,1.02,.15,1.16-.08-.06-.16-.12-.2-.18,.04,.15,.17,.3-.07,.35l-.62-.53,.46,.7c-.31,.07,.01,.67-.43,.35l-.07-.2-.27,.34c-.09,.11-.18,.22-.3,.4-.23,.32-.44,.65-.64,.98l-.59-.26c.69,.59-.84,1.02,.22,1.38-.74,.17-.16,1.62-1.26,.99-.45,1.1,.2,1.98-.16,2.94-.1,0-.25,0-.37-.02l.17,.13c-.31,.14-.78-.13-.98-.09,.04,.02,.09,.04,.13,.07l-.05-.05c.09,.04,.14,.07,.18,.11,.1,.05,.18,.11,.11,.16l-.04-.04c.01,.14-.16,.26-.23,.31l-.39-.22c.65,.62-1.8,.46-1.95,.64-.62-.09-.18,.56-.6,.67-.4,.34-.69-.16-1.15-.17-.41,.1,.47,.24,.43,.36l-.73-.05c.08-.21-.21-.27-.38-.33-.24,.22-1.2,.14-.53,.74-.6,.09-.89-.12-1.03,0,.17,.05,.36,.04,.51,.15-.42-.1,.03,.12,.14,.12,.15,.46-2.12,.07-1.37,.72l-.14-.11c.54,.5,1.17,.87,1.37,1.27l-.34-.11,.14,.34c-.26-.06-.37-.23-.45-.29,.09,.42-.48,.49-.67,.56,.53,.41,1.08,.8,1.66,1.16-.55-.07-1.46-.46-1.06,.07-.18-.14-.36-.28-.53-.42-1.07-.74,.14,.7-.22,.52-.19-.16-.38-.32-.55-.49l.14-.13c-.34-.18-.52-.35-.84-.71v.02s.05,.05,.07,.09v.03c.17,.36,.23,.67,.13,.74-.15,.01-.06,.72-.54,.07l.22,.89c-.11-.11-.21-.22-.3-.35l-.18-.69c.14-.09,.28-.58,.41-.76l-.12-.27c-.07,.08-.06,.46-.14,.46-.08-.09-.36-.72-.47-1.2l.17,.69c-.2,.31-.26,.4-.59-.28l.07,.37c-.02,.27-.06,.55-.12-.1-.15-.02-.31-.45-.29-1.55l-.07,1.04s.09-1.62-.06-.14l-.1,.49c-.02-.07-.14,.57-.09-.04h0s0,0,0,0c0-.04,0-.08,.01-.13,0,.03,0,.06-.01,.09,0-.45-.16,.98-.17,.39,.12-.78-.32,1.43-.35,1.19,.09-.53,.2-1.06,.31-1.59,.16-.91-.27,.71-.46,.73,.1-.58,.61-1.97,1.05-3.2-.54,1.49-.35,.97-.66,1.68,.24-.61,.29-.74,.51-1.29,.28-.72-.22,.55-.23,.51-.49,1.14-1.3,2.96-1.36,3.03l-.13,.37c-.35,.58-.62,.83-.44,.21l.29-.56-.25,.23,.38-.71c-.08,.06-.16,.1-.24,.14l-.09,.2c-.08,.07-.33,.23-.15-.17l.24-.37c.66-1.25-.42,.14-.64,.01l.57-.65c.53-.71-.87,1.01-.63,.6l.69-.8c-.94,.98,.16-.3,.51-.7l-.92,1.02,.17-.29c.29-.41,1.18-1.25,1.67-1.75l-.75,.71,.84-.82c-.98,.93,.15-.16-.38,.3,.32-.29,.48-.44,.64-.59-.4,.35-.8,.69-1.21,1l.54-.42-1.24,1.09c-.96,.73,.12-.23-.23,0l.37-.26c-.31,.15,.22-.28,.5-.52-.23,.18-.58,.48-.74,.56-.07,.02,.44-.34,.58-.47-.84,.62-1.28,.84-.88,.49,.12-.08,.23-.15,.31-.2-.13,.08-.35,.21-.15,.05l.93-.6-.88,.53c.25-.19-.41,.16,.21-.21l.18-.09c.08-.12,.16-.24,.24-.35l.74-.37c-1.01,.48,.39-.25-.87,.33,.69-.33-.46,.02,.94-.49,.06-.06-.25,.02-.47,.04-.23,.02-.38-.02-.03-.16,1.16-.25,.79-.22,.93-.28-.22-.04-.42-.11-.6-.21-.15-.18-.31-.29-.38-.63,1.57-.03-.08-1.4,.91-1.66l-.5-.34c1.01-.03,.13-.98,1.18-1.15-.19-.21-.24-.31-.25-.35-.04,.01-.15,0-.5-.12,.3-.05,.11-.46,.79-.16l.06,.06c.68,.3-.15-.56,.52-.48l-.78-.21,.24-.22,.11,.13c-1.15-1.87,1.42-1.4,.44-3.17,.73,.51-.32-.41,.56-.03,1.22,.22,0-.63-.18-1-.04-.02-.09-.05-.15-.09l.29-.36c.98,.75-.77-.72,.06-.06,1.31-.67,1.15-2.46,2.14-3.52l-.31-.08c.21-.29,.06-.85,.63-.87,.56-.02-.45-.87-.45-.99-.35-.5,.72-.27,.62-.18,0-.17-.21-.45-.35-.71-.14-.24-.21-.45,.1-.55,.97,.36-.31-1.66,.75-1.24l-.09-.04c.15-.06,.26-.15,.34-.25l.04,.07s-.03-.04-.04-.07c.06-.07,.11-.15,.14-.24,.62-.18,1.28-.21,1.98,.09l-.37-.61c.12-.05,.96,.64,.36-.15v-.4c.15-.07-.12-.37,.24-.15h0s0,0,0,0c.02,.01,.04,.03,.07,.05l-.04-.04c.37,.09-.43-.47,.02-.32,.4,.32-.55-.72-.35-.67l.78,.67c.55,.28-.11-.48,.11-.69,.36,.17,1,.75,1.46,1.37-.54-.77-.37-.48-.54-.92,.28,.26,.33,.33,.53,.61,.43,.22-.16-.32-.06-.38-.47-.54-1.23-1.4-1.24-1.46l-.19-.13c-.17-.36-.2-.58,.16-.41l.25,.26v-.23s.32,.33,.32,.33l.06-.25-.11-.07s0-.06,.01-.1h0s.03,0,.03,0l.11,.03,.23,.05s.04,0,.06,0c.22,.12,.32,.11,.35,.05,.4,.05,.77,.08,1.11,.06,.13,.15,.25,.3,.35,.41l-.31-.41s.01,0,.02,0l.06,.07c.09,.14,.19,.25,.3,.33l.03,.04s-.01-.01-.02-.03c.06,.05,.13,.09,.19,.12,.01,.01,.03,.03,.04,.04,0-.01-.02-.02-.03-.04,.39,.18,.81,.07,1.16-.1,.55-.26,.96-.64,1.53-.36,.05-.22-.04-.4-.05-.6,.44,.85,.4-.33,.89,.48,0-.26,0-.35,.01-.38-.02-.02-.07-.13-.17-.49,.14,.23,.2-.12,.39,.6v.08c.19,.72,.12-.39,.37,.21l-.25-.76,.17,.09v.16c.14-1.87,1.03,.52,1.19-1.19,.13,.87,0-.47,.23,.45,.41,1.14,.19-.31,.24-.65,0-.05-.02-.1-.03-.17l.22,.07c.14,1.2-.07-1.01,.04,.02,.7,.77,1.18-.27,1.85,.04l-.08-.3c.16,.03,.28-.37,.48,.1,.19,.47,.12-.82,.16-.87,.05-.55,.32,.48,.26,.44,.11-.17,.08-1.27,.34-.83,.2,1,.39-1.06,.54,.08v-.1c.32,.77,.4-.62,.73,.08,0,0,0,.08,0,.16,.06-1.17,.14-2.35,.23-3.53l-.5-3.82c-.28-1.02-.57-2.04-.88-3.06-.49,.27-.97,.54-1.44,.82l-.53-.38,.16,.02,.11,.11c-1.19-1.38,.91,.05-.17-1.23,.66,.58-.32-.34,.43,.25,.99,.67-.11-.29-.32-.54-.04-.03-.08-.07-.13-.11,.04,0,.13-.05,.21-.09,.87,.84-.69-.74,.05-.02,1.12,.02,.85-1.27,1.53-1.88l-.3-.08c.14-.18-.13-.55,.39-.56,.53-.02-.65-.57-.69-.63-.48-.29,.59-.19,.52-.13-.1-.23-1.15-.59-.65-.73,1.03,.04-.92-.72,.22-.61h-.1c.83-.26-.54-.57,.19-.85,0,0,.08,0,.16,.01-1.17-.18-2.34-.27-3.51-.29-1.28,.14-2.55,.27-3.83,.36-.27,.03-.55,.04-.82,.06-.05-.03-.09-.05-.16-.08-.15-.09-.3-.19-.5-.32l-.3-.22-1-.79-.04,.1,.62,.63c-1.38-.68-.24,.72-1.29,.32l.59,.46c-.02,.1-.38-.19-.5-.25-.39,.82-.13,2.15-1.35,2.22-.44-.23-.35,.13-.8-.14,.58,.76,.41,.97,.18,1.12l-.06-.06,.04,.18c-.05-.03-.12-.08-.17-.12,.45,.5-.2,.29-.52,.27l-.06-.06c-.7,.73-.08,2.25-1.53,2.46-.69-.08-.81,.31-.9,.73-.09,.42-.16,.87-.82,1.06-.37-.1-.65,.37-.78,.94-.13,.56-.09,1.21,.05,1.35l.94,.04c.07,.29-.02,.49-.12,.68-.25,.04-.52,.05-.73,.09l-.03-.08c-.55,.42-.87,.83-1.13,1.21-.05,.09-.11,.17-.16,.26-.52-.09-1.01-.13-1.39-.11-.75,0-1.13,.15-1.27,.23,.23,.3,.43,.6,.62,.91-.47,.09-.91,.13-1.19,.15-.16,0-.31,0-.45,0-.12,0-.24,0-.36,0-.48,0-.81,.03-1.04,.46v-.2c-.08-.09-.03,.37-.09,.56-.02,.09-.14,.14-.22-.01-.05-.07-.11-.19-.18-.36-.02-.09-.04-.19-.06-.31,.01,.08,.03,.17,.04,.26,.02,.14,.04,.3,.06,.45l-.04-.28c.02,.11,.03,.25,.05,.39,0,.04,.01,.08,.02,.12,0,.02,0,.03,0,.04,0,0,0,0,0,.01v.08s0,0,0,0h0s0,.02,0,.03v.03s.01,.04,.01,.04c0,.01,0,.03,0,.05v.07s0-.04,0-.04c0,.01,0,.04,0,.06v.03s0,.01,0,.02c0,.02,0,.03,0,.06v-.05c.02,.19,.05,.39,.07,.64,0,.04,0,.1,.01,.16l.02,.29,.02,.17c0,.12,0,.23,0,.35,0,.06-.01,.17,0,.19,0,.11,.01,.06-.04,.36,0-.05,0,.01,0,.03,0,0,0,.01,0,.03,0,.01,0,.02,0,0,0,0,0-.02,0-.03,0,0,0,.01,0,0,0,0,0,.02,0,.03-.01,.05-.01,.05-.01,.05,0,0,0-.02,0-.02h0s0,.01,0,.01c0-.02,.02-.06,.03-.05,0,0-.01,.03-.03,.06l-.02,.08-.04,.22c-.05,.3-.07,.59-.08,.81-.07-.24-.06,.1-.06,.39l.04-.21c.05,.21,.01,.76,.06,.91,0-.04,0-.1,0-.15v.07c-.01-.1,0-.16,0-.22,0-.12,.02-.21,.04-.17v.06c.04-.07,.11,0,.14,.04v.45c.05-.43,.18-.1,.41,.31,.08,.15,.17,.31,.25,.45-.36-.02-.71-.05-1.07-.11,.05,.03,.1,.09,.15,.11,.06,0,.1,.06,.12,.15,.04,.2-.03,.59-.16,1.1-.75,.6-1.42,1.04-2.14,1.58-.3,.75-.61,1.51-.91,2.28,.07-1.38-.09-2.98-.76-4.64-.39-1-1.01-1.99-1.73-2.83-.73-.82-1.58-1.52-2.42-2-.64-.06-1.21-.02-1.76,.06-.38-.38-.77-.64-1.23-.89-.41-.2-.9-.39-1.34-.49-.95-.23-1.68-.18-2.51-.16-1.56,.14-2.99,.47-4.36,.25l.11,.74c-.69,.2-.76-.26-.96-.34-3.23,.96-5.98,2.65-8.46,4.63-2.46,2.04-4.73,4.31-6.71,7.51-.38,.23-.72,.96-.98,1.68-.26,.72-.45,1.43-.75,1.7,.5,2.72,.82,5.03,1.34,7.14l-.1-.06c.14,.32,.29,.61,.45,.91-.04,.06-.13,.1-.19,.08,.51,.44,.75,1.04,.93,1.7,.18,.66,.28,1.38,.45,1.96l-.1-.02c.8,1.54,1.7,2.81,2.56,3.91l.32,.41,.22,.26,.38,.47c.23,.3,.42,.58,.57,.83,.29,.48,.4,.96,.35,1.24-.02,.24-.25,.45-.56,.42-.56-.27-.46-.24-.52-.04-.08,.17-.13,.36-.56-.21,0-.38-.41-.52-.83-.68-.1-.03-.21-.08-.26-.07-.03,.03-.06,.05-.1,.07-.08,.05-.18,.08-.26,.12-.25,.18-.46,.37-.68,.6-.31-.04-.28-.27-.29-.58-.03-.28-.01-.58-.44-.99l.2,.03c.09-.07-.35-.09-.54-.32-.19-.2-.06-.81,1.3-1.3l.09,.02s-.18-.09,.07-.13c-.19,.04-.39,.08-.59,.13-.18-.19-.61-.44-.58-.68,.11-.02,.29,.01,.44,.05,0-.19,0-.38,.02-.55l.6,.07c-.25-.26-1.39-.7-.58-.82-.84-.23-.36-.45-.76-.61,.11,.02,.27,.06,.42,.1,.04-.3,.16-.84-.1-1.25,0,0-.52-.05-1.23-.05-.68,.02-1.54,.14-2.04,.16,.48-.45-.02-.2-.34-.21l.17,.13c-.35,.25-.86,.03-1.07,.17,.04,.02,.09,.03,.14,.05l-.06-.05c.09,.02,.15,.06,.19,.1,.11,.04,.19,.09,.12,.18l-.05-.04c.01,.18-.17,.42-.25,.53l-.43-.15c.34,.28-.09,.65-.67,1.07-.54,.42-1.2,.93-1.23,1.17-.64,.4,.03,1.05-.26,1.61-.13,.94-.65,.48-1.02,1-.25,.65,.52-.17,.56,.09-.2,.26-.36,.53-.54,.81-.11-.44-.35-.17-.51-.06-.03,.67-.55,2.01,.39,1.99-.12,1.05-.46,1.21-.32,1.64,.09-.21,.11-.53,.29-.6-.22,.52,.16,.14,.18-.04,.31,.21,.18,1.1,.33,1.98,.09,.89,.42,1.66,.83,1.41l-.14,.11c.67-.35,1.08-.97,1.66-.91l-.06,.42,.52,.08c.02,.37-.21,.41-.27,.48,.74,.24,1.2,1.13,1.84,1.62,.11-.72,.26-1.42,.46-2.11,.15,.71,.71,2.09,1.12,1.56,0,.25,.03,.51,.05,.77,.71,1.7,1.03-.17,1.36,.35,.13,.3,.26,.6,.42,.9-.22-.06-.43-.14-.64-.21,.53,.57,.74,.85,1.21,1.45,0,0,0-.01,.01-.02-.03-.04-.05-.08-.05-.12h.1c.16-.35,.56-.52,1.05-.43,.71,.17,1.25-.3,2.53,.38,.08-.26,.15-.52,.21-.78,.31,.11,.63,.23,.95,.3l.13,.59c-.46,.08-1.12,.23-1.84,.31-.71,.09-1.47,.11-2.03,.06l-.05,.27c.67,.08,1.54-.16,2.01-.12,.23,.11,.93,.69,.5,1.12,.15-.21,.29-.41,.43-.62,1.28-.19,1.88-.41,2.53-.55,.65-.15,1.34-.23,2.72-.67l-.36-.13c.37-.44,.7-.87,1.11-.58,1.4-.91,2.8-1.99,4.06-2.61l-.47-.59c.21-.28,1.44-.29,.63-.91l.04-.84c.22-.45-.04-.85,.5-1.27h0s0,0,0,0c.03-.02,.07-.05,.11-.08-.02,0-.04,0-.06-.01,.59-1.02-.59-.14,.07-1.29,.57-.32-.81-.59-.59-1.13,.36-.16,.71-.34,1.06-.52,.32-.54,.21-.89,0-1.25-.19-.37-.48-.77-.58-1.5,.25-.74,1-1.31,1.86-.95-1.06-.51-.65-.21-1.31-.97,.33-.23,.44-.17,.82-.06,.21-.92-.47-.39-.63-.97-.74,.06-1.88,.28-1.98,.14l-.14,.27c-.55-.39-.92-.82-.85-1.51l.34-.14c-.15-.17-.3-.33-.45-.49l.39-.25c-.19-.25-.38-.49-.57-.72l-.05,.17c-.16-.16-.64-.63-.65-1.07l.22-.13c.04-.66-.18-.87-.54-1.1-.36-.22-.8-.39-1.08-.74l.5-.18c.28-.53-.73,.36-.7-.08l.54-.36c-.88,.18-.05-.43,.12-.77l-.68,.52-.04-.42c.03-.5,.81-.74,1.21-.92l-.71,.09,.63-.4c-.85,.25,.03-.23-.52-.29,.24-.15,.42-.16,.48-.3-.39,.01-.78,.01-1.17,0l.55,.08-1,.45c-.9,.04-.09-.47-.46-.56l.36,.02c-.39-.24,.02-.46,.18-.7-.17,.12-.42,.32-.6,.24-.09-.07,.34-.19,.42-.31-.69,.24-1.14,.12-.87-.18,.1-.03,.2-.05,.26-.06-.13-.01-.31,0-.17-.12l.79-.17-.78,.05c.19-.16-.42-.19,.12-.29l.17,.02c0-.27,.04-.52,.08-.74l.64-.06c-.89,0,.32-.3-.78-.26,.6-.09-.4-.45,.84-.27,.07-.12-.2-.25-.37-.41-.17-.17-.3-.32,.1-.4,.54,.15,.7,.14,.86,.02,.16-.11,.18-.31,.37-.43,.1-.85,.27-1.61,.91-2.53,.69,.38,.94,.08,1.16-.34,.24-.38,.47-.88,.99-.67l-.1-.61c.44,.3,.67,.11,.95-.06,.27-.18,.58-.39,1.05-.06,.06-.3,.11-.4,.14-.44-.04-.02-.12-.11-.26-.45,.27,.17,.53-.25,.73,.47l-.02,.09c.19,.73,.43-.5,.78,.09l-.3-.75,.36,.06-.05,.17c.25-.51,.55-.76,.82-.82,.27-.09,.51,0,.73,.08-.02,.01-.03,.04-.05,.05l.28,.13c-.17,.16-.08,.66-.58,.46-.46-.24,.23,.86,.17,.98,.1,.52-.53,.04-.6-.11-.08,.31,.15,1.34-.49,1.15-.3-.42-.46-.07-.69,.27-.18,.33-.59,.69-.77,.14l.03,.09c-1.1-.49-1.42,1.08-2.55,.68,0,0-.01-.09,0-.17l-.71,3.92,1.75,3.47,2.65,2.41,2.12-1.07,1.26-.64c.49-.26,.98-.55,1.46-.86,1.8-.48,3.76-1.39,5.52-2.85,.04-.05,.08-.1,.11-.15-.44,1.41-.74,2.9-1.07,4.35-.08,.33-.24,1.01-.4,1.61-.17,.63-.34,1.26-.51,1.88-.34,1.28-.7,2.54-1.08,3.82-.58,.59-.37,1.96-.92,2.51,.9,1.27,1,2.71,1.23,4.08h-.09c.09,.18,.19,.34,.29,.51-.05,.07-.13,.13-.18,.14,.39,.13,.54,.51,.59,1.03,.07,.5,.1,1.09,.19,1.56l-.09,.02c1.12,2.2,3.3,3.75,5.71,4.39,2.43,.66,4.71,.37,7.07,.25,1.11,.31,2.4-.34,3.62-1.28,1.23-.94,2.36-2.14,3.84-2.86,.4,.12,1.84-1.28,3.09-2.89,.08-.1,.14-.18,.21-.28,.15,.33,.35,.65,.59,.94,.67,.84,1.49,1.5,1.8,2.4,.26-.01,.51-.03,.77-.05,.07,.71,.69,1.17,1.39,1.57,.71,.39,1.47,.73,2.05,1.46,.5-.08,.73-.08,.83-.07-.06-.05-.12-.19,0-.55,.32,.42,1.34,.35,1.04,1.04l-.14,.04c-.16,.34,.23,.37,.71,.37,.47,.01,1.01-.02,1.22,.34l-.14-.83c.28,.09,.57,.17,.87,.24l-.26,.13c2.05-.69,3.39-.71,4.47-.68,1.12,0,2.27-.07,3.26-1.3-.03,.94,.33-.61,.71,.26,1.13,.84,.99-.72,1.32-1.21-.02-.04-.04-.09-.04-.17,.28-.08,.56-.18,.84-.28,.07,1.32,.12-1.18,.15-.04,1.24-.1,2.4-.79,3.53-1.57,1.11-.81,2.18-1.72,3.33-2.39l-.28-.17c.57-.36,.93-1.19,1.64-1.14,.71,.03,.28-1.32,.38-1.48Zm-60.02-24.73s0,0,0,0c-.02,0-.02,0,0,0Zm8.97,8.44c.07-.1,.13-.2,.2-.3l.21,.09c-.06,.22-.24,.22-.4,.2Zm1.89-3.72c.02-.07,.04-.14,.07-.21l.12,.15c-.07,.02-.13,.04-.19,.06Zm19.8-17.08s0,0,0,0h0s0-.03,0,0Zm.07,.24s0,.02,0,.03c0,0,0,0,0,0,0-.01,0-.02,0-.03h0Zm-1.46,6.86s0,0,0,0l.04,.07-.04-.07Zm1.22-5.38h0s0,0,0,0c0-.01,.01-.03,.02-.04v.02s-.01,.01-.01,.01Zm7.41-6.34s-.04,.02-.06,.03c-.02-.04-.01-.07,.06-.03Zm-19.54,12.58s-.01,0-.02,0c.01-.04,.03-.09,.04-.13,0,.04-.01,.09-.02,.13Zm36.01,5.67h0s-.02,.04-.02,.04c0,0,0,0,0,0,.05-.08,.07-.11,.03-.04Zm-14.81,10.63s-.03-.04-.05-.1c0,.04,.02,.07,.05,.1Z"/><polygon class="cls-1" points="486.49 113.96 486.46 113.99 486.91 114.15 486.49 113.96"/><path class="cls-1" d="M479.86,120.03c.39-.14,.36-.21,.25-.29-.13,.06-.22,.15-.25,.29Z"/><path class="cls-1" d="M451.78,120.35h0c.1-.24,.19-.45,.26-.61l-.26,.61Z"/><path class="cls-1" d="M451.8,121.77s0,.04,0,.06c.02-.14,.04-.28,0-.06Z"/><path class="cls-1" d="M449.8,121.02s.07-.04,.08-.04c.01-.01-.03,0-.08,.04Z"/><path class="cls-1" d="M453.37,109.69s0,0,0,.02c.03,0,.06,0,.1,0l-.1-.03Z"/><path class="cls-1" d="M453.57,109.85c-.13,.01-.18-.11-.2-.15-.22-.02-.26,.04-.21,.15,.21,.1,.24-.05,.41,0Z"/><path class="cls-1" d="M452.36,121.77c.01,.15,.02,.27,.03,.37h0s-.04-.37-.04-.37Z"/><path class="cls-1" d="M462.4,117.68l.2,.18s-.03-.08-.07-.12c-.04-.02-.08-.04-.13-.06Z"/><path class="cls-1" d="M453.87,122.58s-.04-.08-.06-.13c-.08-.09-.15-.06-.21,.02l.2,.45,.07-.35Z"/><polygon class="cls-1" points="455.2 122.46 455.21 122.45 454.87 122.18 455.2 122.46"/><path class="cls-1" d="M457.61,118.86c-.2,.11-.14,.16-.02,.21,.06-.05,.08-.12,.02-.21Z"/><path class="cls-1" d="M463.08,117.57l-.21-.15c.02,.09,.1,.13,.21,.15Z"/><path class="cls-1" d="M510.1,125.09s0,.01,0,.01c.13,.08,.24,.15,.32,.2l-.32-.21Z"/><path class="cls-1" d="M508.35,126.39s-.03,0-.04,0c.08,.04,.16,.08,.04,0Z"/><path class="cls-1" d="M507.31,127.94c-.1-.05-.19-.08-.26-.11h0s.26,.11,.26,.11Z"/><path class="cls-1" d="M498.26,134.59l-.25-.09s.06,.05,.11,.07c.05,0,.09,.01,.14,.02Z"/><path class="cls-1" d="M504.76,129.6s.07,.04,.11,.06c.13,.01,.2-.09,.25-.23l-.41-.2,.04,.36Z"/><path class="cls-1" d="M493.2,132.5v-.02c-.3-.09-.19-.03,0,.02Z"/><polygon class="cls-1" points="503.34 130.53 503.32 130.54 503.75 130.67 503.34 130.53"/><path class="cls-1" d="M502.28,133.6c.15-.1,.08-.13-.04-.16-.04,.04-.03,.09,.04,.16Z"/><path class="cls-1" d="M493.4,134.68c-.04,.13,.15,.1,.37,.05-.03-.13-.03-.23-.03-.23-.08,.06-.25,.11-.34,.18Z"/><path class="cls-1" d="M497.69,134.8l.25,.07c-.06-.06-.15-.07-.25-.07Z"/><path class="cls-1" d="M517.9,103.6s.03,0,.04,0c-.08-.05-.15-.1-.04,0Z"/><path class="cls-1" d="M533.57,116.52s0,0,0,.02c.02,.02,.04,.04,.07,.07l-.07-.08Z"/><path class="cls-1" d="M533.67,116.77c-.1-.07-.1-.19-.1-.23-.15-.15-.21-.13-.2-.02,.12,.2,.19,.12,.3,.25Z"/><path class="cls-1" d="M520.12,101.46c.08,.08,.14,.14,.2,.19h0s-.21-.19-.21-.19Z"/><path class="cls-1" d="M531.04,100.68l.02,.26s.01-.07,0-.12c-.01-.04-.02-.09-.03-.14Z"/><path class="cls-1" d="M523.52,100.92s-.04-.07-.07-.11c-.1-.08-.17-.06-.23,0l.25,.37,.05-.27Z"/><path class="cls-1" d="M533.37,116.52s-.05-.09-.08-.16l.33-.07c.47,1.13-.32-.97,.06,0,1.2,.32,1.6-1.06,2.59-1.26l-.22-.23c.23-.09,.24-.57,.67-.28,.44,.29-.16-.86-.14-.94-.18-.54,.61,.2,.51,.2,.07-.24-.46-1.23,.05-1.03,.72,.74-.04-1.25,.69-.36l-.06-.08c.79,.4,.17-.87,.92-.54,0,0,.05,.07,.09,.14l-1.68-3.16-2.64-2.81-2.47-2.01-.13,.26c0-.15-.03-.51-.09-.95-.08-.57-.27-1.24-.41-1.68,.21,.21,.04-.11-.04-.39l.02,.21c-.14-.19-.25-.72-.35-.85,.01,.04,.02,.09,.03,.15v-.07c.02,.09,.03,.16,.03,.21,.02,.11,.04,.2,0,.18v-.06c-.04,.09-.15,.03-.21,0l-.12-.44c.06,.43-.18,.16-.55-.17-.36-.33-.85-.69-.95-.66-.47-.4-.32,.36-.64,.23-.38,.08-.52-.44-.9-.66-.35-.1,.35,.4,.29,.48l-.59-.35c.09-.14-.14-.31-.26-.43-.24,.08-1.05-.34-.55,.42-.51-.14-.74-.42-.88-.37,.14,.1,.3,.16,.42,.3-.35-.23,.02,.11,.11,.15,.1,.42-1.79-.65-1.17,.13l-.12-.14c.45,.59,.96,1.09,1.14,1.48l-.27-.2,.12,.32c-.22-.13-.31-.31-.37-.37,.08,.38-.38,.24-.61,.3l1.48,1.39c-.45-.23-1.3-.75-.92-.22l-.51-.46c-1.07-.79,.16,.59-.19,.37l-.58-.49,.13-.09c-.36-.19-.55-.36-.92-.68v.02s.06,.05,.09,.08v.03c.2,.31,.28,.55,.19,.59-.09,0-.08,.12-.12,.18-.02,.03-.06,.04-.12,.01-.07-.02-.22-.06-.41-.17l.33,.69-.5-.21-.34-.49c.14-.07,.3-.24,.46-.41,.11-.14,.12-.22,.21-.3l-.15-.23c-.1,.07-.02,.33-.14,.34-.13-.06-.64-.47-.73-.89l.19,.58c-.65,.51-.63,.53-1.88,.67l.27,.17c-.04,.26-.07,.52-.44,.21-.54,.34-1.25,.55-2.14,.41l.49,.51c-.12,.07-1.1-.4-.35,.25l.07,.42c-.16,.12,.11,.43-.35,.38h0s0,0,0,0c-.03,0-.06,0-.09-.01,.02,.01,.03,.02,.05,.03-.49,.18,.54,.34-.07,.52-.51-.13,.68,.6,.43,.7l-.45-.13c-.36-.93-.65-1.87-.81-2.83-.55-1.14-1.16-2.33-1.8-3.46-.76-.85-1.61-1.62-2.53-2.31-.97,.77-1.76,1.67-2.44,2.68l-.68,.28c-.22,.1-.35,.09-.53,.15l-1.02,.25c-.79,1.15-1.56,2.34-2.29,3.56l.52,.76c-1.73-.21-.9,1.67-2.29,1.84l.62,.42c-.1,.24-.48-.03-.63-.04-.29,.55-.49,1.02-.81,1.81-.29,.73-.56,1.57-.79,2.47-.23,.91-.41,1.89-.53,2.89-.04,.39-.08,.78-.11,1.17l-.04-.04-.05,.34c-.06-.02-.13-.07-.18-.11,.36,.66-.49,.78-.95,1.01l-.06-.06c-1.47,2.13-1.35,4.83-3.36,6.53-1.61,.49-.66,2.41-2.11,3.14-.79-.09-1.33,2.51-1.09,2.85l.95,.09c0,1.04-1.01,1.08-.65,2.11l-.16-.12c-.11,.01,.22,.2,.34,.42,.06,.11,.07,.23-.06,.34-.14,.14-.35,.11-.93,.43-.2,.09-.42,.19-.69,.31l-.09-.03c-.01,.08,.16,.14-.13,.22,.22-.08,.44-.14,.67-.21,.13,.3,.47,.63,.44,.93-.12,.03-.3,0-.44-.03-.02,.26-.04,.52-.04,.78l-.62,.11c.27,.31,1.5,.41,.74,.89,.88-.1,.48,.36,.92,.34-.11,.01-.27,.06-.42,.1,.03,.17,.1,.46,.21,.64,.12,.16,.28,.29,.5,.35,0,0,.12-.04,.3-.11,.19-.08,.45-.15,.74-.31,.59-.29,1.3-.52,1.77-.57-.27,.31,.09,.1,.39,.08l-.21-.06c.23-.17,.77-.06,.93-.12-.04,0-.1-.02-.15-.02l.07,.03c-.1,0-.16-.03-.21-.05-.11-.02-.2-.05-.16-.09l.05,.02c-.06-.09,.05-.21,.1-.26l.44,.1c-.37-.15-.1-.29,.33-.37,.42-.08,.98-.08,1.19-.1,.04,0,.07-.02,.08-.03,.58,.11,.02-.4,.36-.48,.27-.26,.68,.1,1.1,.09,.35-.09-.5-.17-.5-.26h.68c0,.17,.27,.2,.45,.24,.16-.18,1.06-.18,.26-.6,.52-.11,.85,.04,.94-.06-.17-.03-.34,0-.51-.08,.41,.05-.07-.09-.17-.08-.29-.33,1.89-.22,1-.65l.17,.07c-.66-.34-1.34-.56-1.66-.84l.34,.05-.24-.25c.25,.02,.42,.14,.5,.17-.23-.33,.26-.44,.46-.63l-1.95-.57c.51-.01,1.54,.02,.96-.29l.67,.16c1.35,.14-.39-.51,.04-.5l.76,.11-.1,.19c.43-.04,.68-.02,1.19,.03h-.02s-.07-.02-.11-.04v-.03c-.33-.18-.51-.38-.42-.51,.18-.15-.24-.53,.61-.51l-.65-.4,.52-.04,.54,.26c-.14,.21-.13,.73-.24,1.04l.25,.12c.08-.17-.07-.48,.04-.57,.13,0,.77,.12,1.08,.39l-.48-.35c.21-.6,.18-.62,1.08-.91l-.3-.08c-.1-.19-.2-.39,.25-.2,.26-.31,.78-.5,1.57-.38l-.61-.37c.07-.06,1.08,.32,.21-.16l-.2-.3c.1-.07-.23-.32,.19-.25h0s0,0,0,0c.03,0,.05,.01,.09,.02-.02,0-.04-.02-.05-.03,.39-.08-.56-.29-.07-.36,.49,.15-.75-.5-.54-.56l.96,.35c.63,.05-.25-.46-.08-.79,.4,.01,1.2,.35,1.82,.82-.74-.58-.5-.35-.79-.75,.35,.15,.41,.21,.69,.42,.48,.05-.25-.26-.16-.38-.61-.38-1.59-.98-1.61-1.04l-.22-.06c-.26-.32-.34-.55,.06-.53l.31,.18-.07-.25,.41,.22v-.3s-.12-.03-.12-.03c-.02-.08-.06-.34,.21-.33l.22,.13c.86,.11,.09-.64,.21-1.02l.43,.31c.51,.15-.68-.45-.37-.45l.56,.33c-.25-.21-.27-.27-.19-.26,.33,.26,.68,.52,1.06,.75,.18-.06,.36-.15,.54-.22,0,0,0,0,0,0h0c.82-.32,1.61-.7,2.32-1.17l-.2-.87c.6,.55,.89,.33,1.11,.06,.23-.27,.4-.58,.96-.32l-.43-.61c.1-.13,.37,.25,.48,.33,.58-.54,.95-1.26,1.31-1.84,.12-.17,.12-.21,.19-.3,.06-.08,.13-.14,.21-.19,.16-.1,.38-.15,.67-.11,.15,.11,.23,.13,.3,.13l1.11,1.38,.25,.06c.16,.04,.27,.12-.06,.69,.64,.39,1.39-.6,2.01,.22,0,1.12,1,1,1.55,1.17,1.2-.29,1.9-.7,2.87-1.12,.38,.72,.76,.53,1.1,.27,.33-.28,.62-.62,1.01-.29v-.61c.65,.81,.86-.46,1.63,.23,.03-.29,.06-.38,.08-.41-.03-.02-.1-.11-.25-.46,.23,.2,.36-.21,.62,.49v.08c.25,.7,.27-.48,.65,.05l-.39-.7,.29,.02v.17c.15-1.03,.55-1.02,.96-1,.41,.03,.83,.06,.84-.87,.32,.82-.07-.49,.41,.34,.8,.92,.25-.44,.24-.81Zm-16.54-9.1l-.14-.14s.05-.08,.07-.12c.07,.14,.15,.28,.15,.32l-.09-.05Zm.6,.29l-.4-.55c-.07-.08-.13-.13-.18-.18,.02-.04,.05-.06,.09-.08,.2,.09,.33,.16,.34,.19h.11c.12,.19,.24,.38,.35,.57-.02,.03-.04,.06-.07,.08-.24-.25-.43-.4-.24-.03Zm-.32-2.38c.09,.08,.15,.13,.19,.15,0,.08,0,.17-.03,.26-.02,0-.04,0-.06,0-.04-.06-.08-.11-.12-.17-.13-.2-.2-.36,.02-.25Zm7.89,3.23c.02-.08,.04-.13,.05-.17,.01-.04,.02-.07,.03-.1,0-.01,.01-.03,.01-.04l.32,.37c-.09,.09-.16,.18-.23,.24-.17,.17-.3,.16-.19-.3Zm2.79,3.01c-.06-.1-.1-.23-.12-.31,0,0,0-.02,0-.02l.74,.86c-.31-.14-.5-.32-.62-.53Z"/><polygon class="cls-1" points="524.93 100.98 524.94 100.97 524.62 100.66 524.93 100.98"/><path class="cls-1" d="M527.18,98.8c-.19,.02-.15,.08-.06,.17,.06-.02,.08-.07,.06-.17Z"/><path class="cls-1" d="M531.34,101.18l-.02-.26c-.03,.07-.01,.16,.02,.26Z"/><path class="cls-1" d="M461.09,99.1h0c.1,.12,.18,.22,.25,.3l-.24-.3Z"/><path class="cls-1" d="M459.21,99.52s-.02-.01-.03-.02c.06,.07,.12,.13,.03,.02Z"/><path class="cls-1" d="M468.67,95.42s0,0,0,.01c.01,.03,.02,.05,.03,.09l-.03-.1Z"/><path class="cls-1" d="M468.67,95.43c-.08-.19-.11-.2-.13-.1,.05,.23,.11,.18,.16,.34-.05-.1-.04-.21-.03-.24Z"/><path class="cls-1" d="M447.36,96.14l.04-.26s-.02,.06-.03,.11c0,.05,0,.09,0,.14Z"/><path class="cls-1" d="M447.39,91.77v-.02s0,.07,0,.07c0,0,0,0,0,0,0-.02,0-.03,0-.05Z"/><path class="cls-1" d="M447.32,91.28s-.01-.07-.02-.11l.05,.36s0-.05-.01-.09c0-.06-.01-.11-.02-.16Z"/><path class="cls-1" d="M447.2,90.46s0,0,0,0c0-.02,0-.04-.01-.07,0-.04,0,.04,0,.06Z"/><path class="cls-1" d="M447.45,94.09s0,.03,0,.01c0-.01,0,0,0-.01h0s0,0,0,0Z"/><path class="cls-1" d="M470.28,82.68s0,0,0,.01c.03,.01,.05,.02,.08,.04l-.09-.06Z"/><path class="cls-1" d="M470.28,82.7c-.19-.09-.2-.1-.14-.02,.18,.14,.18,.09,.32,.19-.1-.05-.16-.13-.18-.17Z"/><path class="cls-1" d="M40.28,69.24c-.1,.08-.08,.16,0,0h0Z"/><path class="cls-1" d="M102.29,31.61c-.02,.07-.02,.09-.04,.16,.23-.07,.42-.11,.57-.13l-.53-.03Z"/><path class="cls-1" d="M93.76,56.24s-.05,.05-.08,.07c.12,.03,.23,.08,.08-.07Z"/><path class="cls-1" d="M86.79,18.55c.1-.12,.2-.24,.31-.33-.13,.07-.23,.19-.31,.33Z"/><path class="cls-1" d="M79.02,46.02c-.03,.06-.05,.12-.08,.18,0,0,.04-.07,.08-.18Z"/><path class="cls-1" d="M4.19,128.56l-.38-.32c.14,.17,.26,.26,.38,.32Z"/><path class="cls-1" d="M68.59,134.81l-.35-.28c.03,.15,.09,.25,.16,.32,.06,0,.12-.02,.19-.04Z"/><path class="cls-1" d="M61.5,130.14v-.07c-.42-.02-.27,.1,0,.07Z"/><polygon class="cls-1" points="78.95 96.31 78.92 96.42 79.59 96.15 78.95 96.31"/><path class="cls-1" d="M74.72,118.48c.29-.97,.2-1.03,.01-.92-.08,.36-.1,.67-.01,.92Z"/><path class="cls-1" d="M62.46,139.71c.04,.66,.26,.38,.5-.03-.13-.65-.18-1.1-.18-1.1-.07,.36-.26,.74-.31,1.13Z"/><path class="cls-1" d="M67.94,136.81l.35,.15c-.1-.32-.22-.3-.35-.15Z"/><path class="cls-1" d="M99.59,77.08c-.07-.34-.14-.7-.24-1.07-.12-.4-.26-.81-.42-1.23,.14,.4,.27,.8,.39,1.2,.09,.36,.18,.72,.27,1.1Z"/><path class="cls-1" d="M84.09,84.22s0,0-.01,0c0,0,0,0,0,0,0,0,0,0,.01,0Z"/><path class="cls-1" d="M13.39,108.31l-.02-.02s-.02,0-.03,0c.02,.01,.04,.02,.05,.03Z"/><path class="cls-1" d="M94.99,74.86c1.87,0,3.29,.41,3.56,.3,.34,.93,.48,1.74,.56,2.45,.08,.71,.08,1.26,.05,1.52,.13-.22,.18-1.19,0-2.32-.07-.54-.25-1.19-.49-1.8-.23-.6-.5-1.16-.76-1.58-.24,0-.47,0-.7,0-1.18-1.7-1.36-1.87-1.4-2.14-.09-.26-.05-.52-1.39-1.66,.08-.26,.8,.1,1.68,.88,.99,.95,2.14,2.46,2.81,4.26-.56-1.63-1.36-3.01-2.23-4.09-.22-.29-.41-.49-.6-.66-.19-.18-.37-.34-.55-.48-.36-.27-.7-.45-1-.51-.48-.45-.59-.58-.65-.71-.05-.12,0-.18,.05-.24,.09-.12,.16-.3-.86-1.02-.2-.09-.41-.18-.63-.27-.18-.06-.36-.11-.55-.16-.38-.09-.77-.19-1.16-.29-.13-.04-.23-.06-.34-.08,.74-1.6,1.61-3.03,2.56-3.98l-.79-.65c.22-.57,1.84-1.03,.66-1.69l-.03-1.36c.3-.77-.07-1.41,.72-2.16h0s0,0,0,0c.05-.05,.1-.09,.16-.14-.03,0-.05-.01-.08-.01,.93-1.68-.82-.22,.31-2.12,.21-.12,.26-.24,.22-.38-.04-.14-.12-.43-.25-.65-.23-.48-.5-1-.15-1.8,.61-.48,1.24-1.01,1.88-1.59,.89-1.61,1.03-2.62,1.1-3.7,.07-1.1,.07-2.27,.74-4.52,1.2-2.34,2.98-4.32,3.74-3.26-.42-.79-.6-.88-.65-1.15-.05-.25,.02-.66,.05-1.85,.77-.82,.83-.63,1.21-.31,1.51-3.12-.12-1.26,.44-3.19-1.1,.32-2.97,1.26-2.91,.8l-.57,.93c-.21-1.21-.07-2.63,.92-4.97l.64-.55c-.02-.5-.01-1.02-.08-1.44l.84-.94c0-.72-.1-1.32-.2-1.89l-.2,.5c-.05-.18-.16-.56-.2-1.04-.06-.46-.08-1,.05-1.56l.39-.44c.46-1.72,.12-2.35-.31-2.78-.45-.42-.94-.7-1.23-1.52l.54-.48c.2-1.2-.74,.91-.81-.11l.48-.81c-.25,.12-.4,.1-.52,0-.1-.1-.3-.3-.3-.39-.06-.23,.01-.65-.1-.89l-.4,1.06c-.26-.08-.52-.16-.77-.26-.77-.44,.27-1.63,.75-2.2-.39,.26-.76,.52-1.19,.85l.48-1.17c-1.26,1.36-.41-.29-1.74,.42,.17-.51,.54-.77,.33-1.02-.41,.28-.82,.58-1.23,.89-.19,.14-.45,.37-.68,.59l-.72,.66c.51-.41,1.09-.91,1.51-1.13l-1.08,2.06c-.23,.21-.42,.38-.58,.54-.17,.15-.32,.26-.44,.33-.25,.15-.41,.16-.55,.13-.28-.05-.46-.27-1.01,.2l.86-.88c-.81,.51-1.13,.55-1.33,.41-.1-.07-.17-.18-.25-.29-.08-.11-.16-.25-.37-.2,.04,.06,.08,.13,.1,.21,.02,.1,.02,.22,0,.34-.02,.12-.07,.24-.15,.37-.08,.12-.2,.24-.4,.45-.54,.46,.03-.65-.36-.6-.68,1.65-2.08,3.27-2.92,3.24,.08-.23,.16-.46,.27-.65-.35,.44-.6,.93-.97,.88l.75-1.92-1.36,2.26c-.55,.05-1.77,2.06-1.45,.85l.45-.64-2.52,1.84-1.27,.92c-.21,.16-.42,.29-.64,.48l-.67,.57-.03-1.15c-.31,1.09-1.04,1.61-1.7,2.12-.66,.51-1.24,.99-1.07,1.85-.55-.05-1.54,1.07-2.33,1.84-.78,.81-1.4,1.39-1.35,.13-1.88,1.86-3.16,3.71-4.46,5.47-.65,.88-1.34,1.77-2.11,2.69-.2,.23-.4,.46-.61,.69l-.25,.27-.21,.21c-.29,.27-.61,.55-.99,.82-1.94,.02-3.88,3.01-5.49,4.68-2.45,3.85-3.86,6.44-6.35,10.31-3.26,.95-3.69,5.83-6.34,7.51l.14,1.12c-2.19,.81-2.74,4.14-5.35,5.63-.12,.75-.25,1.09-.31,1.24,.1-.08,.33-.15,.77,.1-.74,.43-1.32,1.97-2.06,1.3l.03-.22c-.74-.68-1.02,2.21-2.23,2.41l1.15,.23-1.02,1.1,.07-.44c-.63,2.31-1.58,3.87-2.62,5.18-2.54,.74-4.97,1.38-5.97,1.56-.83,1.08-2.37,1.07-3.27,1.9l.05-.2c-.52,.34-2.45,.98-4.4,1.66-1.95,.68-3.93,1.41-4.54,1.81l.22,.02c-.97,.91-1.13,.12-2.15,.29,.45,.69-.35,1.55-.7,1.78l-.06-.17c-.51,.38-1.51,1.62-2.4,2.17l-.16-.42c-.58,.81-2.15,1.38-2.71,1.74-.7,.27-1.66,.52-2.68,.96-1.01,.43-2.1,1.06-3.06,2.17-.68-.02-1.68,.28-2.42,.42l-.12,.3s.51,.82,1.44,2.02c.92,1.2,2.25,2.73,3.76,4.22,2.99,3.01,6.66,5.74,7.89,6.84l.28,.31c.15,.04,0-.36,.22-.02-.06,.03-.18,.08-.19,.08,.05,.04,.16,.08,.2,.18,0,.02,.02,.04,.03,.06-.05-.07-.1-.13-.14-.16-.09-.04-.15-.05-.16,.01,.16,.13,.27,.19,.34,.23,.03,.06,.07,.11,.13,.16-.02,.06,.14,.02,.23,.12-.08-.15-.13-.13-.2-.2-.07-.15-.12-.62,.16-.56,.27-.13,.38,.43,.66,.43-.33,.48-.66,.95-1.01,1.41l.5-.03c-.95,1.38-1.64,3.4-2.86,4.14-1.23,.74-.56,2.92-.76,3.37-.12,1.56-1.98,1.91-1.61,1.44-.6,1.38-.07,3.33-1.66,4.79-1.55-.09-1.7,5.55-3.06,4.83l.1,.08c-2.27,1.78-1.89,4.86-4.12,6.97,0,0-.07-.1-.12-.24,.45,2.47,.9,4.98,1.55,7.4,1.81,.14,3.58,.37,5.32,.67,.98-.4,1.93-.77,2.9-1.15l2.94-1.11c1.78-3.92,3.74-7.9,5.75-11.86,2.27-2.76,4.59-5.5,6.91-8.22,4.35-7.34,8.84-14.61,13.45-21.81,3-.84,6.83-1.96,7.94-2.51-.37-.36-.83,.11-1.27-.51,.35-.54,.74-.09,.82-.57,.52,.97,1.12-.09,1.82,.84l-.05-.63,.35,.28c1.89-1.27,.38-.45,2.27-.9,1.04-.42,1.3-1.4,1.99-1.28-.09,.02-.44-.27-.2-.5,.2,.5,.63-.59,.92-.11,.25-.15,1.16-.35,.65-.96,.26,.31,1.09,.22,.71,.66,.27-.06,.56-.03,.71-.24l-.4-.1c.87-.37,1.52,.04,1.92-.77l-.41-.19c.53-.2,.96-.38,1.37,.26l-.49,.37c.89-.27,1.41-.47,2.05-1.05l-.27,.05c.75-.98,5.56-2.86,6.23-3.94l-.54-.45,.65-.65c-.09,.02,.07,1.87-.05,1.71,.31-.09,.89-.25,1.62-.45-.45,1.65-.92,3.6-1.34,5.56-1.02,4.7-1.75,9.49-1.68,10.31l1.62-1.75c-.84,6.54-2.63,9.35-2.59,15.17l-.21-.35c-.2,.39,.34,.81,.37,2.2,.04,1.42-.5,3.71-2.59,8.31h-.12c0,.33,.23,.34-.14,.98l.88-1.59c.21,1.01,.72,1.92,.72,3.24-.15,.27-.4,.36-.6,.37,0,1.1,.03,2.2,.09,3.33l-.79,1.04c.45,1.08,2.03,.5,1.27,3.4,1.06-1.15,.79,1.37,1.35,.97-.13,.15-.3,.51-.47,.8,.16,.86,.46,2.13,.9,3.3,.43,1.17,1.04,2.25,1.48,2.59,0,0,0-.13-.01-.36,0-.23-.02-.56,0-.94,.02-.78,.12-1.78,.33-2.77,.4-2,1.19-3.97,1.77-4.79-.18,2.16,.17,.55,.53,.11l-.29-.13c.23-1.28,.96-1.29,1.15-1.91-.06,0-.13,.02-.2,.04l.1,.08c-.13,.06-.22,.03-.29-.04-.15,.02-.28-.04-.24-.38l.08,.06c-.11-.52,.02-1.42,.08-1.81h.6c-.56-.46-.07-2,.63-3.52,.69-1.52,1.59-3.02,1.68-3.62,.89-1.12,.13-2.72,.72-4.18,.54-2.37,1.04-1.07,1.74-2.18,.61-1.43-.74,.19-.69-.41l1.12-1.65c-.1,1.05,.35,.54,.61,.39,.35-1.52,1.88-3.74,.79-4.43,.96-1.97,1.44-1.87,1.67-2.75-.28,.25-.59,.8-.83,.76,.68-.73-.05-.42-.23-.1-.28-1.38,3.5-6.1,2.28-6.64l.24,.05c-.9-.51-1.93-.24-2.27-1.24l.56-.49-.21-.98c.45-.53,.64-.17,.75-.15-.11-1.55,.89-3.45,1.44-5.16l-3.05,1.24c.95-1.35,2.83-3.71,2.06-4.21l1.1-.67c2.41-2.54-.21-2.25,.6-3.3l1.33-1.24-.4,1.47c.86-1.35,1.32-1.86,2.25-2.87,0,0-.01-.02-.02-.02-.06,.07-.12,.11-.18,.11l.03-.21c-.43-.3-.55-1.16-.25-2.19,.02-.04,.02-.09,.04-.13,.2,0,.41,.01,.59,.04,0,.02-.01,.04-.01,.05h-.04s-.03,.17-.03,.17c-.08,.14-.22,.24-.35,.34,.08,.01,.2,0,.29,.03l-.25,1.67c.05,.03,.09,.09,.15,.1,.24-.27,.49-1.07,.74-2.12l-.26-.1c.13-.18,.27-.3,.37-.35-.04,.15-.07,.31-.11,.45l.34,.13c.05-.2,.1-.41,.14-.63,.02,0,.06,.02,.07,.02,.03-.14,.12-.44,.19-.64,.07-.23,.15-.45,.24-.67,.09-.22,.11-.36,.17-.54,.12-.33,.25-.65,.41-.94,.02-.03,.07-.13,.14-.27,.04-.11,.11-.26,.21-.44,.04-.06,.07-.12,.11-.19,.04-.06,.09-.13,.13-.2,.24-.03,.46,.07,.58,.41l-.37-.71s.03-.04,.04-.06c.26-.38,.55-.77,.88-1.15,.62-.76,1.39-1.49,2.28-2.11,1.74-1.3,4.03-1.8,5.91-1.84Zm-33.33-5.6l.09-.1c-.84,.25-1.86,.54-2.98,.86,5.52-7.89,11.2-15.45,17.49-21.26,.16-.06,.34-.16,.53-.29,.09-.06,.19-.14,.29-.21,.06-.05,.08-.06,.09-.06h.04c.07-.02,.16-.05,.24-.07,.13-.03,.25-.05,.4,.3-.16-.73,.06-1.39,.31-1.84,.27-.45,.55-.69,.77-.79l-.08,.24,.36-.61c-.05,.16-.13,.42-.19,.59,.44-1.06,.71-1.28,.75-1.08,.05,.19-.14,.86-.29,1.26l-.17,.3c.06-.03,.14-.06,.22-.12l.14-.1s.04,.06,.05,.08c.03,.1,.07,.16,.12,.24,.1,.14,.22,.36,.22,.82,0,.44-.09,1.12-.32,1.79l-.13,.37-.45,1.41c-.31,.94-.62,1.88-.93,2.82-.64,1.88-1.32,3.76-2.05,5.65-1.13,2.09-1.93,4.4-2.61,6.82-1.26,.24-2.6,.53-3.92,.84-3.42,.82-6.67,1.78-8,2.14Z"/><path class="cls-1" d="M225.09,120.48h0c.14-.08,.26-.16,.35-.21l-.35,.21Z"/><path class="cls-1" d="M224.96,121.64s0,.03-.01,.04c.04-.09,.08-.18,.01-.04Z"/><path class="cls-1" d="M224.92,115.75s.04,.06,.04,.09c.02-.03,0-.06-.04-.09Z"/><path class="cls-1" d="M225.89,121.92c.02,.11,.03,.2,.05,.28h0s-.05-.28-.05-.28Z"/><path class="cls-1" d="M243.2,113.99l.16,.22c0-.05,0-.1-.04-.15-.04-.02-.08-.05-.12-.08Z"/><path class="cls-1" d="M229.88,121.69s-.03-.08-.06-.12c-.14-.06-.33,.05-.57,.2l.22,.39c.14-.15,.27-.32,.4-.48Z"/><path class="cls-1" d="M247.46,93.49c-.38-1.01-1.05-2.21-2.08-3.25-1.03-1.06-2.39-1.8-3.55-2.16-1.21-.39-2.19-.45-3.05-.46-1.68,.04-2.77,.31-3.98,.68-.26,.38-.48,.76-.69,1.15-1.54-.24-2.93,.59-3.95,1.47-.52,.44-.99,.9-1.46,1.28-.45,.37-.85,.61-1.4,.74l.47,.58c-.37,.39-.66,.02-.84,.02-1.81,1.78-3.39,3.87-4.88,5.92-1.49,2.06-2.89,4.09-4.49,5.87-.65,.15-1.1,1.49-1.71,1.58,.08,1.8-.6,3.23-1.25,4.63l-.05-.08-.14,.72c-.07,0-.15-.02-.2-.06,.34,1-.71,1.97-1.26,2.86l-.06-.08c-.23,.6-.47,1.64-.68,2.54l-.16,.69-.12,.86c-.06,.58-.09,1.15-.08,1.72,.05,2.28,.72,4.45,1.85,6.3,2.3,3.69,6.07,6.25,10.59,6.91,1.04,.34,2.21,.37,3.38,.16,.59-.11,1.18-.27,1.76-.49,.55-.21,1.04-.44,1.55-.68,.28-.13,.46-.23,.64-.34l.57-.31,1.14-.62c.76-.4,1.55-.76,2.4-1.02,.48,.15,2.09-.89,3.42-2.12,1.34-1.23,2.39-2.59,2.46-2.91l-1.14-.15c1.32-1.88,2.67-2.02,3.35-3.87l.08,.21c.17-.03-.11-.41,.05-.85,.08-.22,.26-.45,.66-.66,.4-.21,1.09-.5,2.06-.73l.07,.06c.06-.1-.08-.21,.24-.23l-.78,.09c.03-.4-.14-.89,.07-1.26,.13,0,.3,.08,.42,.16l.49-.9,.65,.11c-.08-.43-1.15-1.06-.14-1.27-.86-.28-.19-.61-.6-.79,.11,.03,.29,.06,.45,.09,.19-.42,.48-1.21,.25-1.64,0,0-.61,.05-1.36,.12-.75,.06-1.63,.11-2.15,.03,.57-.38,.02-.2-.29-.27l.15,.16c-.4,.19-.83-.14-1.07-.07,.04,.02,.08,.05,.13,.08l-.04-.06c.09,.04,.13,.09,.17,.14,.1,.07,.16,.13,.07,.2l-.03-.05c-.03,.18-.27,.35-.37,.42l-.36-.27c.51,.76-2.21,.72-2.45,.95-.67-.09-.43,.72-.96,.9-.61,.47-.75-.15-1.29-.13-.52,.16,.46,.28,.36,.44h-.84c.18-.28-.15-.33-.32-.4-.38,.31-1.49,.3-.93,1.01-.75,.17-1.01-.08-1.23,.08,.18,.05,.41,.03,.55,.15-.46-.09-.01,.16,.12,.14,0,.58-2.55,.24-1.9,.99l-.13-.13c.45,.59,1.05,1.01,1.13,1.49l-.36-.12,.02,.42c-.29-.05-.36-.26-.42-.32-.09,.54-.81,.65-1.27,.89,.57,.4,1.15,.79,1.73,1.17-.66-.04-1.87-.26-1.54,.29l-.63-.37c-1.46-.5-.16,.81-.67,.71l-.78-.35,.35-.24c-.56-.06-.83-.16-1.37-.4v.02s.07,.04,.1,.07l-.04,.05c.16,.33,.12,.67-.15,.8-.4,.11-.42,.77-1.36,.37l.2,.75c-.21-.05-.43-.12-.64-.19l-.25-.54c.44-.15,1.1-.77,1.59-1.1l-.13-.24c-.3,.17-.51,.62-.74,.66-.16-.05-.69-.48-.7-.93l.09,.62c-.47,.28-.76,.42-.99,.46-.1,0-.2-.02-.33-.07-.14-.04-.28-.12-.4-.26l.1,.28c-.04,.2-.12,.4-.22-.08-.27-.03-.53-.42-.45-1.22l-.16,.73c-.05-.04,.2-1.15-.08-.14-.05,.1-.12,.2-.18,.3-.03-.07-.24,.32-.14-.11h0s0,0,0,0c0-.03,.02-.05,.02-.09,0,.02-.02,.04-.03,.06,.02-.35-.29,.61-.26,.15,.23-.5-.54,.81-.56,.59,.17-.33,.35-.65,.54-.96,.29-.57-.41,.29-.6,.09,.2-.37,.93-.94,1.57-1.47-.79,.63-.5,.41-.92,.66,.33-.25,.41-.29,.71-.5,.39-.28-.31,.2-.31,.16-.66,.4-1.73,.99-1.8,.98l-.19,.16c-.42,.1-.67-.02-.37-.32l.36-.14c-.08-.03-.15-.06-.23-.09l.46-.16c-.06-.05-.13-.1-.18-.16l-.12,.06c-.07-.03-.25-.19,0-.32l.26-.03c.83-.32-.26-.32-.21-.86l.5,.16c.56-.09-.79-.18-.47-.36l.64,.11c-.78-.36,.24-.21,.58-.24l-.84-.15,.24-.2c.36-.24,1.09,.09,1.49,.28l-.56-.44,.73,.17c-.77-.44,.19-.14-.15-.6,.28,.06,.41,.19,.55,.12-.28-.28-.56-.58-.83-.87l.33,.47-1.02-.38c-.67-.61,.28-.43,.08-.77l.24,.28c-.1-.49,.34-.35,.65-.49-.21,0-.54,0-.61-.21-.01-.14,.38,.07,.53,0-.67-.28-.92-.71-.49-.84,.09,.04,.18,.08,.24,.13-.08-.11-.24-.21-.03-.26l.72,.37-.62-.51c.26-.06-.19-.5,.31-.27l.11,.15c.2-.34,.44-.67,.66-1l.59,.26c-.75-.48,.57-.43-.45-.88,.64,.07,.02-.97,1.07-.29,.42-.62-.41-1.57,.58-2.09,1.1,.27,1.24-.68,1.69-1.1,.28-1.21,.41-2.07,.92-3.24,1.59,.37,.79-1.76,1.98-1.8l-.28-.56c1.03,.24,.8-1.14,1.97-1.03-.05-.31-.03-.44-.02-.48-.04,0-.16-.04-.43-.3,.32,.04,.43-.42,.83-.03-.05,.01-.08,.03-.13,.04,0,0-.05-.07-.08-.15,.43,1.22,.81,2.49,1.22,3.73l3.09,2.35c1.09,.38,2.2,.75,3.34,1.07,.93-1.28,2.07-2.8,3.01-4.8,1.25-1.25,2.39-3.03,3.11-4.97,.14-1.26,.2-2.32,.03-3.83-.08-.72-.27-1.64-.64-2.63Zm-10.94,5.62s.01,.02,.02,.03c-.02-.01-.03-.02-.02-.03Zm-.05-1.83h0s0,0,0,0Zm-1.22,4.52v.06c-.03,.11-.08,.23-.13,.34l-.28-.22,.4-.18Zm.66-.61l.07,.07c-.39-.02-.55,.18-.66,.43,.19-1.02,.64-1.25,1.08-1.36-.03,.11-.02,.28-.02,.46,.01,.38-.03,.77-.48,.4Zm.85-.94s.09-.03,.14-.04c-.03,.02-.06,.04-.11,.05-.01,0-.02,0-.03,0Zm1.85-1.15s0,.02,0,0h0Z"/><path class="cls-1" d="M246.7,118.34v.02c.24,.19,.17,.09,0-.02Z"/><polygon class="cls-1" points="232.68 120.75 232.71 120.73 232.34 120.47 232.68 120.75"/><path class="cls-1" d="M237.13,116.13c.09-.07,.14-.16,.11-.28-.28,.17-.23,.23-.11,.28Z"/><path class="cls-1" d="M247.84,115.8c.12-.12-.07-.18-.3-.23-.07,.16-.13,.27-.13,.27,.12-.03,.31,0,.42-.04Z"/><path class="cls-1" d="M244,113.82l-.17-.19c0,.12,.07,.17,.17,.19Z"/><path class="cls-1" d="M145.47,111.38s0,.02,0,.02c.13,.08,.23,.16,.32,.21l-.31-.23Z"/><path class="cls-1" d="M144.1,112.21s-.03,0-.05,.01c.1-.02,.21-.03,.05-.01Z"/><path class="cls-1" d="M149.83,102.35s.01,.07,0,.1c.03-.02,.02-.06,0-.1Z"/><path class="cls-1" d="M153.05,104.09s0-.02,0-.03c-.04,0-.06,.01-.11,.01l.11,.02Z"/><path class="cls-1" d="M152.88,103.88c.15-.06,.17,.13,.18,.19,.24-.02,.32-.13,.29-.29-.21-.11-.29,.13-.47,.11Z"/><path class="cls-1" d="M143.53,113.35c-.15,.09-.27,.16-.37,.23h0s.37-.23,.37-.23Z"/><path class="cls-1" d="M141.89,116.77l-.58,.69c.13,.02,.25,.03,.39,.03,.05-.07,.1-.13,.16-.2,.12-.24,.11-.4,.03-.52Z"/><path class="cls-1" d="M158.13,121.68h0s.02,0,.02,0h.05s.19-.03,.19-.03c.25-.03,.53-.05,.61-.05,.26-.04,.52-.03,.78-.08-.14-.18-.12-1.05-.28-2.54-.05-.42-.14-.91-.26-1.42,.37-.46,.7-.81,1.06-1.23,.94-2.67,1.92-5.23,3.04-7.64l-.5-.91c.67-.22,1.06-.61,1.36-1.09,.34-.54,.33-.79,1.09-2.07,.26-.61,.62-1.16,.87-1.76,.24-.6,.46-1.2,.73-1.79l-.73-.2c.03-.95,.48-.84,.62-1.07v-.87s-.02-.45-.02-.45l-.02-.39c-.03-.4-.07-.79-.13-1.19-.11-.8-.25-1.58-.49-2.56-.08-.28-.13-.48-.24-.83-.12-.34-.19-.61-.45-1.19-.13-.27-.17-.41-.54-1.01-.16-.24-.33-.48-.51-.7l-.14-.17-.07-.08-.03-.03-.11-.11c-.28-.28-.58-.55-.92-.82-.66-.52-1.43-.98-2.22-1.29-.78-.32-1.54-.5-2.23-.6-1.36-.19-2.36-.11-3.11-.06l-.53,.04-.68,.06c-.47,.05-.94,.12-1.4,.2-1.86,.34-3.61,.96-5.15,1.61-.85-.1-2.22,1.24-2.87,1.13-.48,.98-1.05,1.81-1.57,2.48-.53,.66-1.13,1.25-1.72,1.82l-.02-.1-.41,.67c-.07-.02-.14-.07-.16-.13-.08,1.09-1.46,1.7-2.33,2.41l-.03-.1c-1.84,2.28-3.14,4.85-4.23,7.44l-.82-1.5-2.62-2.82-1.44-1.18,.13-.23,.43,.41c-.1-.32-.87-1.29-.23-.9-.59-.63-.19-.5-.47-.83,.08,.07,.19,.19,.3,.29,.08-.18,.21-.57,.01-.98,0,0-1.61-1.06-2.3-1.69,.34,.04,0-.12-.22-.33l.11,.18c-.24-.08-.56-.52-.71-.6,.03,.03,.06,.08,.09,.12l-.04-.06c.06,.07,.1,.13,.12,.18,.07,.09,.12,.17,.07,.17l-.03-.05c0,.1-.14,.09-.2,.09l-.27-.36c.42,.76-1.38-.62-1.52-.55-.46-.37-.19,.31-.51,.2-.33,.06-.52-.44-.87-.66-.32-.11,.35,.4,.31,.47l-.56-.36c.07-.12-.15-.3-.27-.42-.2,.06-.96-.4-.46,.35-.48-.18-.7-.46-.82-.42,.13,.11,.29,.17,.4,.32-.33-.25,.02,.11,.11,.15,.12,.41-1.71-.75-1.12,.05l-.11-.14c.43,.6,.93,1.12,1.09,1.51l-.27-.21,.11,.32c-.21-.14-.31-.31-.36-.38,.07,.38-.4,.24-.64,.31l1.47,1.39c-.44-.24-1.31-.74-.93-.22l-.53-.44c-1.14-.72,.16,.61-.21,.41l-.63-.42,.16-.12c-.4-.15-.62-.28-1.06-.53v.02s.07,.04,.1,.07v.03c.22,.29,.3,.55,.18,.63-.22,.06,.03,.57-.74,.21l.46,.61-.48-.16-.41-.43c.2-.15,.38-.62,.59-.86l-.18-.21c-.14,.13-.12,.47-.25,.5-.12-.05-.67-.4-.86-.77l.31,.51c-.1,.12-.18,.21-.25,.29-.1,.1-.2,.17-.31,.23-.22,.12-.5,.18-1.11,.32l.29,.13s0,.09,0,.14c-.09,.05-.18,.11-.27,.16-.05-.02-.08-.03-.14-.07-.16,.12-.36,.22-.57,.31-.41-.3-.85-.59-1.32-.85-.25,.1-.48,.23-.72,.34-.16-.34-.33-.69-.49-1.03-.84-.97-1.69-1.93-2.55-2.88-.86-.64-1.76-1.26-2.68-1.85-.51,.74-.99,1.48-1.41,2.23-.76,.19-1.51,.41-2.26,.65-.97,1.33-1.78,2.69-2.5,4.01l.55,.74c-1.76-.09-.85,1.77-2.23,1.98l.64,.39c-.09,.24-.48,0-.62-.02-.18,.36-.32,.73-.46,1.1-.24,.58-.49,1.17-.73,1.75-.09,.3-.18,.61-.27,.91-.09,.29-.21,.6-.22,.89-.01,.31-.02,.63-.03,.93v.46c-.02,.15-.02,.29-.02,.56v.16s0,.03,0,.03v.06s-.03,.12-.03,.12c-.01,.08-.04,.15-.09,.22-.09,.15-.21,.28-.41,.39-.49-.04-.29,.3-.82,.22,.79,.57,.6,1,.34,1.34l-.07-.05c.02,.08,.04,.16,.05,.25-.06-.02-.14-.06-.19-.09,.48,.51-.27,.57-.67,.72l-.06-.06c-1,1.58-1.2,4.26-3.41,6.43-1.68,.68-.69,2.68-2.11,3.42-.39-.04-.69,.58-.86,1.18-.16,.61-.2,1.22-.08,1.38l.93,.16c.03,.92-.93,.81-.58,1.7l-.16-.12c-.11-.01,.27,.24,.35,.45,.08,.21-.17,.41-1.45,.1l-.08-.05s.15,.13-.09,.05l.55,.18c.14,.2,.46,.51,.44,.65-.1-.03-.26-.13-.38-.21h0s-.06,.11-.06,.11l-.13,.23c-.08,.15-.16,.31-.24,.47-.13,.29-.23,.57-.31,.86-.06,.24-.12,.49-.15,.72-.03,.2-.05,.41-.06,.6-.21,.16-.43,.39-.63,.55,.15,.26,.54,.35,.81,.46,.27,.13,.41,.34,.1,.69,.42-.16,.55-.09,.64,0,.08,.08,.12,.17,.33,.11-.1,.04-.25,.1-.4,.16,.07,.13,.16,.23,.29,.25,.03,0,.07,.02,.1,0,.35-.03,.7-.05,1.01-.05,.19-.01,.35-.02,.49-.02-.16,0-.35,0-.61,.02h-.15s.04,0,.04,0h.08c.05-.01,.11-.02,.17-.04,.12-.03,.25-.07,.39-.13,.54-.22,1.18-.67,1.63-.83-.2,.39,.11,.08,.39,0h-.21c.19-.25,.74-.26,.89-.36-.04,0-.1,0-.15,0h.07c-.1,.02-.16,.02-.22,0-.12,0-.21-.01-.17-.07h.06c-.08-.08,.03-.26,.08-.33l.44,.09c-.2-.08-.2-.19-.08-.27,.14-.08,.35-.04,.6-.02,.49,.05,1.1,.13,1.16,.06,.59,.13,.1-.44,.47-.5,.32-.26,.67,.16,1.11,.18,.37-.08-.49-.21-.46-.32l.7,.04c-.04,.18,.25,.23,.42,.28,.19-.19,1.12-.18,.36-.67,.54-.12,.87,.04,.98-.08-.17-.03-.35,0-.51-.08,.42,.05-.06-.1-.16-.09-.26-.35,1.97-.29,1.09-.76l.16,.08c-.65-.35-1.33-.58-1.65-.88l.34,.05-.23-.26c.26,.01,.42,.13,.5,.17-.21-.35,.29-.48,.49-.7l-1.96-.54c.52-.02,1.55-.04,.97-.33l.68,.14c1.37,.08-.39-.52,.04-.53l.77,.07-.1,.21c.43-.07,.69-.06,1.2-.04h-.02s-.07-.02-.11-.03v-.04c-.33-.17-.52-.38-.44-.51,.18-.16-.25-.54,.6-.56l-.66-.37,.52-.07,.55,.24c-.13,.22-.11,.75-.21,1.08l.25,.11c.08-.18-.08-.5,.02-.59,.13-.01,.77,.08,1.1,.35l-.49-.34c.19-.62,.17-.64,1.05-.94l-.3-.07c-.11-.19-.22-.37,.24-.2,.25-.3,.75-.48,1.52-.33l-.61-.36c.07-.05,1.07,.34,.2-.14l-.21-.28c.09-.06-.24-.3,.18-.21h0s0,0,0,0c.03,0,.05,.01,.08,.02-.02,0-.04-.02-.05-.03,.38-.05-.56-.3-.08-.33,.48,.17-.74-.52-.53-.56l.95,.38c.63,.08-.25-.45-.06-.77,.4,.03,1.19,.4,1.79,.89-.72-.61-.49-.37-.76-.78,.34,.17,.4,.23,.67,.45,.48,.07-.24-.28-.14-.39-.59-.41-1.55-1.04-1.56-1.11l-.22-.07c-.25-.34-.31-.58,.1-.56l.31,.19-.05-.27,.4,.23,.03-.33-.13-.03c-.02-.09-.03-.37,.24-.36l.22,.14c.89,.08,.15-.73,.31-1.18l.42,.32c.53,.12-.68-.45-.35-.48l.56,.31c-.65-.57,.27-.1,.61-.05l-.76-.37,.27-.11c.37-.09,1.01,.38,1.38,.63l-.5-.48,.67,.33c-.7-.53,.19-.05-.11-.48,.26,.12,.37,.25,.52,.23l-.75-.83,.3,.42-.95-.53c-.62-.59,.25-.24,.06-.53l.23,.25c-.11-.37,.31-.18,.6-.22-.2-.04-.51-.11-.58-.28-.02-.1,.36,.13,.51,.11-.64-.34-.9-.68-.51-.71,.09,.05,.18,.09,.24,.13-.09-.09-.25-.2-.05-.2l.71,.38-.63-.47c.08,0,.08-.04,.07-.09,.17,.17,.29,.24,.23-.04l.02,.02,.02,.06s-.01-.04-.02-.05l.07,.07c.18-.22,.35-.47,.51-.72l.6,.23c-.8-.4,.5-.34-.55-.7,.41,.04,.22-.29,.33-.4,.24,.21,.42,.39,.72,.7v-.02s-.05-.05-.08-.09v-.03c-.11-.22-.17-.4-.17-.51,.05,.02,.1,.03,.16,.06,.06-.12,.06-.24,.03-.36,.06-.03,.17,0,.43,.22l-.39-.65,.4,.27,.36,.48c-.16,.07-.3,.45-.48,.6l.14,.23c.12-.08,.11-.38,.21-.39,.1,.08,.56,.52,.72,.9l-.26-.53c.35-.34,.31-.35,1.14-.14l-.23-.2c-.04-.2-.08-.39,.26-.04,.29-.12,.75-.04,1.44,.35l-.47-.53c.05,0,.85,.72,.16,0l-.16-.28c.07,0-.19-.31,.14-.06h0s0,0,0,0c.02,.02,.04,.03,.07,.05l-.04-.04c.3,.14-.45-.45-.07-.25,.38,.33-.6-.67-.44-.6l.76,.67c.49,.33-.21-.4-.09-.53,.31,.2,.95,.78,1.46,1.36-.61-.71-.41-.45-.65-.84,.28,.26,.33,.32,.56,.58,.38,.25-.21-.28-.14-.31-.5-.52-1.3-1.34-1.31-1.39l-.18-.14c-.22-.32-.3-.5,.01-.3l.26,.26-.07-.19,.33,.32-.02-.19-.1-.08c-.02-.06-.07-.24,.14-.11l.18,.18c.68,.45,.02-.37,.08-.56l.36,.38c.42,.32-.57-.58-.33-.45l.46,.45c-.56-.64,.19,.07,.45,.26l-.62-.58,.19,.07c.27,.13,.8,.7,1.11,1.02l-.43-.51,.49,.46c-.06,.06-.15,.12-.27,.19,.21,.28,.46,.47,.73,.61,.29,.15,.6,.24,.89,.34,.59,.19,1.19,.38,1.78,.95,.15,1.25,1.8,1.3,2.39,1.42,.4-.07,.62-.18,.88-.28,.26-.1,.48-.2,.65-.31,.19-.11,.37-.21,.56-.32,.16-.11,.34-.21,.52-.32,.64,1.42,.98-.64,1.64,.09l.03-.6c.53,.86,.77-.39,1.46,.38,.04-.28,.08-.38,.1-.4-.03-.02-.09-.12-.2-.48,.2,.21,.36-.18,.56,.54v.08c.19,.72,.28-.45,.63,.11l-.33-.73,.28,.05v.17c.2-1.03,.61-.97,1.03-.93,.42,.05,.88,.1,.94-.84,.28,.84-.04-.49,.4,.35,.78,.95,.28-.44,.29-.81-.02-.04-.05-.09-.07-.16l.35-.06c.43,1.14-.29-.98,.06,0,1.03,.29,1.5-.65,2.21-1.07-.25,.7-.5,1.41-.72,2.11-.76,2.24-1.37,4.47-1.9,6.76-.83,2.29-.46,4.19,.19,5.83,.66,1.67,1.6,3.23,2.63,5.08,.01,.28,.38,.85,1.08,1.43,.69,.6,1.74,1.18,2.84,1.54,1.11,.35,2.21,.47,3.04,.41,.83-.05,1.4-.22,1.57-.32l-.57-.91c1.32-.33,2.18-.45,3.05-.65,.85-.22,1.71-.54,2.74-1.68l-.11,.32c.16,.03,.26-.61,.73-1.18,.24-.29,.56-.56,1.07-.77,.51-.21,1.2-.34,2.31-.55l.03,.1c.12-.14,.05-.36,.39-.35-.28,.02-.55,.02-.81,0,.28-.63,.42-1.46,.85-2.06,.14,0,.26,.15,.33,.29,.37-.52,.74-1.07,1.1-1.63,.05,0,.11,0,.16,.01,.08,.89,.18,1.79,.78,2.63,.33,.08,.76,.16,1.44-.01,.64-.14,1.47-.66,1.98-1.27,.26-.29,.49-.64,.63-.88,.08-.14,.16-.28,.23-.42l.16-.34,.26-.62,.2-.51,.17-.42,.04-.11h0s0-.02,0-.02h0c.08-.01-.65,.08-.34,.04Zm-43.38-10.88s-.06-.06-.09-.1c.05-.03,.08-.04,.14-.08-.04,.06-.05,.12-.05,.18Zm-.11-.09s.08,.07,.11,.09c0,.02,0,.05,0,.07-.05-.04-.11-.09-.16-.14,.01,0,.03-.02,.04-.02Zm-.42,.03c-.42-.5-.08-.21,0-.19,0,.01,0,.02,0,.03,.03,.15,.1,.28,.35,.17,.06,.04,.12,.09,.19,.13,.04,.16,.19,.3,.3,.42,.1,.11,.18,.24,.11,.38l-.45-.57,.28,.38-.78-.77Zm.84,1.09c-.48-.52,.17,.1-.1-.26,.07,.07,.12,.12,.18,.17-.02,.03-.05,.06-.08,.09Zm6.61-8.75s0,0,0,0c0,0,0,0,0,0h0Zm33.82-3.72c0,.1-.07,.17-.16,.22,.05-.08,.11-.15,.16-.22Zm3.79-4.67l-.02,.02-.04,.04s-.06,.04-.08,.07c.04-.03,.08-.07,.15-.13h0Zm-.14,.13s0,0,0,0c.75-.67,.22-.19,0,0Zm-5.61,7.37c-1.32-.08-.27,1.03-.18,1.57,.04,.02,.09,.05,.14,.11l-.46,.64c-.87-.96,.64,.95-.08,.11-1.74,1.43-1.99,4.23-3.24,6.17l.32,.03c-.28,.51-.2,1.32-.82,1.54-.62,.22,.38,1.18,.36,1.35,.05,.08,.05,.21,.07,.22,0,.1-.18,.1-.35,.06-.14,0-.28-.02-.31-.06-.03,.29-.06,.91-.03,1.93,.02,.52,.1,1.17,.27,1.77,.12,.47,.28,.9,.43,1.31-.05,.03-.09,.06-.12,.08l-.23-.44c.12,.55-.43,.63-.88,.59-.46-.03-.87-.31-.97-.19-.33-.43-.41,.79-.74,.75-.43,.3-.28-.67-.5-1.01-.24-.16,.08,.71,0,.86-.11-.19-.22-.4-.31-.62,.16-.25,.06-.57,.03-.8-.24,.14-.45-.93-.64,.61-.25-.46-.15-1.11-.25-1.09,0,.26,.04,.46,0,.77-.03-.6-.08,.22-.05,.33-.14,.42-.31-.1-.39-.59-.09-.48-.12-.91-.39,.05l.09-.34c-.42,1.43-.68,2.75-1.09,3.61l.05-.58-.38,.67c0-.43,.2-.83,.25-1-.53,.75-.72-.02-.98-.29-.45,1.33-.85,2.67-1.18,3.99-.05-.46-.05-1.19-.08-1.68-.04-.47-.12-.71-.48-.1,.15-.47,.31-.94,.48-1.4,.38-1.39,.19-1.2-.15-.79-.33,.41-.76,1.07-.64,.6,.2-.53,.41-1.04,.65-1.56,.05,.09,.12,.18,.18,.26,.23-.89,.46-1.41,.96-2.37l-.03,.03c-.03,.06-.07,.13-.12,.2h-.04c-.47,.59-.85,.86-.9,.64,.04-.39-.76,.11,.21-1.38l-1.03,.88c.19-.32,.38-.63,.57-.92l.81-.73c-.04,.34,.36,.54,.52,.79l.35-.42c-.06-.16-.47,.02-.42-.2,.14-.24,.96-1.2,1.51-1.66l-.8,.7c-.14-.41-.16-.53,.81-1.59l-.41,.3c-.22,.06-.42,.08,.22-.33,.19-.35,.75-.87,1.69-1.26l-.86,.28c.07-.08,1.36-.49,.18-.16-.12,0-.23,0-.34,0,.08-.07-.37-.03,.12-.18h0s0,0,0,0c.03,0,.06-.02,.1-.03-.02,0-.05,0-.07,.01,.4-.18-.72,.09-.2-.14,.57-.08-.97-.01-.74-.15,.38-.04,.75-.06,1.12-.07,.66-.07-.4-.18-.29-.46,.41-.03,1.22,.28,1.95,.53-.88-.32-.58-.2-.96-.43,.35,.14,.42,.19,.74,.33,.44,.12-.27-.23-.14-.45-.61-.39-1.6-.99-1.59-1.1h-.26c-.2-.46-.19-.88,.32-1.07l.31,.18,.03-.46,.42,.2c.05-.2,.11-.39,.16-.59h-.15c.02-.14,.11-.62,.45-.73l.22,.14c1.07-.21,.49-1.27,.92-2.04l.37,.39c.59,.05-.63-.53-.21-.67l.54,.36c-.51-.74,.38-.22,.76-.2l-.74-.42,.38-.22c.49-.18,1.02,.43,1.33,.74l-.35-.63,.63,.41c-.56-.7,.24-.08,.1-.66,.24,.15,.31,.32,.48,.3l-.43-1.13,.12,.58-.82-.72c-.39-.83,.43-.34,.38-.76l.12,.36c.09-.53,.47-.24,.82-.28-.21-.07-.52-.18-.5-.41,.05-.14,.34,.2,.51,.18-.52-.5-.59-1.02-.13-1.01,.07,.07,.14,.14,.18,.2-.03-.14-.14-.29,.08-.27l.54,.6-.39-.71c.28,.03,.03-.56,.41-.17l.05,.18c.34-.28,.7-.53,1.05-.79l.47,.45c-.52-.75,.69-.2-.1-.98,.56,.3,.32-.86,1.05,.17,.28-.17,.28-.52,.35-.84,.06-.3,.21-.59,.63-.48,.42,.48,.66,.51,.84,.46-.09,.11-.19,.21-.27,.33-.27,.43-.44,.96-.34,1.74-.62-.68,.19,.6-.66,.16Z"/><path class="cls-1" d="M148.97,113.93s0-.04,0-.05c-.02,.02-.02,.04,0,.05Z"/><path class="cls-1" d="M151.32,125.22l-.02,.04c.14,.34,.13,.16,.02-.04Z"/><polygon class="cls-1" points="142.13 120.27 142.14 120.29 142.45 119.41 142.13 120.27"/><path class="cls-1" d="M145.91,118.17s.09-.11,.12-.29c-.13,0-.14,.11-.12,.29Z"/><path class="cls-1" d="M186.95,105.22h0c-.16,0-.29-.01-.4-.02l.4,.02Z"/><path class="cls-1" d="M188.11,104.6s.03-.01,.05-.02c-.11,.04-.21,.07-.05,.02Z"/><path class="cls-1" d="M186.39,109.76s-.04-.05-.04-.08c-.02,.02,0,.04,.04,.08Z"/><path class="cls-1" d="M176.57,121.78s0,0,0-.02c-.02-.02-.04-.04-.06-.07l.06,.09Z"/><path class="cls-1" d="M176.48,121.53c.1,.07,.09,.19,.09,.23,.14,.15,.2,.14,.21,.03-.11-.2-.19-.12-.29-.26Z"/><path class="cls-1" d="M188.44,103.78c.13-.09,.24-.17,.33-.23h0s-.34,.23-.34,.23Z"/><path class="cls-1" d="M189.34,100.98c-.04,.05-.08,.1-.12,.16-.08,.17-.03,.23,.06,.28l.44-.55c-.12,.03-.25,.07-.38,.11Z"/><path class="cls-1" d="M174.02,122.36s.02-.02,.02-.02c0-.01-.01,0-.02,.02Z"/><path class="cls-1" d="M195.21,118.33c-.13-.67-.06-1.21,.11-1.7,.17-.48,.44-.88,.75-1.34l.05,.08,.12-.51c.06,.01,.14,.05,.19,.09-.3-.81,.68-1.28,1.24-1.8l.05,.07c.31-.58,.57-1.17,.79-1.78l.31-.91,.07-.23,.13-.38,.22-.73c.59-1.95,.96-3.84,1.32-5.67,.17-1.03,.28-2.04,.35-3.02,.04-.97,.08-1.92,.05-2.94,.29-1.5-.38-2.75-1.25-3.83-.89-1.09-2.02-2.02-2.98-3.21-.01-.47-1.42-1.35-2.96-1.6-1.01-.19-2.11-.1-2.87,.04,.12-.87,.21-1.63,.47-2.61,1.67,.04,.52-1.96,1.67-2.29l-.4-.49c1.09-.02,.53-1.34,1.72-1.57-.13-.3-.14-.43-.14-.48-.04,.02-.17,0-.5-.17,.34-.06,.29-.63,.92-.22l.04,.09c.63,.41,.05-.77,.73-.66l-.76-.29,.33-.3,.07,.18c-.58-2.52,2.04-1.94,1.55-4.28,.63,.65-.21-.53,.61-.06,1.26,.24,.21-.84,.12-1.32-.04-.02-.08-.06-.14-.11l.43-.49c.83,.95-.62-.91,.08-.08,1.63-.95,1.99-3.28,3.36-4.7l-.31-.09c.31-.39,.31-1.1,.93-1.16,.62-.05-.24-1.11-.2-1.26-.24-.63,.86-.38,.72-.26,.1-.45-.61-1.38,.11-1.64,.97,.38,.05-1.98,.99-1.3l-.08-.06c1-.07,.57-1.82,1.62-2.69,0,0,.07,.05,.13,.12-.79-1.26-1.86-2.32-3.19-3.07-1.25,0-2.36-.07-3.58-.23-.92,.06-1.93-.08-2.87-.41,.03,.32-.82,2-1.14,2.89l-2.73,2.08-3.76,6.9,.45,.93c-2.1,.54-1.63,3.14-3.41,4.03l.63,.41c-.2,.43-.58,.17-.75,.2-2.09,3.87-3.43,8.31-6.13,11.38-.62,.11-.9,1.28-1.51,1.31,.1,.78,0,1.49-.21,2.13-.23,.67-.51,1.16-.89,1.82l-.05-.09-.2,.75c-.07,0-.15-.03-.19-.07,.11,.56-.14,1.13-.5,1.83-.35,.7-.8,1.56-1.03,2.44l-.07-.11c-.06,.43-.08,.88-.08,1.33-1.77,2.98-3.12,5.94-5.34,8.6-2.21,1.54-1.91,4.74-3.92,6.73-.44,.07-1.09,1.39-1.58,2.76-.25,.69-.45,1.38-.59,1.94-.12,.51-.26,1.13-.21,1.26l1.11-.34c-.26,1.17-.61,1.84-.92,2.44-.3,.6-.53,1.11-.43,1.83l-.16-.14c-.12,.04,.19,.24,.28,.52,.05,.14,.04,.31-.1,.46-.07,.08-.17,.15-.31,.21-.17,.1-.23-.02-.69,.37-.35,.26-.8,.54-1.24,.89l-.09-.03c-.06,.16,.11,.22-.27,.44,.3-.19,.6-.37,.9-.54-.01,.53,.2,1.03,.05,1.62-.14,.1-.33,.09-.48,.06-.11,.51-.17,1.03-.18,1.55-.21,.13-.41,.26-.62,.4,.31,.54,1.5,.39,.91,1.59,.82-.45,.59,.59,1.01,.42-.1,.06-.24,.2-.37,.32,.05,.16,.13,.42,.19,.58l.08,.05s.02,.01,.02,0l.22-.02,.44-.02h.52s-.03,0,.03,0c0,0,0,0,0,0h.1s.08,0,.12,0c-.02,0-.04,0-.06,0-.05,0-.11,0-.16,0,.11-.03,.25-.03,.38-.11l.21-.12c.06-.08,.12-.18,.19-.26,.13-.18,.25-.34,.38-.49,.26-.29,.52-.52,.73-.64-.14,.71,.13,.18,.4,.06l-.22-.05c.16-.41,.71-.36,.85-.53-.04,0-.1,0-.15,0l.07,.03c-.09,0-.16,0-.22-.03-.11,0-.21-.03-.18-.14l.06,.03c-.08-.17,.02-.45,.07-.56l.45,.08c-.4-.21,0-.65,.67-.87,.67-.24,1.38-.33,1.48-.45h0c.31,.02,.4-.21,.45-.45,.05-.25,.06-.51,.29-.68,.06-.09,.12-.15,.17-.2h0s0,.12,0,.12v.02c0,.11-.1,.52-.45,1.07-.24,.39-.57,.83-1.07,1.37l-.21,.22-.11,.11-.03,.03-.57,.58h0s0,0,0,0h0s.03,.02,.03,.02l.25,.18,.55,.39c.37,.26,.75,.5,1.14,.71,.38,.22,.78,.42,1.18,.58,1,1.07,2.23,1.99,3.64,2.66,1.82,.25,3.68,.09,5.44-.42,.88-.24,1.74-.58,2.55-.97,.44-.2,.73-.37,1.04-.55,.32-.17,.6-.35,.88-.53,.02-.35,.04-.69,.04-1.03,1.03,.26,1.69-.26,2.3-.83,.61-.58,1.14-1.22,2.07-1.31l-.47-.58c.28-.31,.57,.05,.73,.08,1.43-1.39,2.53-3.04,3.54-4.56,1.01-1.52,1.96-2.93,3.2-3.98,.58,.01,.82-.91,1.38-.84Zm-20.33-22.81h0s0,0,0,0h0s0,0,0,0Zm15.78,5.53l-.66,.64c-.06-.2-.51-.2-.72-.27l-.26,.33c.1,.06,.46-.16,.46-.02-.09,.18-.7,.94-1.17,1.35l.66-.62c.25,.19,.32,.25-.41,1.13l.35-.28c.22-.09,.44-.16-.14,.25-.09,.26-.55,.71-1.48,1.18l.85-.39c-.05,.06-1.34,.64-.15,.14l.36-.09c-.07,.06,.4-.08-.09,.14h0s0,0,0,0c-.03,.01-.06,.03-.1,.04,.03,0,.05-.02,.07-.02-.39,.21,.74-.24,.24,.03-.59,.2,1.02-.24,.82-.11-.39,.12-.78,.23-1.17,.33-.6,.19,.23,.03,.39,.14,.02,.01,.03,.03,.03,.04-.42,.13-1.35,.16-2.19,.21,1-.05,.66-.04,1.12-.01-.41,0-.49,0-.86,0-.48,0,.37,0,.33,.03,.76,.03,1.95,.11,1.99,.14l.25-.02c.37,.11,.51,.26,.11,.32l-.36-.06,.15,.14-.46-.09,.09,.17h.13c.05,.06,.16,.23-.1,.21l-.24-.09c-.21-.02-.29-.05-.32,0-.05,.1-.04,.22,0,.35,.07,.27,.24,.6,.17,.87l-.45-.28c-.55-.04,.72,.38,.39,.48l-.59-.26c.69,.53-.27,.16-.61,.14l.79,.3-.27,.15c-.37,.13-1.03-.31-1.42-.54l.52,.46-.69-.3c.72,.5-.18,.06,.13,.47-.26-.11-.38-.24-.52-.22l.76,.83-.3-.42,.96,.52c.62,.61-.26,.25-.08,.55l-.23-.26c.1,.38-.32,.18-.61,.21,.2,.05,.5,.13,.57,.3,.01,.11-.36-.14-.5-.13,.63,.37,.86,.74,.46,.74-.09-.05-.17-.11-.22-.15,.08,.1,.23,.22,.03,.2l-.68-.44,.59,.52c-.25-.02,.18,.42-.28,.13l-.11-.14-.63,.68-.56-.32c.72,.53-.54,.24,.43,.79-.6-.17,.02,.79-1,.06-.38,.43,.47,1.35-.42,1.6-1.02-.36-1.09,.36-1.43,.65-.1,.92-.09,1.6-.33,2.46-1.46-.53-.38,1.28-1.36,1.12l.35,.5c-.92-.39-.44,.79-1.42,.46,.1,.26,.11,.36,.11,.4,.03,0,.13,.06,.4,.32-.28-.09-.25,.33-.75-.23l-.03-.08c-.49-.56-.06,.52-.59,.14l.59,.54-.27,.07-.05-.16c.17,1.02-.27,1.14-.7,1.2-.43,.07-.85,.07-.82,1.03-.36-.8,.08,.49-.44-.31-.83-.89-.22,.44-.24,.82,.02,.04,.05,.09,.07,.16-.12,.03-.23,.04-.34,.05-.39-1.16,.25,.99-.06,0-.13-.06-.29-.07-.37-.11-.08-.04-.15-.05-.21-.05-.12,0-.21,.05-.32,.11-.2,.13-.47,.29-.68,.07v.32c-.11-.07-.36,.29-.34-.24,.05-.5-.41,.73-.49,.75-.28,.41-.1-.35-.03-.5-.18,.16-.75,.99-.72,.46,.23-.46,0-.32-.24-.22-.25,.11-.49,.17-.13-.27l-.06,.07c.5-.56-.97-.44-1.83-1.55l-.07-.15s.06-.05,.12-.08c-.04,.02-.09,.04-.13,.05l-.05-.11c.29-.07,.44,.08,.52,.12-.14-.54,.47-.94,.77-1.39l-2.07-.27c.61-.23,1.79-.6,1.24-.94l.73,.02c1.54-.3-.26-.8,.24-.97l.86-.11-.19,.4c.52-.25,.82-.32,1.4-.44h-.02s-.08,0-.12-.02v-.06c-.3-.2-.44-.52-.28-.79,.28-.36-.07-.91,.94-1.21l-.6-.48,.63-.29,.54,.26c-.26,.45-.47,1.43-.72,2.05l.24,.12c.16-.36,.11-.88,.28-1.09,.16-.06,.87-.09,1.13,.3l-.43-.47c.5-1.21,.48-1.23,1.69-2.13l-.32-.03c-.04-.32-.07-.64,.4-.48,.46-.67,1.18-1.23,2.1-1.32l-.57-.44c.12-.13,1.17,.17,.34-.38l-.1-.47c.16-.17-.12-.49,.36-.52h0s0,0,0,0c.03,0,.06,0,.1,0-.02,0-.04-.02-.05-.03,.53-.29-.55-.31,.1-.62,.53,.09-.67-.63-.38-.8l1.02,.27c.76-.15-.06-.75,.34-1.39,.5-.12,1.32,.21,1.84,.82-.61-.77-.44-.45-.57-1.05,.36,.15,.4,.24,.64,.5,.58-.07-.16-.38,.01-.61-.56-.47-1.46-1.18-1.44-1.29l-.25-.03c-.15-.48-.1-.86,.4-.96l.29,.22,.07-.42,.39,.24,.2-.53h-.15c.03-.15,.14-.59,.48-.64l.2,.16c.18-.01,.32-.06,.39-.1,.07,0,.08-.03,.09-.1,.04-.12,.11-.3,.23-.59,.12-.3,.3-.68,.51-1.21,.19-.49,.39-1.14,.51-1.88,.08,.11,.15,.13,.21,.11,.08,.12,.16,.23,.23,.35,.21-.34,.26-.54,.22-.68,0,0,.01,0,.02,0,.38-.06,.25,.58,.44,.9,.2,.19-.07-.54,0-.62,.09,.17,.18,.35,.25,.53-.12,.15-.04,.4-.02,.58,.18-.05,.36,.79,.48-.29,.19,.39,.12,.85,.2,.86,0-.19-.04-.35-.01-.56,.03,.45,.06-.14,.03-.23,.1-.27,.24,.15,.3,.53,.07,.37,.09,.68,.28,.05l-.06,.23c.3-.94,.48-1.83,.77-2.38l-.04,.4,.26-.43c-.01,.29-.14,.55-.18,.67,.36-.47,.46,.02,.62,.14,.31-.86,.59-1.72,.83-2.58,.07,.57-.12,1.77,.36,.92l-.32,.88c-.52,1.68,.73-.7,.63-.18-.12,.33-.25,.67-.4,1.01-.06-.02-.12-.06-.18-.07-.11,.53-.25,.86-.57,1.52l.02-.02s.05-.09,.09-.15h.04c.34-.47,.66-.75,.75-.64,.04,.21,.73-.3,.09,.8l.85-.78c-.12,.23-.24,.46-.36,.68Z"/><polygon class="cls-1" points="188.87 99.66 188.86 99.65 188.64 100.23 188.87 99.66"/><path class="cls-1" d="M186.12,100.84c.11,.04,.11-.05,.09-.18-.04,0-.07,.06-.09,.18Z"/><path class="cls-1" d="M182.95,106.6s0,.01-.01,.02c.11,.1,.21,.18,.29,.25l-.28-.27Z"/><path class="cls-1" d="M180.04,109.54s-.03,0-.05,0c.08,.04,.15,.09,.05,0Z"/><path class="cls-1" d="M197.62,74.27s0,.01,0,.02c.03,0,.06,0,.1,0l-.1-.03Z"/><path class="cls-1" d="M197.8,74.48c-.14,.03-.17-.13-.17-.19-.23-.02-.3,.07-.27,.21,.2,.12,.27-.07,.45-.02Z"/><path class="cls-1" d="M175.45,91.73s0-.07-.01-.11c-.03,.04-.01,.07,.01,.11Z"/><path class="cls-1" d="M178.01,112.78c-.1-.05-.18-.08-.26-.11h0s.27,.11,.27,.11Z"/><path class="cls-1" d="M164.82,129.02l-.27-.11s.07,.08,.12,.11c.05,0,.09,0,.14,0Z"/><path class="cls-1" d="M174.76,116.45l-.4-.21-.1,.67s.07,.05,.11,.07c.15-.03,.27-.25,.39-.53Z"/><path class="cls-1" d="M162.77,131.23c-.06-.01-.13-.02-.22-.02-.06,0-.18-.02-.29-.02,.09,0,.19,.01,.26,.02,.1,0,.18,.01,.24,.02Z"/><path class="cls-1" d="M195.24,57.04s.07,.02,.11,.03c0-.06-.04-.08-.11-.03Z"/><path class="cls-1" d="M162.77,131.23s.09,.02,.12,.02c0,0-.05-.01-.12-.02Z"/><path class="cls-1" d="M159.79,126.3v-.03c-.3-.08-.2,0,0,.03Z"/><polygon class="cls-1" points="172.21 119.28 172.19 119.31 172.65 119.37 172.21 119.28"/><path class="cls-1" d="M160.17,130.6c.02,.27,.19,.15,.37-.02-.08-.27-.12-.45-.12-.45-.06,.15-.2,.31-.25,.47Z"/><path class="cls-1" d="M164.34,129.6l.26,.06c-.08-.1-.17-.1-.26-.06Z"/><path class="cls-1" d="M210.4,117.95s0,.01,0,.01c.13,.07,.25,.13,.34,.17l-.34-.18Z"/><path class="cls-1" d="M208.79,119.36s-.03,0-.04,0c.08,.03,.17,.07,.04,0Z"/><path class="cls-1" d="M210.91,113.28s.05,.04,.05,.06c.02-.01-.01-.03-.05-.06Z"/><path class="cls-1" d="M215.88,103.47s0,0,0,.01c.03,.01,.05,.02,.09,.03l-.09-.05Z"/><path class="cls-1" d="M215.89,103.49c-.2-.07-.23-.04-.18,.05,.2,.12,.21,.03,.37,.11-.12-.02-.17-.12-.19-.16Z"/><path class="cls-1" d="M207.9,120.93c-.11-.04-.19-.07-.26-.09h0s.27,.09,.27,.09Z"/><path class="cls-1" d="M199.44,127.78l-.26-.07s.06,.04,.11,.06c.05,0,.09,0,.14,.01Z"/><path class="cls-1" d="M205.52,122.68s.07,.03,.12,.05c.13,0,.19-.09,.23-.23l-.42-.17,.07,.35Z"/><path class="cls-1" d="M211.49,114.79c.26,.11,.39,.21,.52,.21l-.83-.7,.35,.35-.98-.48c-.67-.51,.21-.16-.01-.41l.26,.22c-.15-.3,.27-.11,.54-.11-.2-.06-.49-.14-.59-.27-.03-.08,.36,.14,.49,.14-.65-.33-.93-.62-.57-.6,.09,.05,.18,.09,.24,.13-.09-.08-.25-.18-.07-.16l.71,.38-.64-.44c.23,.03-.25-.33,.24-.08l.13,.11,.42-.43,.58,.28c-.77-.44,.44-.12-.56-.6,.59,.17-.19-.57,.9,.05,.25-.29-.73-1.01,.02-1.14,1.01,.34,.91-.2,1.15-.4-.13-.7-.31-1.21-.34-1.89,1.47,.41-.02-1,.89-.92l-.46-.38c.94,.25,.13-.66,1.09-.5-.18-.2-.23-.28-.23-.31-.03,0-.14-.04-.47-.22,.28,.05,.1-.29,.73,.1l.05,.06c.64,.39-.15-.44,.47-.2l-.72-.36,.21-.09,.11,.12c-1.1-1.62,1.25-.62,.29-2.12,.68,.55-.31-.37,.51,.13,1.12,.48-.03-.44-.21-.75-.04-.03-.08-.06-.14-.1l.25-.17c.92,.8-.73-.71,.05-.03,1.14-.12,.92-1.4,1.73-1.87l-.28-.15c.17-.14,.02-.57,.52-.42,.5,.15-.44-.74-.44-.82-.33-.46,.63,.03,.54,.06-.01-.24-.8-1.03-.26-.97,.87,.53-.37-1.18,.56-.5l-.08-.06c.85,.22-.05-.87,.75-.72,0,0,.06,.06,.12,.11l-2.3-2.75-3.17-2.19-2.91-1.34c-.22,.67-.45,1.32-.65,1.99l-1.92,.58c-.62,1.14-1.24,2.28-1.81,3.44l.59,.7c-1.7-.17-.72,1.57-2.05,1.7l.63,.4c-.08,.22-.47-.03-.61-.05-.96,1.92-1.1,4.28-2.8,5.53-.52-.06-.51,.57-1.04,.46,.54,.96,.24,1.53-.11,2.05l-.06-.06v.32c-.06-.02-.14-.05-.18-.09,.46,.58-.35,.76-.77,1.01l-.06-.06c-1.1,2.08-.68,4.58-2.49,6.3-1.53,.54-.41,2.31-1.79,3.08-.78-.05-1.11,2.46-.84,2.78l.95,.04c.09,.99-.92,1.09-.47,2.07l-.17-.1c-.12,.02,.29,.2,.4,.43,.05,.11,.04,.24-.16,.36-.09,.03-.25,.16-.48,.3-.23,.14-.52,.3-.89,.48l-.12,.06-.09-.02c0,.08,.17,.12-.11,.22l.54-.2,.12-.04s.03,.05,.05,.08c.17,.25,.47,.5,.45,.76-.11,.04-.3,.02-.45,0-.01,.24,0,.49,.01,.73l-.61,.15c.3,.27,1.53,.28,.82,.79,.86-.15,.51,.31,.95,.26-.11,.02-.26,.08-.41,.12,.05,.17,.15,.4,.3,.61,.07,.12,.15,.18,.24,.23,.3,0,.62,0,.98,0,0,0-.1,0-.29,0-.05,0-.1,0-.16,0h0s.04,0,.06-.02c.18-.07,.42-.24,.7-.4,.55-.31,1.22-.58,1.68-.67-.23,.31,.11,.09,.39,.05l-.21-.04c.21-.17,.75-.12,.9-.18-.04,0-.1,0-.15-.01l.07,.02c-.1,0-.16-.01-.21-.03-.12-.01-.21-.03-.17-.08l.06,.02c-.07-.09,.03-.2,.08-.25l.45,.07c-.57-.18,.37-.41,1.02-.48,.31-.04,.56-.06,.58-.1,.3,.02,.28-.06,.24-.16-.04-.11-.1-.25,.07-.3,.24-.27,.68,.06,1.1,.03,.34-.1-.51-.13-.51-.22l.67-.03c0,.15,.29,.17,.46,.2,.14-.18,1.04-.22,.21-.58,.5-.13,.85,0,.93-.11-.17-.02-.34,.01-.51-.05,.41,.02-.07-.08-.17-.07-.31-.3,1.86-.3,.93-.67l.17,.06c-.68-.29-1.38-.47-1.72-.72l.34,.03-.26-.22c.25,0,.42,.11,.51,.14-.25-.31,.22-.43,.4-.62l-1.98-.45c.51-.04,1.52-.06,.93-.32l.68,.12c1.35,.06-.43-.46,0-.48l.76,.06-.08,.19c.42-.06,.68-.05,1.18-.04h-.02s-.07-.01-.11-.03v-.03c-.34-.15-.54-.34-.47-.47,.17-.16-.28-.5,.57-.52l-.67-.35,.51-.07,.56,.22c-.12,.21-.07,.71-.15,1.01l.25,.1c.06-.17-.11-.46-.01-.55,.13-.01,.77,.07,1.11,.32l-.51-.31c.16-.59,.13-.6,.99-.94l-.3-.06c-.12-.18-.23-.36,.23-.21,.23-.32,.73-.53,1.53-.47l-.63-.32c.07-.06,1.1,.23,.2-.17l-.22-.27c.09-.08-.26-.3,.16-.25h0s0,0,0,0c.03,0,.05,0,.09,.01-.02,0-.04-.01-.05-.02,.38-.11-.59-.24-.1-.34,.5,.11-.79-.44-.59-.5l.99,.26c.63,0-.29-.43-.15-.77,.4-.02,1.23,.25,1.89,.65-.79-.51-.53-.3-.86-.67,.36,.12,.43,.17,.73,.35,.48,0-.27-.24-.2-.36-.65-.32-1.68-.82-1.7-.88l-.23-.04c-.29-.29-.39-.51,0-.53l.33,.15-.1-.24,.43,.18-.03-.3-.13-.02c-.03-.08-.09-.33,.18-.34l.23,.11c.87,.03,.02-.64,.1-1.02l.46,.26c.53,.1-.72-.37-.42-.4l.59,.26c-.71-.48,.24-.09,.57-.04l-.79-.31,.23-.09c.33-.06,1.02,.34,1.41,.55l-.55-.4,.69,.29c-.75-.45,.17-.03-.18-.37Z"/><path class="cls-1" d="M194.24,126.16v-.02c-.31-.06-.2-.01,0,.02Z"/><polygon class="cls-1" points="204.18 123.65 204.17 123.66 204.6 123.76 204.18 123.65"/><path class="cls-1" d="M203.4,126.63c.14-.1,.07-.13-.06-.15-.03,.04-.03,.09,.06,.15Z"/><path class="cls-1" d="M194.64,128.2c-.02,.12,.17,.08,.37,.02-.04-.13-.06-.21-.06-.21-.07,.06-.24,.13-.31,.2Z"/><path class="cls-1" d="M198.9,128.02l.26,.04c-.06-.05-.16-.06-.26-.04Z"/><path class="cls-1" d="M105.77,120.39s0,0,0,.01c.12,.09,.23,.16,.31,.22l-.31-.23Z"/><path class="cls-1" d="M104.02,121.56s-.03,0-.04,0c.08,.04,.16,.09,.04,0Z"/><path class="cls-1" d="M107.26,114.74s.04,.05,.05,.07c.02-.02,0-.04-.05-.07Z"/><path class="cls-1" d="M103.07,122.95c-.1-.04-.19-.08-.26-.11h0s.26,.11,.26,.11Z"/><path class="cls-1" d="M93.57,129.9l-.26-.05s.06,.05,.12,.06c.05,0,.09,0,.14,0Z"/><path class="cls-1" d="M100.57,124.73s.07,.04,.11,.06c.13,0,.21-.1,.25-.25l-.41-.18,.04,.38Z"/><path class="cls-1" d="M91.2,131.23c.13,0,.24,0,.32,0-.01,0-.12,0-.32,0Z"/><path class="cls-1" d="M91.11,131.23s.07,0,.09,0c-.03,0-.06,0-.09,0Z"/><path class="cls-1" d="M89.31,126.1h0c-.26-.18-.17-.11,0,0Z"/><polygon class="cls-1" points="99.12 125.81 99.11 125.82 99.54 125.94 99.12 125.81"/><path class="cls-1" d="M97.77,129.23c.17-.1,.11-.15-.01-.19-.05,.05-.05,.1,.01,.19Z"/><path class="cls-1" d="M88.84,131.09c-.01,.09,.17,.04,.37-.04-.05-.08-.08-.18-.08-.17-.07,.07-.22,.16-.29,.21Z"/><path class="cls-1" d="M93.05,130.25h.26c-.07-.04-.16-.03-.26,0Z"/><path class="cls-1" d="M114.05,112.91h0c.1,.12,.19,.21,.26,.28l-.26-.28Z"/><path class="cls-1" d="M112.74,112.9s-.02-.02-.03-.02c.06,.06,.13,.13,.03,.02Z"/><path class="cls-1" d="M111.73,113.54c-.08-.08-.14-.15-.19-.21h0s.19,.21,.19,.21Z"/><path class="cls-1" d="M109.24,113.39s.04,.07,.06,.11c.09,.09,.18,.07,.26,0l-.23-.39-.09,.28Z"/><path class="cls-1" d="M130.23,111.12s0,0,0,.02c.02,.02,.04,.04,.07,.07l-.06-.08Z"/><path class="cls-1" d="M130.31,111.36c-.1-.07-.09-.19-.09-.23-.15-.15-.2-.14-.21-.03,.11,.2,.19,.12,.3,.26Z"/><path class="cls-1" d="M115.84,96.68c.09,.07,.17,.12,.23,.16h0s-.24-.16-.24-.16Z"/><path class="cls-1" d="M126.71,94.93l.13,.23s-.01-.07-.04-.12c-.03-.04-.06-.07-.09-.11Z"/><path class="cls-1" d="M119.23,95.6s-.05-.06-.08-.1c-.11-.06-.22,0-.32,.1l.3,.34,.1-.34Z"/><polygon class="cls-1" points="120.85 95.42 120.87 95.42 120.54 95.11 120.85 95.42"/><path class="cls-1" d="M122.97,93.41c-.16,0-.12,.06-.03,.15,.05-.01,.07-.06,.03-.15Z"/><path class="cls-1" d="M129.95,98.53c.07-.02-.06-.15-.22-.3-.03,.07-.06,.11-.06,.11,.07,.04,.2,.15,.27,.19Z"/><path class="cls-1" d="M127.22,95.23l-.13-.22c0,.07,.06,.15,.13,.22Z"/></g></g></svg>