<svg xmlns="http://www.w3.org/2000/svg" viewBox="0 0 146.32 145.95"><defs><style>.cls-1{fill:#8e9fd1;}.cls-2{fill:#c5e1b1;}.cls-3{fill:#038a81;}.cls-4{fill:#fff;}</style></defs><title>starLingo</title><g id="Layer_2" data-name="Layer 2"><g id="Layer_1-2" data-name="Layer 1"><path class="cls-1" d="M50.59,103V51.64C28.5,44.41,14.19,44.92,3.29,51a73.29,73.29,0,0,0,6.56,58.41C25.61,110.08,38.54,106.76,50.59,103Z"/><path class="cls-1" d="M80.57,94.72a68.88,68.88,0,0,1,14.75-.86c8.84.47,19.47,3.6,27.91,6.62h17.64c.44-1.07.87-2.15,1.25-3.25-24.38-14.35-44.6-25.32-61.55-33.32Z"/><path d="M50.59,51.64V3.19A73.36,73.36,0,0,0,3.29,51C14.19,44.92,28.5,44.41,50.59,51.64ZM40.35,20.33l.36-6.44.35,6.44,6.44.36-6.44.36-.35,6.44-.36-6.44-6.44-.36Zm-9.09,5.52.58-5.16.58,5.16,5.16.58L32.42,27l-.58,5.16L31.26,27l-5.16-.58Z"/><path d="M83.73,9.69l-3.16.18v6.75l5-.61L86.73,6.6,87.87,16l9.41,1.14-9.41,1.14-1.14,9.4-1.14-9.4-5-.61V63.91c17,8,37.17,19,61.55,33.32A73.17,73.17,0,0,0,80.57,0V9.52ZM98.16,54l-.39,3.27L97.37,54l-3.27-.39,3.27-.4.4-3.27.39,3.27,3.27.4Zm24.64,7.44.36-6.44.36,6.44,6,.33.39-3.16,1.31,10.85,10.86,1.32-10.86,1.31L130,83l-1.32-10.86-10.86-1.31,10.86-1.32.93-7.65-6,.34-.36,6.44-.36-6.44-6.44-.36Zm-14.5-39,.26-4.68.26,4.68,4.68.26-4.68.26-.26,4.68L108.3,23l-4.68-.26Zm-4.68,19.14.35,6.44,6.44.36-6.44.36-.35,6.44-.36-6.44-6.44-.36,6.44-.36Z"/><path class="cls-2" d="M69,124.34q-9.79,0-14.08-4.2a12.29,12.29,0,0,1-2.53-3.72,150.87,150.87,0,0,0-37.71.28A73.14,73.14,0,0,0,106.39,138a83,83,0,0,0-22.45-13.62Z"/><path class="cls-3" d="M80.57,94.72v5.76h42.66c-8.44-3-19.07-6.15-27.91-6.62A68.88,68.88,0,0,0,80.57,94.72Z"/><path class="cls-3" d="M106.39,138A73.17,73.17,0,0,0,125,124.34H83.94A83,83,0,0,1,106.39,138Z"/><path class="cls-3" d="M52.35,116.42a24.07,24.07,0,0,1-1.76-9.88V103c-12.05,3.75-25,7.07-40.74,6.42a73.54,73.54,0,0,0,4.79,7.27A150.87,150.87,0,0,1,52.35,116.42Z"/><polygon class="cls-4" points="40.71 27.49 41.06 21.05 47.5 20.69 41.06 20.33 40.71 13.89 40.35 20.33 33.91 20.69 40.35 21.05 40.71 27.49"/><polygon class="cls-4" points="108.56 27.69 108.82 23.01 113.5 22.75 108.82 22.49 108.56 17.81 108.3 22.49 103.62 22.75 108.3 23.01 108.56 27.69"/><polygon class="cls-4" points="123.16 68.63 123.52 62.19 129.57 61.85 129.57 61.81 123.52 61.48 123.16 55.04 122.8 61.48 116.36 61.83 122.8 62.19 123.16 68.63"/><polygon class="cls-4" points="103.26 48.79 103.62 55.23 103.97 48.79 110.41 48.43 103.97 48.07 103.62 41.63 103.26 48.07 96.82 48.43 103.26 48.79"/><polygon class="cls-4" points="31.84 32.17 32.42 27.01 37.58 26.43 32.42 25.85 31.84 20.69 31.26 25.85 26.1 26.43 31.26 27.01 31.84 32.17"/><polygon class="cls-4" points="86.73 27.69 87.87 18.29 97.28 17.15 87.87 16.01 86.73 6.6 85.59 16.01 80.57 16.62 80.57 17.68 85.59 18.29 86.73 27.69"/><polygon class="cls-4" points="97.77 49.98 97.37 53.25 94.1 53.65 97.37 54.04 97.77 57.31 98.16 54.04 101.43 53.65 98.16 53.25 97.77 49.98"/><polygon class="cls-4" points="129.57 61.85 128.64 69.5 117.78 70.82 128.64 72.13 129.96 82.99 131.27 72.13 142.13 70.82 131.27 69.5 129.96 58.65 129.57 61.81 129.96 61.83 129.57 61.85"/><polygon class="cls-4" points="129.96 61.83 129.57 61.81 129.57 61.85 129.96 61.83"/></g></g></svg>